{"glyphs":{"0":{"ha":753,"x_min":67,"x_max":686,"o":"m 376 -13 q 146 111 225 -13 q 67 514 67 235 q 145 917 67 793 q 376 1041 224 1041 q 607 917 528 1041 q 686 514 686 793 q 607 111 686 235 q 376 -13 528 -13 m 376 81 q 486 120 442 81 q 555 256 531 160 q 578 512 578 351 q 555 771 578 675 q 486 907 531 867 q 376 947 442 947 q 267 907 311 947 q 198 772 222 867 q 174 516 174 677 q 198 257 174 353 q 267 121 222 161 q 376 81 311 81 z "},"1":{"ha":415,"x_min":12,"x_max":308,"o":"m 244 1031 l 308 1031 l 308 0 l 201 0 l 201 895 l 12 758 l 12 862 l 244 1031 z "},"2":{"ha":591,"x_min":21,"x_max":553,"o":"m 553 95 l 553 0 l 33 0 l 33 61 l 286 463 q 375 632 348 561 q 402 767 402 702 q 353 905 402 863 q 206 947 305 947 q 21 909 106 947 l 21 1004 q 112 1031 58 1021 q 217 1041 167 1041 q 433 977 357 1041 q 509 778 509 914 q 480 618 509 699 q 380 425 451 537 l 169 95 l 553 95 z "},"3":{"ha":619,"x_min":29,"x_max":574,"o":"m 358 534 q 519 443 464 510 q 574 271 574 375 q 534 117 574 181 q 420 20 494 53 q 244 -13 346 -13 q 29 22 129 -13 l 29 113 q 134 86 79 95 q 240 77 190 77 q 410 127 350 77 q 469 275 469 177 q 408 428 469 374 q 222 482 347 482 l 135 482 l 135 573 l 183 573 q 373 627 308 573 q 438 776 438 681 q 388 908 438 865 q 237 951 338 951 q 45 913 133 951 l 45 1004 q 138 1031 83 1021 q 246 1041 192 1041 q 467 975 391 1041 q 542 783 542 908 q 494 627 542 693 q 358 534 447 561 z "},"4":{"ha":724,"x_min":31,"x_max":698,"o":"m 698 336 l 698 249 l 567 249 l 567 0 l 468 0 l 468 249 l 31 249 l 31 310 l 377 1028 l 483 1028 l 151 336 l 468 336 l 483 681 l 567 681 l 567 336 l 698 336 z "},"5":{"ha":622,"x_min":47,"x_max":590,"o":"m 230 590 q 501 504 413 578 q 590 287 590 430 q 506 64 590 140 q 263 -13 421 -13 q 47 23 145 -13 l 47 114 q 153 87 98 97 q 260 77 209 77 q 430 129 373 77 q 486 283 486 181 q 456 400 486 354 q 360 470 426 445 q 185 501 294 494 l 79 508 l 111 1028 l 549 1028 l 549 936 l 208 936 l 185 592 l 230 590 z "},"6":{"ha":699,"x_min":76,"x_max":667,"o":"m 390 590 q 531 558 468 590 q 631 458 594 525 q 667 294 667 392 q 631 125 667 194 q 532 22 595 56 q 390 -13 469 -13 q 160 101 244 -13 q 76 481 76 216 q 176 908 76 775 q 467 1041 275 1041 q 550 1034 510 1041 q 623 1014 591 1028 l 623 922 q 467 949 554 949 q 311 907 373 949 q 216 769 249 865 q 183 515 183 673 q 274 570 219 551 q 390 590 328 590 m 392 75 q 481 97 441 75 q 543 167 520 119 q 567 289 567 215 q 514 450 567 398 q 373 503 460 503 q 269 483 319 503 q 183 423 219 464 q 215 214 188 290 q 286 106 242 137 q 392 75 331 75 z "},"7":{"ha":572,"x_min":6,"x_max":533,"o":"m 6 1028 l 533 1028 l 533 967 l 206 0 l 96 0 l 417 933 l 6 933 l 6 1028 z "},"8":{"ha":753,"x_min":56,"x_max":697,"o":"m 506 523 q 618 455 576 492 q 678 370 660 417 q 697 258 697 322 q 659 116 697 178 q 550 20 621 54 q 383 -13 479 -13 q 206 19 279 -13 q 94 113 132 52 q 56 256 56 173 q 105 417 56 346 q 240 526 153 489 q 121 631 158 571 q 84 776 84 692 q 119 916 84 856 q 221 1008 155 976 q 378 1041 288 1041 q 532 1009 466 1041 q 633 919 597 978 q 668 781 668 860 q 627 633 668 699 q 506 523 585 567 m 189 780 q 208 686 189 724 q 275 618 228 649 q 410 560 323 588 q 424 555 417 558 q 537 648 502 597 q 572 776 572 699 q 521 909 572 863 q 378 956 470 956 q 239 909 288 956 q 189 780 189 862 m 383 72 q 538 119 483 72 q 593 252 593 167 q 573 349 593 310 q 505 416 553 388 q 370 473 458 445 q 319 491 346 481 q 201 401 243 460 q 160 263 160 341 q 216 121 160 170 q 383 72 272 72 z "},"9":{"ha":699,"x_min":32,"x_max":623,"o":"m 309 1041 q 539 926 456 1041 q 623 547 623 812 q 524 120 623 253 q 233 -13 424 -13 q 149 -7 190 -13 q 76 14 108 0 l 76 106 q 233 78 145 78 q 389 121 326 78 q 483 259 451 163 q 517 513 516 355 q 425 457 480 477 q 310 438 371 438 q 168 470 231 438 q 69 569 106 503 q 32 734 32 636 q 68 902 32 833 q 167 1006 104 972 q 309 1041 230 1041 m 326 525 q 431 544 381 525 q 516 605 481 564 q 485 814 512 738 q 413 922 458 891 q 308 953 369 953 q 219 931 258 953 q 156 860 179 908 q 133 739 133 813 q 186 577 133 630 q 326 525 239 525 z "},"\u0000":{"ha":0,"x_min":0,"x_max":0,"o":""},"\r":{"ha":292,"x_min":0,"x_max":0,"o":""}," ":{"ha":292,"x_min":0,"x_max":0,"o":""},"A":{"ha":816,"x_min":12,"x_max":804,"o":"m 696 0 l 594 333 l 219 333 l 118 0 l 12 0 l 332 1028 l 484 1028 l 804 0 l 696 0 m 249 427 l 565 427 l 407 945 l 249 427 z "},"Á":{"ha":816,"x_min":12,"x_max":804,"o":"m 696 0 l 594 333 l 219 333 l 118 0 l 12 0 l 332 1028 l 484 1028 l 804 0 l 696 0 m 249 427 l 565 427 l 407 945 l 249 427 m 363 1117 l 458 1314 l 567 1314 l 454 1117 l 363 1117 z "},"Ă":{"ha":816,"x_min":12,"x_max":804,"o":"m 696 0 l 594 333 l 219 333 l 118 0 l 12 0 l 332 1028 l 484 1028 l 804 0 l 696 0 m 249 427 l 565 427 l 407 945 l 249 427 m 409 1123 q 274 1168 323 1123 q 217 1299 224 1213 l 289 1299 q 324 1213 296 1239 q 409 1187 352 1187 q 494 1213 466 1187 q 528 1299 523 1240 l 599 1299 q 544 1167 592 1212 q 409 1123 495 1123 z "},"Ắ":{"ha":816,"x_min":12,"x_max":804,"o":"m 696 0 l 594 333 l 219 333 l 118 0 l 12 0 l 332 1028 l 484 1028 l 804 0 l 696 0 m 249 427 l 565 427 l 407 945 l 249 427 m 377 1280 l 458 1451 l 539 1451 l 439 1280 l 377 1280 m 408 1123 q 272 1166 321 1123 q 217 1291 224 1208 l 284 1291 q 318 1208 290 1233 q 408 1182 347 1182 q 497 1207 469 1182 q 535 1291 525 1233 l 600 1291 q 543 1166 593 1209 q 408 1123 494 1123 z "},"Ặ":{"ha":816,"x_min":12,"x_max":804,"o":"m 696 0 l 594 333 l 219 333 l 118 0 l 12 0 l 332 1028 l 484 1028 l 804 0 l 696 0 m 249 427 l 565 427 l 407 945 l 249 427 m 408 -244 q 353 -227 374 -244 q 333 -179 333 -210 q 353 -131 333 -148 q 408 -113 374 -113 q 463 -131 443 -113 q 483 -179 483 -148 q 463 -227 483 -210 q 408 -244 443 -244 m 409 1123 q 274 1168 323 1123 q 217 1299 224 1213 l 289 1299 q 324 1213 296 1239 q 409 1187 352 1187 q 494 1213 466 1187 q 528 1299 523 1240 l 599 1299 q 544 1167 592 1212 q 409 1123 495 1123 z "},"Ằ":{"ha":816,"x_min":12,"x_max":804,"o":"m 696 0 l 594 333 l 219 333 l 118 0 l 12 0 l 332 1028 l 484 1028 l 804 0 l 696 0 m 249 427 l 565 427 l 407 945 l 249 427 m 377 1280 l 278 1451 l 358 1451 l 439 1280 l 377 1280 m 408 1123 q 272 1166 321 1123 q 217 1291 224 1208 l 282 1291 q 318 1208 290 1233 q 408 1182 347 1182 q 497 1207 469 1182 q 533 1291 525 1233 l 600 1291 q 543 1166 593 1209 q 408 1123 494 1123 z "},"Ẳ":{"ha":816,"x_min":12,"x_max":804,"o":"m 696 0 l 594 333 l 219 333 l 118 0 l 12 0 l 332 1028 l 484 1028 l 804 0 l 696 0 m 249 427 l 565 427 l 407 945 l 249 427 m 376 1280 q 393 1323 377 1308 q 440 1353 410 1338 q 470 1370 460 1362 q 481 1390 481 1378 q 464 1414 481 1406 q 406 1422 447 1422 q 283 1400 340 1422 l 283 1451 q 343 1467 307 1461 q 413 1473 378 1473 q 515 1453 481 1473 q 549 1397 549 1433 q 534 1357 549 1371 q 490 1328 519 1342 q 455 1306 466 1315 q 441 1280 443 1297 l 376 1280 m 407 1123 q 272 1166 321 1123 q 217 1291 224 1208 l 284 1291 q 318 1208 290 1233 q 407 1182 347 1182 q 496 1207 467 1182 q 535 1291 525 1233 l 600 1291 q 543 1166 593 1209 q 407 1123 494 1123 z "},"Ẵ":{"ha":816,"x_min":12,"x_max":804,"o":"m 696 0 l 594 333 l 219 333 l 118 0 l 12 0 l 332 1028 l 484 1028 l 804 0 l 696 0 m 249 427 l 565 427 l 407 945 l 249 427 m 494 1337 q 450 1344 471 1337 q 399 1364 429 1351 q 356 1381 373 1376 q 322 1387 339 1387 q 267 1375 292 1387 q 217 1338 242 1364 l 217 1403 q 265 1436 239 1425 q 323 1447 290 1447 q 367 1440 346 1447 q 418 1419 388 1433 q 460 1402 442 1408 q 494 1396 478 1396 q 549 1407 525 1396 q 600 1444 574 1419 l 600 1380 q 552 1347 578 1358 q 494 1337 526 1337 m 407 1123 q 272 1166 321 1123 q 217 1291 224 1208 l 284 1291 q 318 1208 290 1233 q 407 1182 347 1182 q 496 1207 467 1182 q 533 1291 525 1233 l 600 1291 q 543 1166 593 1209 q 407 1123 494 1123 z "},"Â":{"ha":816,"x_min":12,"x_max":804,"o":"m 696 0 l 594 333 l 219 333 l 118 0 l 12 0 l 332 1028 l 484 1028 l 804 0 l 696 0 m 249 427 l 565 427 l 407 945 l 249 427 m 593 1117 l 510 1117 l 408 1268 l 306 1117 l 224 1117 l 359 1314 l 458 1314 l 593 1117 z "},"Ấ":{"ha":816,"x_min":12,"x_max":804,"o":"m 696 0 l 594 333 l 219 333 l 118 0 l 12 0 l 332 1028 l 484 1028 l 804 0 l 696 0 m 249 427 l 565 427 l 407 945 l 249 427 m 625 1433 l 705 1433 l 606 1251 l 544 1251 l 625 1433 m 359 1306 l 458 1306 l 593 1117 l 510 1117 l 408 1263 l 306 1117 l 224 1117 l 359 1306 z "},"Ậ":{"ha":816,"x_min":12,"x_max":804,"o":"m 696 0 l 594 333 l 219 333 l 118 0 l 12 0 l 332 1028 l 484 1028 l 804 0 l 696 0 m 249 427 l 565 427 l 407 945 l 249 427 m 408 -244 q 353 -227 374 -244 q 333 -179 333 -210 q 353 -131 333 -148 q 408 -113 374 -113 q 463 -131 443 -113 q 483 -179 483 -148 q 463 -227 483 -210 q 408 -244 443 -244 m 593 1117 l 510 1117 l 408 1268 l 306 1117 l 224 1117 l 359 1314 l 458 1314 l 593 1117 z "},"Ầ":{"ha":816,"x_min":12,"x_max":804,"o":"m 696 0 l 594 333 l 219 333 l 118 0 l 12 0 l 332 1028 l 484 1028 l 804 0 l 696 0 m 249 427 l 565 427 l 407 945 l 249 427 m 623 1251 l 562 1251 l 462 1433 l 542 1433 l 623 1251 m 359 1306 l 458 1306 l 593 1117 l 510 1117 l 408 1263 l 306 1117 l 224 1117 l 359 1306 z "},"Ẩ":{"ha":816,"x_min":12,"x_max":804,"o":"m 696 0 l 594 333 l 219 333 l 118 0 l 12 0 l 332 1028 l 484 1028 l 804 0 l 696 0 m 249 427 l 565 427 l 407 945 l 249 427 m 579 1444 q 682 1424 647 1444 q 716 1368 716 1403 q 701 1328 716 1342 q 658 1300 686 1314 q 622 1277 633 1287 q 608 1251 610 1268 l 543 1251 q 561 1295 544 1280 q 608 1324 577 1310 q 638 1341 628 1333 q 648 1362 648 1349 q 631 1386 648 1378 q 573 1394 615 1394 q 511 1388 543 1394 q 450 1372 478 1382 l 450 1422 q 511 1438 475 1432 q 579 1444 547 1444 m 359 1306 l 458 1306 l 593 1117 l 510 1117 l 408 1263 l 306 1117 l 224 1117 l 359 1306 z "},"Ẫ":{"ha":816,"x_min":12,"x_max":804,"o":"m 696 0 l 594 333 l 219 333 l 118 0 l 12 0 l 332 1028 l 484 1028 l 804 0 l 696 0 m 249 427 l 565 427 l 407 945 l 249 427 m 491 1396 q 544 1407 521 1396 q 593 1444 567 1419 l 593 1380 q 547 1347 572 1358 q 490 1337 522 1337 q 447 1344 468 1337 q 398 1364 426 1351 q 357 1381 372 1376 q 325 1387 341 1387 q 272 1375 296 1387 q 224 1338 249 1364 l 224 1403 q 326 1447 264 1447 q 368 1440 348 1447 q 419 1419 389 1433 q 460 1401 444 1407 q 491 1396 476 1396 m 359 1306 l 458 1306 l 593 1117 l 510 1117 l 408 1263 l 306 1117 l 224 1117 l 359 1306 z "},"Ȁ":{"ha":816,"x_min":12,"x_max":804,"o":"m 696 0 l 594 333 l 219 333 l 118 0 l 12 0 l 332 1028 l 484 1028 l 804 0 l 696 0 m 249 427 l 565 427 l 407 945 l 249 427 m 263 1117 l 189 1314 l 278 1314 l 344 1117 l 263 1117 m 472 1117 l 398 1314 l 488 1314 l 553 1117 l 472 1117 z "},"Ä":{"ha":816,"x_min":12,"x_max":804,"o":"m 696 0 l 594 333 l 219 333 l 118 0 l 12 0 l 332 1028 l 484 1028 l 804 0 l 696 0 m 249 427 l 565 427 l 407 945 l 249 427 m 270 1151 q 219 1169 238 1151 q 201 1216 201 1186 q 219 1264 201 1247 q 270 1282 238 1282 q 322 1264 303 1282 q 340 1216 340 1247 q 322 1169 340 1186 q 270 1151 303 1151 m 546 1151 q 495 1169 514 1151 q 476 1216 476 1186 q 495 1264 476 1247 q 546 1282 514 1282 q 597 1264 578 1282 q 616 1216 616 1247 q 597 1169 616 1186 q 546 1151 578 1151 z "},"Ạ":{"ha":816,"x_min":12,"x_max":804,"o":"m 696 0 l 594 333 l 219 333 l 118 0 l 12 0 l 332 1028 l 484 1028 l 804 0 l 696 0 m 249 427 l 565 427 l 407 945 l 249 427 m 408 -244 q 353 -227 374 -244 q 333 -179 333 -210 q 353 -131 333 -148 q 408 -113 374 -113 q 463 -131 443 -113 q 483 -179 483 -148 q 463 -227 483 -210 q 408 -244 443 -244 z "},"À":{"ha":816,"x_min":12,"x_max":804,"o":"m 696 0 l 594 333 l 219 333 l 118 0 l 12 0 l 332 1028 l 484 1028 l 804 0 l 696 0 m 249 427 l 565 427 l 407 945 l 249 427 m 363 1117 l 249 1314 l 359 1314 l 454 1117 l 363 1117 z "},"Ả":{"ha":816,"x_min":12,"x_max":804,"o":"m 696 0 l 594 333 l 219 333 l 118 0 l 12 0 l 332 1028 l 484 1028 l 804 0 l 696 0 m 249 427 l 565 427 l 407 945 l 249 427 m 376 1117 q 386 1152 376 1138 q 408 1174 396 1166 q 440 1193 420 1183 q 471 1211 461 1203 q 481 1232 481 1219 q 464 1256 481 1248 q 406 1265 447 1265 q 344 1259 376 1265 q 283 1242 312 1253 l 283 1297 q 343 1313 307 1307 q 413 1319 378 1319 q 515 1298 481 1319 q 549 1239 549 1276 q 534 1197 549 1212 q 491 1168 519 1183 q 455 1144 467 1155 q 441 1117 443 1134 l 376 1117 z "},"Ȃ":{"ha":816,"x_min":12,"x_max":804,"o":"m 696 0 l 594 333 l 219 333 l 118 0 l 12 0 l 332 1028 l 484 1028 l 804 0 l 696 0 m 249 427 l 565 427 l 407 945 l 249 427 m 217 1131 q 273 1263 224 1218 q 407 1308 321 1308 q 543 1263 493 1308 q 599 1131 592 1217 l 528 1131 q 492 1217 521 1191 q 407 1244 464 1244 q 322 1217 350 1244 q 289 1131 294 1191 l 217 1131 z "},"Ā":{"ha":816,"x_min":12,"x_max":804,"o":"m 696 0 l 594 333 l 219 333 l 118 0 l 12 0 l 332 1028 l 484 1028 l 804 0 l 696 0 m 249 427 l 565 427 l 407 945 l 249 427 m 217 1178 l 217 1253 l 600 1253 l 600 1178 l 217 1178 z "},"Ą":{"ha":816,"x_min":12,"x_max":863,"o":"m 764 -234 q 863 -209 808 -234 l 863 -264 q 756 -289 811 -289 q 640 -256 680 -289 q 601 -162 601 -224 q 625 -76 601 -116 q 702 0 649 -37 l 696 0 l 594 333 l 219 333 l 118 0 l 12 0 l 332 1028 l 484 1028 l 804 0 q 699 -76 729 -39 q 669 -156 669 -113 q 764 -234 669 -234 m 249 427 l 565 427 l 407 945 l 249 427 z "},"Å":{"ha":816,"x_min":12,"x_max":804,"o":"m 696 0 l 594 333 l 219 333 l 118 0 l 12 0 l 332 1028 l 484 1028 l 804 0 l 696 0 m 249 427 l 565 427 l 407 945 l 249 427 m 408 1110 q 339 1128 369 1110 q 290 1176 308 1145 q 272 1245 272 1207 q 290 1314 272 1283 q 339 1362 308 1344 q 408 1379 369 1379 q 478 1362 447 1379 q 526 1314 509 1344 q 544 1245 544 1283 q 526 1176 544 1207 q 478 1128 509 1145 q 408 1110 447 1110 m 408 1163 q 467 1185 444 1163 q 489 1245 489 1207 q 467 1305 489 1283 q 408 1328 444 1328 q 350 1305 372 1328 q 328 1245 328 1283 q 350 1185 328 1207 q 408 1163 372 1163 z "},"Ǻ":{"ha":816,"x_min":12,"x_max":804,"o":"m 696 0 l 594 333 l 219 333 l 118 0 l 12 0 l 332 1028 l 484 1028 l 804 0 l 696 0 m 249 427 l 565 427 l 407 945 l 249 427 m 519 1326 q 544 1246 544 1290 q 526 1177 544 1208 q 478 1129 509 1147 q 408 1112 447 1112 q 339 1129 369 1112 q 290 1177 308 1147 q 272 1246 272 1208 q 290 1315 272 1284 q 339 1363 308 1346 q 408 1381 369 1381 q 468 1368 442 1381 l 553 1459 l 649 1459 l 519 1326 m 408 1164 q 467 1186 444 1164 q 489 1246 489 1208 q 467 1306 489 1284 q 408 1328 444 1328 q 350 1306 372 1328 q 328 1246 328 1284 q 350 1186 328 1208 q 408 1164 372 1164 z "},"Ã":{"ha":816,"x_min":12,"x_max":804,"o":"m 696 0 l 594 333 l 219 333 l 118 0 l 12 0 l 332 1028 l 484 1028 l 804 0 l 696 0 m 249 427 l 565 427 l 407 945 l 249 427 m 505 1158 q 456 1165 478 1158 q 398 1187 433 1172 q 349 1206 367 1200 q 311 1212 331 1212 q 254 1200 278 1212 q 206 1161 229 1188 l 206 1238 q 312 1284 245 1284 q 361 1277 338 1284 q 419 1255 384 1269 q 466 1235 447 1242 q 506 1229 485 1229 q 563 1241 538 1229 q 611 1280 588 1253 l 611 1203 q 505 1158 573 1158 z "},"Æ":{"ha":1128,"x_min":12,"x_max":1100,"o":"m 680 95 l 1100 95 l 1100 0 l 581 0 l 564 333 l 224 333 l 119 0 l 12 0 l 338 1028 l 1093 1028 l 1093 933 l 636 933 l 655 575 l 1028 575 l 1028 480 l 660 480 l 680 95 m 254 428 l 559 428 l 533 933 l 413 933 l 254 428 z "},"Ǽ":{"ha":1128,"x_min":12,"x_max":1100,"o":"m 680 95 l 1100 95 l 1100 0 l 581 0 l 564 333 l 224 333 l 119 0 l 12 0 l 338 1028 l 1093 1028 l 1093 933 l 636 933 l 655 575 l 1028 575 l 1028 480 l 660 480 l 680 95 m 254 428 l 559 428 l 533 933 l 413 933 l 254 428 m 533 1117 l 628 1314 l 738 1314 l 624 1117 l 533 1117 z "},"B":{"ha":785,"x_min":100,"x_max":741,"o":"m 537 531 q 689 445 638 511 q 741 276 741 380 q 640 62 741 133 q 321 -9 540 -9 q 100 5 208 -9 l 100 1015 q 344 1039 223 1039 q 553 1010 472 1039 q 673 922 635 981 q 712 768 712 862 q 669 618 712 681 q 537 531 627 554 m 354 950 q 205 938 274 950 l 205 573 l 359 573 q 508 594 453 573 q 586 658 563 616 q 609 763 609 699 q 584 871 609 830 q 503 931 559 912 q 354 950 448 950 m 342 80 q 515 101 450 80 q 609 166 580 122 q 638 278 638 209 q 577 432 638 381 q 384 482 515 482 l 205 482 l 205 86 q 342 80 265 80 z "},"C":{"ha":677,"x_min":60,"x_max":662,"o":"m 465 -13 q 245 38 335 -13 q 108 205 156 89 q 60 512 60 321 q 166 916 60 791 q 476 1041 272 1041 q 662 1015 572 1041 l 662 919 q 572 940 616 934 q 479 947 528 947 q 309 906 376 947 q 207 771 242 866 q 172 515 172 676 q 207 255 172 350 q 308 120 242 160 q 475 81 374 81 q 565 90 520 81 q 662 117 609 99 l 662 22 q 569 -4 619 6 q 465 -13 518 -13 z "},"Ć":{"ha":677,"x_min":60,"x_max":662,"o":"m 465 -13 q 245 38 335 -13 q 108 205 156 89 q 60 512 60 321 q 166 916 60 791 q 476 1041 272 1041 q 662 1015 572 1041 l 662 919 q 572 940 616 934 q 479 947 528 947 q 309 906 376 947 q 207 771 242 866 q 172 515 172 676 q 207 255 172 350 q 308 120 242 160 q 475 81 374 81 q 565 90 520 81 q 662 117 609 99 l 662 22 q 569 -4 619 6 q 465 -13 518 -13 m 381 1117 l 476 1314 l 585 1314 l 472 1117 l 381 1117 z "},"Č":{"ha":677,"x_min":60,"x_max":662,"o":"m 465 -13 q 245 38 335 -13 q 108 205 156 89 q 60 512 60 321 q 166 916 60 791 q 476 1041 272 1041 q 662 1015 572 1041 l 662 919 q 572 940 616 934 q 479 947 528 947 q 309 906 376 947 q 207 771 242 866 q 172 515 172 676 q 207 255 172 350 q 308 120 242 160 q 475 81 374 81 q 565 90 520 81 q 662 117 609 99 l 662 22 q 569 -4 619 6 q 465 -13 518 -13 m 528 1314 l 611 1314 l 476 1117 l 377 1117 l 242 1314 l 324 1314 l 426 1163 l 528 1314 z "},"Ç":{"ha":677,"x_min":60,"x_max":662,"o":"m 479 947 q 309 906 376 947 q 207 771 242 866 q 172 515 172 676 q 207 255 172 350 q 308 120 242 160 q 475 81 374 81 q 565 90 520 81 q 662 117 609 99 l 662 22 q 569 -4 619 6 q 465 -13 518 -13 l 458 -13 l 458 -72 q 542 -105 512 -77 q 573 -179 573 -132 q 535 -260 573 -231 q 428 -289 497 -289 q 306 -265 363 -289 l 306 -208 q 424 -235 367 -235 q 506 -176 506 -235 q 484 -131 506 -146 q 423 -117 463 -117 l 396 -117 l 396 -10 q 145 132 231 9 q 60 512 60 256 q 166 916 60 791 q 476 1041 272 1041 q 662 1015 572 1041 l 662 919 q 572 940 616 934 q 479 947 528 947 z "},"Ḉ":{"ha":677,"x_min":60,"x_max":662,"o":"m 585 1314 l 472 1117 l 381 1117 l 476 1314 l 585 1314 m 479 947 q 309 906 376 947 q 207 771 242 866 q 172 515 172 676 q 207 255 172 350 q 308 120 242 160 q 475 81 374 81 q 565 90 520 81 q 662 117 609 99 l 662 22 q 569 -4 619 6 q 465 -13 518 -13 l 458 -13 l 458 -72 q 542 -105 512 -77 q 573 -179 573 -132 q 535 -260 573 -231 q 428 -289 497 -289 q 306 -265 363 -289 l 306 -208 q 424 -235 367 -235 q 506 -176 506 -235 q 484 -131 506 -146 q 423 -117 463 -117 l 396 -117 l 396 -10 q 145 132 231 9 q 60 512 60 256 q 166 916 60 791 q 476 1041 272 1041 q 662 1015 572 1041 l 662 919 q 572 940 616 934 q 479 947 528 947 z "},"Ĉ":{"ha":677,"x_min":60,"x_max":662,"o":"m 465 -13 q 245 38 335 -13 q 108 205 156 89 q 60 512 60 321 q 166 916 60 791 q 476 1041 272 1041 q 662 1015 572 1041 l 662 919 q 572 940 616 934 q 479 947 528 947 q 309 906 376 947 q 207 771 242 866 q 172 515 172 676 q 207 255 172 350 q 308 120 242 160 q 475 81 374 81 q 565 90 520 81 q 662 117 609 99 l 662 22 q 569 -4 619 6 q 465 -13 518 -13 m 611 1117 l 528 1117 l 426 1268 l 324 1117 l 242 1117 l 377 1314 l 476 1314 l 611 1117 z "},"Ċ":{"ha":677,"x_min":60,"x_max":662,"o":"m 465 -13 q 245 38 335 -13 q 108 205 156 89 q 60 512 60 321 q 166 916 60 791 q 476 1041 272 1041 q 662 1015 572 1041 l 662 919 q 572 940 616 934 q 479 947 528 947 q 309 906 376 947 q 207 771 242 866 q 172 515 172 676 q 207 255 172 350 q 308 120 242 160 q 475 81 374 81 q 565 90 520 81 q 662 117 609 99 l 662 22 q 569 -4 619 6 q 465 -13 518 -13 m 426 1151 q 372 1168 392 1151 q 351 1216 351 1185 q 372 1265 351 1247 q 426 1282 392 1282 q 481 1265 461 1282 q 501 1216 501 1247 q 481 1168 501 1185 q 426 1151 461 1151 z "},"D":{"ha":835,"x_min":100,"x_max":775,"o":"m 298 -9 q 100 2 209 -9 l 100 1016 q 322 1039 226 1039 q 663 911 550 1039 q 775 514 775 783 q 722 215 775 331 q 563 45 668 99 q 298 -9 458 -9 m 319 85 q 512 127 436 85 q 626 264 588 169 q 664 514 664 358 q 627 763 664 667 q 518 901 591 858 q 329 945 444 945 q 207 935 269 945 l 207 90 q 319 85 263 85 z "},"Ǳ":{"ha":1497,"x_min":100,"x_max":1462,"o":"m 298 -9 q 100 2 209 -9 l 100 1016 q 322 1039 226 1039 q 663 911 550 1039 q 775 514 775 783 q 722 215 775 331 q 563 45 668 99 q 298 -9 458 -9 m 319 85 q 512 127 436 85 q 626 264 588 169 q 664 514 664 358 q 627 763 664 667 q 518 901 591 858 q 329 945 444 945 q 207 935 269 945 l 207 90 q 319 85 263 85 m 979 96 l 1462 96 l 1462 0 l 842 0 l 842 61 l 1317 932 l 849 932 l 849 1028 l 1455 1028 l 1455 967 l 979 96 z "},"Ǆ":{"ha":1497,"x_min":100,"x_max":1462,"o":"m 298 -9 q 100 2 209 -9 l 100 1016 q 322 1039 226 1039 q 663 911 550 1039 q 775 514 775 783 q 722 215 775 331 q 563 45 668 99 q 298 -9 458 -9 m 319 85 q 512 127 436 85 q 626 264 588 169 q 664 514 664 358 q 627 763 664 667 q 518 901 591 858 q 329 945 444 945 q 207 935 269 945 l 207 90 q 319 85 263 85 m 979 96 l 1462 96 l 1462 0 l 842 0 l 842 61 l 1317 932 l 849 932 l 849 1028 l 1455 1028 l 1455 967 l 979 96 m 1254 1314 l 1338 1314 l 1202 1117 l 1103 1117 l 968 1314 l 1051 1314 l 1153 1163 l 1254 1314 z "},"Ð":{"ha":835,"x_min":-2,"x_max":775,"o":"m 322 1039 q 663 911 550 1039 q 775 514 775 783 q 722 215 775 331 q 563 45 668 99 q 298 -9 458 -9 q 100 2 209 -9 l 100 490 l -2 490 l -2 569 l 100 569 l 100 1016 q 322 1039 226 1039 m 319 85 q 512 127 436 85 q 626 264 588 169 q 664 514 664 358 q 627 763 664 667 q 518 901 591 858 q 329 945 444 945 q 207 935 269 945 l 207 569 l 396 569 l 396 490 l 207 490 l 207 90 q 319 85 263 85 z "},"Ď":{"ha":835,"x_min":100,"x_max":775,"o":"m 298 -9 q 100 2 209 -9 l 100 1016 q 322 1039 226 1039 q 663 911 550 1039 q 775 514 775 783 q 722 215 775 331 q 563 45 668 99 q 298 -9 458 -9 m 319 85 q 512 127 436 85 q 626 264 588 169 q 664 514 664 358 q 627 763 664 667 q 518 901 591 858 q 329 945 444 945 q 207 935 269 945 l 207 90 q 319 85 263 85 m 478 1314 l 562 1314 l 426 1117 l 328 1117 l 192 1314 l 275 1314 l 377 1163 l 478 1314 z "},"Đ":{"ha":835,"x_min":-2,"x_max":775,"o":"m 322 1039 q 663 911 550 1039 q 775 514 775 783 q 722 215 775 331 q 563 45 668 99 q 298 -9 458 -9 q 100 2 209 -9 l 100 490 l -2 490 l -2 569 l 100 569 l 100 1016 q 322 1039 226 1039 m 319 85 q 512 127 436 85 q 626 264 588 169 q 664 514 664 358 q 627 763 664 667 q 518 901 591 858 q 329 945 444 945 q 207 935 269 945 l 207 569 l 396 569 l 396 490 l 207 490 l 207 90 q 319 85 263 85 z "},"Ḍ":{"ha":835,"x_min":100,"x_max":775,"o":"m 298 -9 q 100 2 209 -9 l 100 1016 q 322 1039 226 1039 q 663 911 550 1039 q 775 514 775 783 q 722 215 775 331 q 563 45 668 99 q 298 -9 458 -9 m 319 85 q 512 127 436 85 q 626 264 588 169 q 664 514 664 358 q 627 763 664 667 q 518 901 591 858 q 329 945 444 945 q 207 935 269 945 l 207 90 q 319 85 263 85 m 381 -244 q 326 -227 346 -244 q 306 -179 306 -210 q 326 -131 306 -148 q 381 -113 346 -113 q 435 -131 415 -113 q 456 -179 456 -148 q 435 -227 456 -210 q 381 -244 415 -244 z "},"Ḏ":{"ha":835,"x_min":100,"x_max":775,"o":"m 298 -9 q 100 2 209 -9 l 100 1016 q 322 1039 226 1039 q 663 911 550 1039 q 775 514 775 783 q 722 215 775 331 q 563 45 668 99 q 298 -9 458 -9 m 319 85 q 512 127 436 85 q 626 264 588 169 q 664 514 664 358 q 627 763 664 667 q 518 901 591 858 q 329 945 444 945 q 207 935 269 945 l 207 90 q 319 85 263 85 m 189 -214 l 189 -139 l 572 -139 l 572 -214 l 189 -214 z "},"ǲ":{"ha":1374,"x_min":100,"x_max":1344,"o":"m 298 -9 q 100 2 209 -9 l 100 1016 q 322 1039 226 1039 q 663 911 550 1039 q 775 514 775 783 q 722 215 775 331 q 563 45 668 99 q 298 -9 458 -9 m 319 85 q 512 127 436 85 q 626 264 588 169 q 664 514 664 358 q 627 763 664 667 q 518 901 591 858 q 329 945 444 945 q 207 935 269 945 l 207 90 q 319 85 263 85 m 992 88 l 1344 88 l 1344 0 l 870 0 l 870 65 l 1215 666 l 877 666 l 877 753 l 1338 753 l 1338 689 l 992 88 z "},"ǅ":{"ha":1374,"x_min":100,"x_max":1344,"o":"m 298 -9 q 100 2 209 -9 l 100 1016 q 322 1039 226 1039 q 663 911 550 1039 q 775 514 775 783 q 722 215 775 331 q 563 45 668 99 q 298 -9 458 -9 m 319 85 q 512 127 436 85 q 626 264 588 169 q 664 514 664 358 q 627 763 664 667 q 518 901 591 858 q 329 945 444 945 q 207 935 269 945 l 207 90 q 319 85 263 85 m 992 88 l 1344 88 l 1344 0 l 870 0 l 870 65 l 1215 666 l 877 666 l 877 753 l 1338 753 l 1338 689 l 992 88 m 1209 1092 l 1292 1092 l 1157 894 l 1058 894 l 923 1092 l 1006 1092 l 1108 940 l 1209 1092 z "},"E":{"ha":690,"x_min":100,"x_max":663,"o":"m 206 95 l 663 95 l 663 0 l 100 0 l 100 1028 l 656 1028 l 656 933 l 206 933 l 206 575 l 590 575 l 590 480 l 206 480 l 206 95 z "},"É":{"ha":690,"x_min":100,"x_max":663,"o":"m 206 95 l 663 95 l 663 0 l 100 0 l 100 1028 l 656 1028 l 656 933 l 206 933 l 206 575 l 590 575 l 590 480 l 206 480 l 206 95 m 348 1117 l 443 1314 l 553 1314 l 440 1117 l 348 1117 z "},"Ĕ":{"ha":690,"x_min":100,"x_max":663,"o":"m 206 95 l 663 95 l 663 0 l 100 0 l 100 1028 l 656 1028 l 656 933 l 206 933 l 206 575 l 590 575 l 590 480 l 206 480 l 206 95 m 394 1123 q 259 1168 308 1123 q 203 1299 210 1213 l 274 1299 q 309 1213 281 1239 q 394 1187 338 1187 q 480 1213 451 1187 q 513 1299 508 1240 l 585 1299 q 529 1167 578 1212 q 394 1123 481 1123 z "},"Ě":{"ha":690,"x_min":100,"x_max":663,"o":"m 206 95 l 663 95 l 663 0 l 100 0 l 100 1028 l 656 1028 l 656 933 l 206 933 l 206 575 l 590 575 l 590 480 l 206 480 l 206 95 m 495 1314 l 578 1314 l 443 1117 l 344 1117 l 209 1314 l 292 1314 l 394 1163 l 495 1314 z "},"Ḝ":{"ha":690,"x_min":100,"x_max":663,"o":"m 394 1123 q 259 1168 308 1123 q 203 1299 210 1213 l 274 1299 q 309 1213 281 1239 q 394 1187 338 1187 q 480 1213 451 1187 q 513 1299 508 1240 l 585 1299 q 529 1167 578 1212 q 394 1123 481 1123 m 420 0 l 420 -72 q 504 -105 474 -77 q 535 -179 535 -132 q 497 -260 535 -231 q 390 -289 459 -289 q 267 -265 324 -289 l 267 -208 q 386 -235 328 -235 q 468 -176 468 -235 q 446 -131 468 -146 q 385 -117 424 -117 l 358 -117 l 358 0 l 100 0 l 100 1028 l 656 1028 l 656 933 l 206 933 l 206 575 l 590 575 l 590 480 l 206 480 l 206 95 l 663 95 l 663 0 l 420 0 z "},"Ê":{"ha":690,"x_min":100,"x_max":663,"o":"m 206 95 l 663 95 l 663 0 l 100 0 l 100 1028 l 656 1028 l 656 933 l 206 933 l 206 575 l 590 575 l 590 480 l 206 480 l 206 95 m 578 1117 l 495 1117 l 394 1268 l 292 1117 l 209 1117 l 344 1314 l 443 1314 l 578 1117 z "},"Ế":{"ha":690,"x_min":100,"x_max":690,"o":"m 206 95 l 663 95 l 663 0 l 100 0 l 100 1028 l 656 1028 l 656 933 l 206 933 l 206 575 l 590 575 l 590 480 l 206 480 l 206 95 m 610 1433 l 690 1433 l 591 1251 l 529 1251 l 610 1433 m 344 1306 l 443 1306 l 578 1117 l 495 1117 l 394 1263 l 292 1117 l 209 1117 l 344 1306 z "},"Ệ":{"ha":690,"x_min":100,"x_max":663,"o":"m 206 95 l 663 95 l 663 0 l 100 0 l 100 1028 l 656 1028 l 656 933 l 206 933 l 206 575 l 590 575 l 590 480 l 206 480 l 206 95 m 394 -244 q 339 -227 359 -244 q 319 -179 319 -210 q 339 -131 319 -148 q 394 -113 359 -113 q 449 -131 428 -113 q 469 -179 469 -148 q 449 -227 469 -210 q 394 -244 428 -244 m 578 1117 l 495 1117 l 394 1268 l 292 1117 l 209 1117 l 344 1314 l 443 1314 l 578 1117 z "},"Ề":{"ha":690,"x_min":100,"x_max":663,"o":"m 206 95 l 663 95 l 663 0 l 100 0 l 100 1028 l 656 1028 l 656 933 l 206 933 l 206 575 l 590 575 l 590 480 l 206 480 l 206 95 m 608 1251 l 547 1251 l 447 1433 l 527 1433 l 608 1251 m 344 1306 l 443 1306 l 578 1117 l 495 1117 l 394 1263 l 292 1117 l 209 1117 l 344 1306 z "},"Ể":{"ha":690,"x_min":100,"x_max":701,"o":"m 206 95 l 663 95 l 663 0 l 100 0 l 100 1028 l 656 1028 l 656 933 l 206 933 l 206 575 l 590 575 l 590 480 l 206 480 l 206 95 m 565 1444 q 667 1424 633 1444 q 701 1368 701 1403 q 686 1328 701 1342 q 643 1300 672 1314 q 607 1277 619 1287 q 594 1251 596 1268 l 528 1251 q 546 1295 530 1280 q 593 1324 563 1310 q 623 1341 613 1333 q 633 1362 633 1349 q 617 1386 633 1378 q 558 1394 600 1394 q 496 1388 528 1394 q 435 1372 464 1382 l 435 1422 q 496 1438 460 1432 q 565 1444 532 1444 m 344 1306 l 443 1306 l 578 1117 l 495 1117 l 394 1263 l 292 1117 l 209 1117 l 344 1306 z "},"Ễ":{"ha":690,"x_min":100,"x_max":663,"o":"m 206 95 l 663 95 l 663 0 l 100 0 l 100 1028 l 656 1028 l 656 933 l 206 933 l 206 575 l 590 575 l 590 480 l 206 480 l 206 95 m 476 1396 q 530 1407 506 1396 q 578 1444 553 1419 l 578 1380 q 533 1347 558 1358 q 476 1337 508 1337 q 433 1344 453 1337 q 383 1364 412 1351 q 342 1381 358 1376 q 310 1387 326 1387 q 258 1375 281 1387 q 209 1338 234 1364 l 209 1403 q 311 1447 249 1447 q 354 1440 333 1447 q 404 1419 374 1433 q 445 1401 430 1407 q 476 1396 461 1396 m 344 1306 l 443 1306 l 578 1117 l 495 1117 l 394 1263 l 292 1117 l 209 1117 l 344 1306 z "},"Ȅ":{"ha":690,"x_min":100,"x_max":663,"o":"m 206 95 l 663 95 l 663 0 l 100 0 l 100 1028 l 656 1028 l 656 933 l 206 933 l 206 575 l 590 575 l 590 480 l 206 480 l 206 95 m 248 1117 l 174 1314 l 264 1314 l 330 1117 l 248 1117 m 457 1117 l 383 1314 l 473 1314 l 539 1117 l 457 1117 z "},"Ë":{"ha":690,"x_min":100,"x_max":663,"o":"m 206 95 l 663 95 l 663 0 l 100 0 l 100 1028 l 656 1028 l 656 933 l 206 933 l 206 575 l 590 575 l 590 480 l 206 480 l 206 95 m 256 1151 q 205 1169 224 1151 q 186 1216 186 1186 q 205 1264 186 1247 q 256 1282 224 1282 q 307 1264 288 1282 q 326 1216 326 1247 q 307 1169 326 1186 q 256 1151 288 1151 m 531 1151 q 481 1169 499 1151 q 462 1216 462 1186 q 481 1264 462 1247 q 531 1282 499 1282 q 583 1264 564 1282 q 601 1216 601 1247 q 583 1169 601 1186 q 531 1151 564 1151 z "},"Ė":{"ha":690,"x_min":100,"x_max":663,"o":"m 206 95 l 663 95 l 663 0 l 100 0 l 100 1028 l 656 1028 l 656 933 l 206 933 l 206 575 l 590 575 l 590 480 l 206 480 l 206 95 m 394 1151 q 339 1168 359 1151 q 319 1216 319 1185 q 339 1265 319 1247 q 394 1282 359 1282 q 449 1265 428 1282 q 469 1216 469 1247 q 449 1168 469 1185 q 394 1151 428 1151 z "},"Ẹ":{"ha":690,"x_min":100,"x_max":663,"o":"m 206 95 l 663 95 l 663 0 l 100 0 l 100 1028 l 656 1028 l 656 933 l 206 933 l 206 575 l 590 575 l 590 480 l 206 480 l 206 95 m 394 -244 q 339 -227 359 -244 q 319 -179 319 -210 q 339 -131 319 -148 q 394 -113 359 -113 q 449 -131 428 -113 q 469 -179 469 -148 q 449 -227 469 -210 q 394 -244 428 -244 z "},"È":{"ha":690,"x_min":100,"x_max":663,"o":"m 206 95 l 663 95 l 663 0 l 100 0 l 100 1028 l 656 1028 l 656 933 l 206 933 l 206 575 l 590 575 l 590 480 l 206 480 l 206 95 m 348 1117 l 234 1314 l 344 1314 l 440 1117 l 348 1117 z "},"Ẻ":{"ha":690,"x_min":100,"x_max":663,"o":"m 206 95 l 663 95 l 663 0 l 100 0 l 100 1028 l 656 1028 l 656 933 l 206 933 l 206 575 l 590 575 l 590 480 l 206 480 l 206 95 m 361 1117 q 372 1152 362 1138 q 393 1174 381 1166 q 426 1193 406 1183 q 456 1211 447 1203 q 466 1232 466 1219 q 449 1256 466 1248 q 392 1265 433 1265 q 330 1259 362 1265 q 268 1242 297 1253 l 268 1297 q 328 1313 292 1307 q 398 1319 364 1319 q 500 1298 466 1319 q 534 1239 534 1276 q 519 1197 534 1212 q 476 1168 505 1183 q 440 1144 452 1155 q 426 1117 428 1134 l 361 1117 z "},"Ȇ":{"ha":690,"x_min":100,"x_max":663,"o":"m 206 95 l 663 95 l 663 0 l 100 0 l 100 1028 l 656 1028 l 656 933 l 206 933 l 206 575 l 590 575 l 590 480 l 206 480 l 206 95 m 203 1131 q 258 1263 210 1218 q 392 1308 306 1308 q 528 1263 478 1308 q 585 1131 578 1217 l 513 1131 q 478 1217 506 1191 q 392 1244 449 1244 q 307 1217 335 1244 q 274 1131 279 1191 l 203 1131 z "},"Ē":{"ha":690,"x_min":100,"x_max":663,"o":"m 206 95 l 663 95 l 663 0 l 100 0 l 100 1028 l 656 1028 l 656 933 l 206 933 l 206 575 l 590 575 l 590 480 l 206 480 l 206 95 m 202 1178 l 202 1253 l 585 1253 l 585 1178 l 202 1178 z "},"Ḗ":{"ha":690,"x_min":100,"x_max":663,"o":"m 206 95 l 663 95 l 663 0 l 100 0 l 100 1028 l 656 1028 l 656 933 l 206 933 l 206 575 l 590 575 l 590 480 l 206 480 l 206 95 m 344 1327 l 440 1488 l 556 1488 l 443 1327 l 344 1327 m 202 1178 l 202 1253 l 585 1253 l 585 1178 l 202 1178 z "},"Ḕ":{"ha":690,"x_min":100,"x_max":663,"o":"m 206 95 l 663 95 l 663 0 l 100 0 l 100 1028 l 656 1028 l 656 933 l 206 933 l 206 575 l 590 575 l 590 480 l 206 480 l 206 95 m 344 1327 l 231 1488 l 348 1488 l 443 1327 l 344 1327 m 202 1178 l 202 1253 l 585 1253 l 585 1178 l 202 1178 z "},"Ę":{"ha":690,"x_min":100,"x_max":666,"o":"m 567 -234 q 666 -209 610 -234 l 666 -264 q 558 -289 614 -289 q 443 -256 483 -289 q 403 -162 403 -224 q 427 -76 403 -116 q 505 0 451 -37 l 100 0 l 100 1028 l 656 1028 l 656 933 l 206 933 l 206 575 l 590 575 l 590 480 l 206 480 l 206 95 l 663 95 l 663 0 l 607 0 q 502 -76 532 -39 q 472 -156 472 -113 q 567 -234 472 -234 z "},"Ẽ":{"ha":690,"x_min":100,"x_max":663,"o":"m 206 95 l 663 95 l 663 0 l 100 0 l 100 1028 l 656 1028 l 656 933 l 206 933 l 206 575 l 590 575 l 590 480 l 206 480 l 206 95 m 490 1158 q 441 1165 464 1158 q 383 1187 418 1172 q 334 1206 353 1200 q 297 1212 316 1212 q 239 1200 264 1212 q 191 1161 215 1188 l 191 1238 q 297 1284 231 1284 q 347 1277 324 1284 q 404 1255 369 1269 q 452 1235 433 1242 q 491 1229 471 1229 q 548 1241 523 1229 q 597 1280 573 1253 l 597 1203 q 490 1158 558 1158 z "},"F":{"ha":661,"x_min":100,"x_max":650,"o":"m 650 932 l 207 932 l 207 567 l 586 567 l 586 471 l 207 471 l 207 0 l 100 0 l 100 1028 l 650 1028 l 650 932 z "},"G":{"ha":800,"x_min":60,"x_max":719,"o":"m 719 500 l 719 9 q 530 -9 616 -9 q 269 43 372 -9 q 113 210 165 95 q 60 513 60 325 q 173 917 60 792 q 506 1041 287 1041 q 703 1014 608 1041 l 703 919 q 511 947 610 947 q 323 906 397 947 q 211 770 249 866 q 172 512 172 675 q 211 259 172 352 q 325 125 249 165 q 522 85 401 85 q 618 92 572 85 l 618 500 l 719 500 z "},"Ǵ":{"ha":800,"x_min":60,"x_max":719,"o":"m 719 500 l 719 9 q 530 -9 616 -9 q 269 43 372 -9 q 113 210 165 95 q 60 513 60 325 q 173 917 60 792 q 506 1041 287 1041 q 703 1014 608 1041 l 703 919 q 511 947 610 947 q 323 906 397 947 q 211 770 249 866 q 172 512 172 675 q 211 259 172 352 q 325 125 249 165 q 522 85 401 85 q 618 92 572 85 l 618 500 l 719 500 m 408 1117 l 503 1314 l 613 1314 l 499 1117 l 408 1117 z "},"Ğ":{"ha":800,"x_min":60,"x_max":719,"o":"m 719 500 l 719 9 q 530 -9 616 -9 q 269 43 372 -9 q 113 210 165 95 q 60 513 60 325 q 173 917 60 792 q 506 1041 287 1041 q 703 1014 608 1041 l 703 919 q 511 947 610 947 q 323 906 397 947 q 211 770 249 866 q 172 512 172 675 q 211 259 172 352 q 325 125 249 165 q 522 85 401 85 q 618 92 572 85 l 618 500 l 719 500 m 454 1123 q 319 1168 368 1123 q 263 1299 269 1213 l 334 1299 q 369 1213 341 1239 q 454 1187 397 1187 q 540 1213 511 1187 q 573 1299 568 1240 l 644 1299 q 589 1167 638 1212 q 454 1123 540 1123 z "},"Ǧ":{"ha":800,"x_min":60,"x_max":719,"o":"m 719 500 l 719 9 q 530 -9 616 -9 q 269 43 372 -9 q 113 210 165 95 q 60 513 60 325 q 173 917 60 792 q 506 1041 287 1041 q 703 1014 608 1041 l 703 919 q 511 947 610 947 q 323 906 397 947 q 211 770 249 866 q 172 512 172 675 q 211 259 172 352 q 325 125 249 165 q 522 85 401 85 q 618 92 572 85 l 618 500 l 719 500 m 555 1314 l 638 1314 l 503 1117 l 404 1117 l 269 1314 l 351 1314 l 453 1163 l 555 1314 z "},"Ĝ":{"ha":800,"x_min":60,"x_max":719,"o":"m 719 500 l 719 9 q 530 -9 616 -9 q 269 43 372 -9 q 113 210 165 95 q 60 513 60 325 q 173 917 60 792 q 506 1041 287 1041 q 703 1014 608 1041 l 703 919 q 511 947 610 947 q 323 906 397 947 q 211 770 249 866 q 172 512 172 675 q 211 259 172 352 q 325 125 249 165 q 522 85 401 85 q 618 92 572 85 l 618 500 l 719 500 m 638 1117 l 555 1117 l 453 1268 l 351 1117 l 269 1117 l 404 1314 l 503 1314 l 638 1117 z "},"Ģ":{"ha":800,"x_min":60,"x_max":719,"o":"m 719 500 l 719 9 q 530 -9 616 -9 q 269 43 372 -9 q 113 210 165 95 q 60 513 60 325 q 173 917 60 792 q 506 1041 287 1041 q 703 1014 608 1041 l 703 919 q 511 947 610 947 q 323 906 397 947 q 211 770 249 866 q 172 512 172 675 q 211 259 172 352 q 325 125 249 165 q 522 85 401 85 q 618 92 572 85 l 618 500 l 719 500 m 451 -113 q 523 -189 523 -113 q 513 -256 523 -219 q 485 -324 503 -292 l 417 -324 q 446 -226 440 -272 q 400 -209 416 -224 q 383 -169 383 -194 q 401 -128 383 -143 q 451 -113 419 -113 z "},"Ġ":{"ha":800,"x_min":60,"x_max":719,"o":"m 719 500 l 719 9 q 530 -9 616 -9 q 269 43 372 -9 q 113 210 165 95 q 60 513 60 325 q 173 917 60 792 q 506 1041 287 1041 q 703 1014 608 1041 l 703 919 q 511 947 610 947 q 323 906 397 947 q 211 770 249 866 q 172 512 172 675 q 211 259 172 352 q 325 125 249 165 q 522 85 401 85 q 618 92 572 85 l 618 500 l 719 500 m 453 1151 q 399 1168 419 1151 q 378 1216 378 1185 q 399 1265 378 1247 q 453 1282 419 1282 q 508 1265 488 1282 q 528 1216 528 1247 q 508 1168 528 1185 q 453 1151 488 1151 z "},"Ḡ":{"ha":800,"x_min":60,"x_max":719,"o":"m 719 500 l 719 9 q 530 -9 616 -9 q 269 43 372 -9 q 113 210 165 95 q 60 513 60 325 q 173 917 60 792 q 506 1041 287 1041 q 703 1014 608 1041 l 703 919 q 511 947 610 947 q 323 906 397 947 q 211 770 249 866 q 172 512 172 675 q 211 259 172 352 q 325 125 249 165 q 522 85 401 85 q 618 92 572 85 l 618 500 l 719 500 m 262 1178 l 262 1253 l 645 1253 l 645 1178 l 262 1178 z "},"H":{"ha":874,"x_min":100,"x_max":774,"o":"m 100 0 l 100 1028 l 207 1028 l 207 577 l 667 577 l 667 1028 l 774 1028 l 774 0 l 667 0 l 667 478 l 207 478 l 207 0 l 100 0 z "},"Ħ":{"ha":874,"x_min":-1,"x_max":876,"o":"m 876 840 l 876 765 l 774 765 l 774 0 l 667 0 l 667 478 l 207 478 l 207 0 l 100 0 l 100 765 l -1 765 l -1 840 l 100 840 l 100 1028 l 207 1028 l 207 840 l 667 840 l 667 1028 l 774 1028 l 774 840 l 876 840 m 667 577 l 667 765 l 207 765 l 207 577 l 667 577 z "},"Ḫ":{"ha":874,"x_min":100,"x_max":774,"o":"m 100 0 l 100 1028 l 207 1028 l 207 577 l 667 577 l 667 1028 l 774 1028 l 774 0 l 667 0 l 667 478 l 207 478 l 207 0 l 100 0 m 438 -287 q 300 -240 351 -287 q 247 -106 250 -194 l 318 -106 q 351 -194 322 -166 q 438 -223 381 -223 q 525 -194 496 -223 q 557 -106 554 -166 l 628 -106 q 575 -241 625 -194 q 438 -287 526 -287 z "},"Ĥ":{"ha":874,"x_min":100,"x_max":774,"o":"m 100 0 l 100 1028 l 207 1028 l 207 577 l 667 577 l 667 1028 l 774 1028 l 774 0 l 667 0 l 667 478 l 207 478 l 207 0 l 100 0 m 622 1117 l 539 1117 l 438 1268 l 335 1117 l 253 1117 l 388 1314 l 487 1314 l 622 1117 z "},"Ḥ":{"ha":874,"x_min":100,"x_max":774,"o":"m 100 0 l 100 1028 l 207 1028 l 207 577 l 667 577 l 667 1028 l 774 1028 l 774 0 l 667 0 l 667 478 l 207 478 l 207 0 l 100 0 m 438 -244 q 383 -227 403 -244 q 363 -179 363 -210 q 383 -131 363 -148 q 438 -113 403 -113 q 492 -131 472 -113 q 513 -179 513 -148 q 492 -227 513 -210 q 438 -244 472 -244 z "},"I":{"ha":306,"x_min":100,"x_max":207,"o":"m 100 0 l 100 1028 l 207 1028 l 207 0 l 100 0 z "},"Í":{"ha":306,"x_min":100,"x_max":313,"o":"m 100 0 l 100 1028 l 207 1028 l 207 0 l 100 0 m 108 1117 l 203 1314 l 313 1314 l 199 1117 l 108 1117 z "},"Ĭ":{"ha":306,"x_min":-37,"x_max":344,"o":"m 100 0 l 100 1028 l 207 1028 l 207 0 l 100 0 m 154 1123 q 19 1168 68 1123 q -37 1299 -31 1213 l 34 1299 q 69 1213 41 1239 q 154 1187 97 1187 q 240 1213 211 1187 q 273 1299 268 1240 l 344 1299 q 289 1167 338 1212 q 154 1123 240 1123 z "},"Î":{"ha":306,"x_min":-31,"x_max":338,"o":"m 100 0 l 100 1028 l 207 1028 l 207 0 l 100 0 m 338 1117 l 255 1117 l 153 1268 l 51 1117 l -31 1117 l 104 1314 l 203 1314 l 338 1117 z "},"Ȉ":{"ha":306,"x_min":-66,"x_max":299,"o":"m 100 0 l 100 1028 l 207 1028 l 207 0 l 100 0 m 8 1117 l -66 1314 l 24 1314 l 90 1117 l 8 1117 m 217 1117 l 143 1314 l 233 1314 l 299 1117 l 217 1117 z "},"Ï":{"ha":306,"x_min":-54,"x_max":361,"o":"m 100 0 l 100 1028 l 207 1028 l 207 0 l 100 0 m 15 1151 q -35 1169 -17 1151 q -54 1216 -54 1186 q -35 1264 -54 1247 q 15 1282 -17 1282 q 67 1264 48 1282 q 85 1216 85 1247 q 67 1169 85 1186 q 15 1151 48 1151 m 291 1151 q 240 1169 259 1151 q 222 1216 222 1186 q 240 1264 222 1247 q 291 1282 259 1282 q 342 1264 324 1282 q 361 1216 361 1247 q 342 1169 361 1186 q 291 1151 324 1151 z "},"Ḯ":{"ha":306,"x_min":-54,"x_max":361,"o":"m 100 0 l 100 1028 l 207 1028 l 207 0 l 100 0 m 104 1327 l 199 1488 l 316 1488 l 203 1327 l 104 1327 m 15 1151 q -35 1169 -17 1151 q -54 1216 -54 1186 q -35 1264 -54 1247 q 15 1282 -17 1282 q 67 1264 48 1282 q 85 1216 85 1247 q 67 1169 85 1186 q 15 1151 48 1151 m 291 1151 q 240 1169 259 1151 q 222 1216 222 1186 q 240 1264 222 1247 q 291 1282 259 1282 q 342 1264 324 1282 q 361 1216 361 1247 q 342 1169 361 1186 q 291 1151 324 1151 z "},"İ":{"ha":306,"x_min":78,"x_max":228,"o":"m 100 0 l 100 1028 l 207 1028 l 207 0 l 100 0 m 153 1151 q 99 1168 119 1151 q 78 1216 78 1185 q 99 1265 78 1247 q 153 1282 119 1282 q 208 1265 188 1282 q 228 1216 228 1247 q 208 1168 228 1185 q 153 1151 188 1151 z "},"Ị":{"ha":306,"x_min":78,"x_max":228,"o":"m 100 0 l 100 1028 l 207 1028 l 207 0 l 100 0 m 153 -244 q 99 -227 119 -244 q 78 -179 78 -210 q 99 -131 78 -148 q 153 -113 119 -113 q 208 -131 188 -113 q 228 -179 228 -148 q 208 -227 228 -210 q 153 -244 188 -244 z "},"Ì":{"ha":306,"x_min":-6,"x_max":207,"o":"m 100 0 l 100 1028 l 207 1028 l 207 0 l 100 0 m 108 1117 l -6 1314 l 104 1314 l 199 1117 l 108 1117 z "},"Ỉ":{"ha":306,"x_min":28,"x_max":294,"o":"m 100 0 l 100 1028 l 207 1028 l 207 0 l 100 0 m 121 1117 q 131 1152 122 1138 q 153 1174 141 1166 q 185 1193 165 1183 q 216 1211 206 1203 q 226 1232 226 1219 q 209 1256 226 1248 q 151 1265 192 1265 q 89 1259 122 1265 q 28 1242 57 1253 l 28 1297 q 88 1313 52 1307 q 158 1319 124 1319 q 260 1298 226 1319 q 294 1239 294 1276 q 279 1197 294 1212 q 236 1168 265 1183 q 200 1144 212 1155 q 186 1117 188 1134 l 121 1117 z "},"Ȋ":{"ha":306,"x_min":-37,"x_max":344,"o":"m 100 0 l 100 1028 l 207 1028 l 207 0 l 100 0 m -37 1131 q 18 1263 -31 1218 q 152 1308 66 1308 q 288 1263 238 1308 q 344 1131 338 1217 l 273 1131 q 238 1217 266 1191 q 152 1244 209 1244 q 67 1217 95 1244 q 34 1131 39 1191 l -37 1131 z "},"Ī":{"ha":306,"x_min":-38,"x_max":345,"o":"m 100 0 l 100 1028 l 207 1028 l 207 0 l 100 0 m -38 1178 l -38 1253 l 345 1253 l 345 1178 l -38 1178 z "},"Į":{"ha":306,"x_min":3,"x_max":266,"o":"m 167 -234 q 266 -209 210 -234 l 266 -264 q 158 -289 214 -289 q 43 -256 83 -289 q 3 -162 3 -224 q 27 -76 3 -116 q 105 0 51 -37 l 100 0 l 100 1028 l 207 1028 l 207 0 q 102 -76 132 -39 q 72 -156 72 -113 q 167 -234 72 -234 z "},"Ĩ":{"ha":306,"x_min":-49,"x_max":356,"o":"m 100 0 l 100 1028 l 207 1028 l 207 0 l 100 0 m 250 1158 q 201 1165 224 1158 q 143 1187 178 1172 q 94 1206 113 1200 q 56 1212 76 1212 q -1 1200 24 1212 q -49 1161 -26 1188 l -49 1238 q 57 1284 -10 1284 q 106 1277 83 1284 q 164 1255 129 1269 q 211 1235 192 1242 q 251 1229 231 1229 q 308 1241 283 1229 q 356 1280 333 1253 l 356 1203 q 250 1158 318 1158 z "},"J":{"ha":306,"x_min":-12,"x_max":207,"o":"m -12 -190 q 75 -7 49 -94 q 100 202 100 80 l 100 1028 l 207 1028 l 207 190 q 170 -33 203 65 q 60 -238 138 -131 l -12 -190 z "},"Ĵ":{"ha":306,"x_min":-31,"x_max":338,"o":"m -12 -190 q 75 -7 49 -94 q 100 202 100 80 l 100 1028 l 207 1028 l 207 190 q 170 -33 203 65 q 60 -238 138 -131 l -12 -190 m 338 1117 l 255 1117 l 153 1268 l 51 1117 l -31 1117 l 104 1314 l 203 1314 l 338 1117 z "},"K":{"ha":758,"x_min":100,"x_max":791,"o":"m 672 0 l 324 478 l 207 478 l 207 0 l 100 0 l 100 1028 l 207 1028 l 207 576 l 327 576 l 647 1028 l 763 1028 l 408 529 l 791 0 l 672 0 z "},"Ķ":{"ha":758,"x_min":100,"x_max":791,"o":"m 672 0 l 324 478 l 207 478 l 207 0 l 100 0 l 100 1028 l 207 1028 l 207 576 l 327 576 l 647 1028 l 763 1028 l 408 529 l 791 0 l 672 0 m 401 -113 q 472 -189 472 -113 q 462 -256 472 -219 q 434 -324 452 -292 l 367 -324 q 395 -226 390 -272 q 349 -209 365 -224 q 333 -169 333 -194 q 350 -128 333 -143 q 401 -113 368 -113 z "},"L":{"ha":645,"x_min":100,"x_max":642,"o":"m 100 0 l 100 1028 l 207 1028 l 207 97 l 642 97 l 642 0 l 100 0 z "},"Ǉ":{"ha":951,"x_min":100,"x_max":852,"o":"m 100 0 l 100 1028 l 207 1028 l 207 97 l 642 97 l 642 0 l 100 0 m 633 -190 q 720 -7 694 -94 q 745 202 745 80 l 745 1028 l 852 1028 l 852 190 q 816 -33 849 65 q 706 -238 783 -131 l 633 -190 z "},"Ĺ":{"ha":645,"x_min":100,"x_max":642,"o":"m 100 0 l 100 1028 l 207 1028 l 207 97 l 642 97 l 642 0 l 100 0 m 109 1117 l 204 1314 l 314 1314 l 201 1117 l 109 1117 z "},"Ľ":{"ha":645,"x_min":100,"x_max":642,"o":"m 100 0 l 100 1028 l 207 1028 l 207 97 l 642 97 l 642 0 l 100 0 m 404 792 q 416 941 413 862 q 419 1122 419 1021 l 499 1122 q 467 792 499 924 l 404 792 z "},"Ļ":{"ha":645,"x_min":100,"x_max":642,"o":"m 100 0 l 100 1028 l 207 1028 l 207 97 l 642 97 l 642 0 l 100 0 m 369 -113 q 441 -189 441 -113 q 431 -256 441 -219 q 403 -324 421 -292 l 335 -324 q 364 -226 358 -272 q 318 -209 334 -224 q 301 -169 301 -194 q 319 -128 301 -143 q 369 -113 337 -113 z "},"Ŀ":{"ha":645,"x_min":100,"x_max":642,"o":"m 100 0 l 100 1028 l 207 1028 l 207 97 l 642 97 l 642 0 l 100 0 m 473 489 q 418 507 438 489 q 399 558 399 526 q 418 610 399 591 q 473 629 438 629 q 528 610 508 629 q 548 558 548 591 q 528 507 548 526 q 473 489 508 489 z "},"Ḷ":{"ha":645,"x_min":100,"x_max":642,"o":"m 100 0 l 100 1028 l 207 1028 l 207 97 l 642 97 l 642 0 l 100 0 m 372 -244 q 317 -227 337 -244 q 297 -179 297 -210 q 317 -131 297 -148 q 372 -113 337 -113 q 426 -131 406 -113 q 447 -179 447 -148 q 426 -227 447 -210 q 372 -244 406 -244 z "},"ǈ":{"ha":927,"x_min":100,"x_max":860,"o":"m 100 0 l 100 1028 l 207 1028 l 207 97 l 642 97 l 642 0 l 100 0 m 621 -274 q 708 -92 683 -178 q 733 118 733 -5 l 733 753 l 839 753 l 839 126 q 824 -41 839 33 q 777 -182 809 -115 q 693 -322 746 -249 l 621 -274 m 786 917 q 731 935 751 917 q 711 987 711 954 q 731 1039 711 1019 q 786 1058 751 1058 q 841 1039 822 1058 q 860 987 860 1019 q 841 935 860 954 q 786 917 822 917 z "},"Ḻ":{"ha":645,"x_min":100,"x_max":642,"o":"m 100 0 l 100 1028 l 207 1028 l 207 97 l 642 97 l 642 0 l 100 0 m 180 -214 l 180 -139 l 563 -139 l 563 -214 l 180 -214 z "},"Ł":{"ha":652,"x_min":-9,"x_max":649,"o":"m 214 97 l 649 97 l 649 0 l 107 0 l 107 458 l 33 398 l -9 463 l 107 556 l 107 1028 l 214 1028 l 214 642 l 377 773 l 419 708 l 214 543 l 214 97 z "},"M":{"ha":1093,"x_min":103,"x_max":990,"o":"m 863 1028 l 990 1028 l 990 0 l 890 0 l 890 858 l 594 142 l 499 142 l 203 850 l 203 0 l 103 0 l 103 1028 l 231 1028 l 549 258 l 863 1028 z "},"Ṃ":{"ha":1093,"x_min":103,"x_max":990,"o":"m 863 1028 l 990 1028 l 990 0 l 890 0 l 890 858 l 594 142 l 499 142 l 203 850 l 203 0 l 103 0 l 103 1028 l 231 1028 l 549 258 l 863 1028 m 551 -244 q 497 -227 517 -244 q 476 -179 476 -210 q 497 -131 476 -148 q 551 -113 517 -113 q 606 -131 586 -113 q 626 -179 626 -148 q 606 -227 626 -210 q 551 -244 586 -244 z "},"N":{"ha":891,"x_min":100,"x_max":791,"o":"m 690 1028 l 791 1028 l 791 0 l 681 0 l 201 849 l 201 0 l 100 0 l 100 1028 l 210 1028 l 690 179 l 690 1028 z "},"Ǌ":{"ha":1197,"x_min":100,"x_max":1098,"o":"m 690 1028 l 791 1028 l 791 0 l 681 0 l 201 849 l 201 0 l 100 0 l 100 1028 l 210 1028 l 690 179 l 690 1028 m 878 -190 q 966 -7 940 -94 q 991 202 991 80 l 991 1028 l 1098 1028 l 1098 190 q 1061 -33 1094 65 q 951 -238 1028 -131 l 878 -190 z "},"Ń":{"ha":891,"x_min":100,"x_max":791,"o":"m 690 1028 l 791 1028 l 791 0 l 681 0 l 201 849 l 201 0 l 100 0 l 100 1028 l 210 1028 l 690 179 l 690 1028 m 399 1117 l 494 1314 l 604 1314 l 491 1117 l 399 1117 z "},"Ň":{"ha":891,"x_min":100,"x_max":791,"o":"m 690 1028 l 791 1028 l 791 0 l 681 0 l 201 849 l 201 0 l 100 0 l 100 1028 l 210 1028 l 690 179 l 690 1028 m 547 1314 l 630 1314 l 494 1117 l 396 1117 l 260 1314 l 343 1314 l 445 1163 l 547 1314 z "},"Ņ":{"ha":891,"x_min":100,"x_max":791,"o":"m 690 1028 l 791 1028 l 791 0 l 681 0 l 201 849 l 201 0 l 100 0 l 100 1028 l 210 1028 l 690 179 l 690 1028 m 443 -113 q 515 -189 515 -113 q 505 -256 515 -219 q 476 -324 494 -292 l 409 -324 q 438 -226 432 -272 q 391 -209 408 -224 q 375 -169 375 -194 q 393 -128 375 -143 q 443 -113 410 -113 z "},"Ṅ":{"ha":891,"x_min":100,"x_max":791,"o":"m 690 1028 l 791 1028 l 791 0 l 681 0 l 201 849 l 201 0 l 100 0 l 100 1028 l 210 1028 l 690 179 l 690 1028 m 445 1151 q 390 1168 410 1151 q 370 1216 370 1185 q 390 1265 370 1247 q 445 1282 410 1282 q 500 1265 480 1282 q 520 1216 520 1247 q 500 1168 520 1185 q 445 1151 480 1151 z "},"Ṇ":{"ha":891,"x_min":100,"x_max":791,"o":"m 690 1028 l 791 1028 l 791 0 l 681 0 l 201 849 l 201 0 l 100 0 l 100 1028 l 210 1028 l 690 179 l 690 1028 m 445 -244 q 390 -227 410 -244 q 370 -179 370 -210 q 390 -131 370 -148 q 445 -113 410 -113 q 500 -131 480 -113 q 520 -179 520 -148 q 500 -227 520 -210 q 445 -244 480 -244 z "},"Ŋ":{"ha":891,"x_min":100,"x_max":791,"o":"m 791 1028 l 791 133 q 776 -39 791 37 q 730 -181 761 -114 q 645 -322 699 -249 l 573 -274 q 646 -140 619 -203 q 683 -5 672 -77 l 201 849 l 201 0 l 100 0 l 100 1028 l 210 1028 l 690 178 l 690 1028 l 791 1028 z "},"ǋ":{"ha":1173,"x_min":100,"x_max":1106,"o":"m 690 1028 l 791 1028 l 791 0 l 681 0 l 201 849 l 201 0 l 100 0 l 100 1028 l 210 1028 l 690 179 l 690 1028 m 867 -274 q 954 -92 928 -178 q 979 118 979 -5 l 979 753 l 1085 753 l 1085 126 q 1070 -41 1085 33 q 1023 -182 1055 -115 q 939 -322 992 -249 l 867 -274 m 1032 917 q 977 935 997 917 q 957 987 957 954 q 977 1039 957 1019 q 1032 1058 997 1058 q 1087 1039 1067 1058 q 1106 987 1106 1019 q 1087 935 1106 954 q 1032 917 1067 917 z "},"Ṉ":{"ha":891,"x_min":100,"x_max":791,"o":"m 690 1028 l 791 1028 l 791 0 l 681 0 l 201 849 l 201 0 l 100 0 l 100 1028 l 210 1028 l 690 179 l 690 1028 m 253 -214 l 253 -139 l 637 -139 l 637 -214 l 253 -214 z "},"Ñ":{"ha":891,"x_min":100,"x_max":791,"o":"m 690 1028 l 791 1028 l 791 0 l 681 0 l 201 849 l 201 0 l 100 0 l 100 1028 l 210 1028 l 690 179 l 690 1028 m 542 1158 q 492 1165 515 1158 q 435 1187 469 1172 q 386 1206 404 1200 q 348 1212 367 1212 q 291 1200 315 1212 q 242 1161 266 1188 l 242 1238 q 349 1284 282 1284 q 398 1277 375 1284 q 456 1255 421 1269 q 503 1235 484 1242 q 542 1229 522 1229 q 599 1241 574 1229 q 648 1280 624 1253 l 648 1203 q 542 1158 610 1158 z "},"O":{"ha":851,"x_min":60,"x_max":791,"o":"m 426 -13 q 60 514 60 -13 q 426 1041 60 1041 q 791 514 791 1041 q 426 -13 791 -13 m 426 81 q 563 121 507 81 q 649 256 619 161 q 680 510 680 351 q 649 770 680 674 q 563 907 619 866 q 426 947 508 947 q 288 907 344 947 q 201 772 232 867 q 171 517 171 677 q 201 258 171 354 q 288 121 232 162 q 426 81 344 81 z "},"Ó":{"ha":851,"x_min":60,"x_max":791,"o":"m 426 -13 q 60 514 60 -13 q 426 1041 60 1041 q 791 514 791 1041 q 426 -13 791 -13 m 426 81 q 563 121 507 81 q 649 256 619 161 q 680 510 680 351 q 649 770 680 674 q 563 907 619 866 q 426 947 508 947 q 288 907 344 947 q 201 772 232 867 q 171 517 171 677 q 201 258 171 354 q 288 121 232 162 q 426 81 344 81 m 380 1117 l 475 1314 l 585 1314 l 472 1117 l 380 1117 z "},"Ŏ":{"ha":851,"x_min":60,"x_max":791,"o":"m 426 -13 q 60 514 60 -13 q 426 1041 60 1041 q 791 514 791 1041 q 426 -13 791 -13 m 426 81 q 563 121 507 81 q 649 256 619 161 q 680 510 680 351 q 649 770 680 674 q 563 907 619 866 q 426 947 508 947 q 288 907 344 947 q 201 772 232 867 q 171 517 171 677 q 201 258 171 354 q 288 121 232 162 q 426 81 344 81 m 426 1123 q 291 1168 340 1123 q 235 1299 242 1213 l 306 1299 q 341 1213 313 1239 q 426 1187 369 1187 q 512 1213 483 1187 q 545 1299 540 1240 l 617 1299 q 561 1167 610 1212 q 426 1123 513 1123 z "},"Ô":{"ha":851,"x_min":60,"x_max":791,"o":"m 426 -13 q 60 514 60 -13 q 426 1041 60 1041 q 791 514 791 1041 q 426 -13 791 -13 m 426 81 q 563 121 507 81 q 649 256 619 161 q 680 510 680 351 q 649 770 680 674 q 563 907 619 866 q 426 947 508 947 q 288 907 344 947 q 201 772 232 867 q 171 517 171 677 q 201 258 171 354 q 288 121 232 162 q 426 81 344 81 m 610 1117 l 527 1117 l 426 1268 l 324 1117 l 241 1117 l 376 1314 l 475 1314 l 610 1117 z "},"Ố":{"ha":851,"x_min":60,"x_max":791,"o":"m 426 -13 q 60 514 60 -13 q 426 1041 60 1041 q 791 514 791 1041 q 426 -13 791 -13 m 426 81 q 563 121 507 81 q 649 256 619 161 q 680 510 680 351 q 649 770 680 674 q 563 907 619 866 q 426 947 508 947 q 288 907 344 947 q 201 772 232 867 q 171 517 171 677 q 201 258 171 354 q 288 121 232 162 q 426 81 344 81 m 642 1433 l 722 1433 l 623 1251 l 561 1251 l 642 1433 m 376 1306 l 475 1306 l 610 1117 l 527 1117 l 426 1263 l 324 1117 l 241 1117 l 376 1306 z "},"Ộ":{"ha":851,"x_min":60,"x_max":791,"o":"m 426 -13 q 60 514 60 -13 q 426 1041 60 1041 q 791 514 791 1041 q 426 -13 791 -13 m 426 81 q 563 121 507 81 q 649 256 619 161 q 680 510 680 351 q 649 770 680 674 q 563 907 619 866 q 426 947 508 947 q 288 907 344 947 q 201 772 232 867 q 171 517 171 677 q 201 258 171 354 q 288 121 232 162 q 426 81 344 81 m 426 -244 q 371 -227 391 -244 q 351 -179 351 -210 q 371 -131 351 -148 q 426 -113 391 -113 q 481 -131 460 -113 q 501 -179 501 -148 q 481 -227 501 -210 q 426 -244 460 -244 m 610 1117 l 527 1117 l 426 1268 l 324 1117 l 241 1117 l 376 1314 l 475 1314 l 610 1117 z "},"Ồ":{"ha":851,"x_min":60,"x_max":791,"o":"m 426 -13 q 60 514 60 -13 q 426 1041 60 1041 q 791 514 791 1041 q 426 -13 791 -13 m 426 81 q 563 121 507 81 q 649 256 619 161 q 680 510 680 351 q 649 770 680 674 q 563 907 619 866 q 426 947 508 947 q 288 907 344 947 q 201 772 232 867 q 171 517 171 677 q 201 258 171 354 q 288 121 232 162 q 426 81 344 81 m 640 1251 l 579 1251 l 479 1433 l 559 1433 l 640 1251 m 376 1306 l 475 1306 l 610 1117 l 527 1117 l 426 1263 l 324 1117 l 241 1117 l 376 1306 z "},"Ổ":{"ha":851,"x_min":60,"x_max":791,"o":"m 426 -13 q 60 514 60 -13 q 426 1041 60 1041 q 791 514 791 1041 q 426 -13 791 -13 m 426 81 q 563 121 507 81 q 649 256 619 161 q 680 510 680 351 q 649 770 680 674 q 563 907 619 866 q 426 947 508 947 q 288 907 344 947 q 201 772 232 867 q 171 517 171 677 q 201 258 171 354 q 288 121 232 162 q 426 81 344 81 m 597 1444 q 699 1424 665 1444 q 733 1368 733 1403 q 718 1328 733 1342 q 675 1300 703 1314 q 639 1277 651 1287 q 626 1251 628 1268 l 560 1251 q 578 1295 562 1280 q 625 1324 594 1310 q 655 1341 645 1333 q 665 1362 665 1349 q 649 1386 665 1378 q 590 1394 632 1394 q 528 1388 560 1394 q 467 1372 496 1382 l 467 1422 q 528 1438 492 1432 q 597 1444 564 1444 m 376 1306 l 475 1306 l 610 1117 l 527 1117 l 426 1263 l 324 1117 l 241 1117 l 376 1306 z "},"Ỗ":{"ha":851,"x_min":60,"x_max":791,"o":"m 426 -13 q 60 514 60 -13 q 426 1041 60 1041 q 791 514 791 1041 q 426 -13 791 -13 m 426 81 q 563 121 507 81 q 649 256 619 161 q 680 510 680 351 q 649 770 680 674 q 563 907 619 866 q 426 947 508 947 q 288 907 344 947 q 201 772 232 867 q 171 517 171 677 q 201 258 171 354 q 288 121 232 162 q 426 81 344 81 m 508 1396 q 561 1407 538 1396 q 610 1444 585 1419 l 610 1380 q 565 1347 590 1358 q 508 1337 540 1337 q 465 1344 485 1337 q 415 1364 444 1351 q 374 1381 390 1376 q 342 1387 358 1387 q 290 1375 313 1387 q 241 1338 266 1364 l 241 1403 q 343 1447 281 1447 q 386 1440 365 1447 q 436 1419 406 1433 q 477 1401 462 1407 q 508 1396 493 1396 m 376 1306 l 475 1306 l 610 1117 l 527 1117 l 426 1263 l 324 1117 l 241 1117 l 376 1306 z "},"Ȍ":{"ha":851,"x_min":60,"x_max":791,"o":"m 426 -13 q 60 514 60 -13 q 426 1041 60 1041 q 791 514 791 1041 q 426 -13 791 -13 m 426 81 q 563 121 507 81 q 649 256 619 161 q 680 510 680 351 q 649 770 680 674 q 563 907 619 866 q 426 947 508 947 q 288 907 344 947 q 201 772 232 867 q 171 517 171 677 q 201 258 171 354 q 288 121 232 162 q 426 81 344 81 m 280 1117 l 206 1314 l 296 1314 l 362 1117 l 280 1117 m 489 1117 l 415 1314 l 505 1314 l 571 1117 l 489 1117 z "},"Ö":{"ha":851,"x_min":60,"x_max":791,"o":"m 426 -13 q 60 514 60 -13 q 426 1041 60 1041 q 791 514 791 1041 q 426 -13 791 -13 m 426 81 q 563 121 507 81 q 649 256 619 161 q 680 510 680 351 q 649 770 680 674 q 563 907 619 866 q 426 947 508 947 q 288 907 344 947 q 201 772 232 867 q 171 517 171 677 q 201 258 171 354 q 288 121 232 162 q 426 81 344 81 m 288 1151 q 237 1169 256 1151 q 218 1216 218 1186 q 237 1264 218 1247 q 288 1282 256 1282 q 339 1264 320 1282 q 358 1216 358 1247 q 339 1169 358 1186 q 288 1151 320 1151 m 563 1151 q 513 1169 531 1151 q 494 1216 494 1186 q 513 1264 494 1247 q 563 1282 531 1282 q 615 1264 596 1282 q 633 1216 633 1247 q 615 1169 633 1186 q 563 1151 596 1151 z "},"Ȫ":{"ha":851,"x_min":60,"x_max":791,"o":"m 426 -13 q 60 514 60 -13 q 426 1041 60 1041 q 791 514 791 1041 q 426 -13 791 -13 m 426 81 q 563 121 507 81 q 649 256 619 161 q 680 510 680 351 q 649 770 680 674 q 563 907 619 866 q 426 947 508 947 q 288 907 344 947 q 201 772 232 867 q 171 517 171 677 q 201 258 171 354 q 288 121 232 162 q 426 81 344 81 m 288 1151 q 237 1169 256 1151 q 218 1216 218 1186 q 237 1264 218 1247 q 288 1282 256 1282 q 339 1264 320 1282 q 358 1216 358 1247 q 339 1169 358 1186 q 288 1151 320 1151 m 563 1151 q 513 1169 531 1151 q 494 1216 494 1186 q 513 1264 494 1247 q 563 1282 531 1282 q 615 1264 596 1282 q 633 1216 633 1247 q 615 1169 633 1186 q 563 1151 596 1151 m 234 1389 l 234 1464 l 617 1464 l 617 1389 l 234 1389 z "},"Ȱ":{"ha":851,"x_min":60,"x_max":791,"o":"m 426 -13 q 60 514 60 -13 q 426 1041 60 1041 q 791 514 791 1041 q 426 -13 791 -13 m 426 81 q 563 121 507 81 q 649 256 619 161 q 680 510 680 351 q 649 770 680 674 q 563 907 619 866 q 426 947 508 947 q 288 907 344 947 q 201 772 232 867 q 171 517 171 677 q 201 258 171 354 q 288 121 232 162 q 426 81 344 81 m 426 1151 q 371 1168 391 1151 q 351 1216 351 1185 q 371 1265 351 1247 q 426 1282 391 1282 q 481 1265 460 1282 q 501 1216 501 1247 q 481 1168 501 1185 q 426 1151 460 1151 m 234 1389 l 234 1464 l 617 1464 l 617 1389 l 234 1389 z "},"Ọ":{"ha":851,"x_min":60,"x_max":791,"o":"m 426 -13 q 60 514 60 -13 q 426 1041 60 1041 q 791 514 791 1041 q 426 -13 791 -13 m 426 81 q 563 121 507 81 q 649 256 619 161 q 680 510 680 351 q 649 770 680 674 q 563 907 619 866 q 426 947 508 947 q 288 907 344 947 q 201 772 232 867 q 171 517 171 677 q 201 258 171 354 q 288 121 232 162 q 426 81 344 81 m 426 -244 q 371 -227 391 -244 q 351 -179 351 -210 q 371 -131 351 -148 q 426 -113 391 -113 q 481 -131 460 -113 q 501 -179 501 -148 q 481 -227 501 -210 q 426 -244 460 -244 z "},"Ò":{"ha":851,"x_min":60,"x_max":791,"o":"m 426 -13 q 60 514 60 -13 q 426 1041 60 1041 q 791 514 791 1041 q 426 -13 791 -13 m 426 81 q 563 121 507 81 q 649 256 619 161 q 680 510 680 351 q 649 770 680 674 q 563 907 619 866 q 426 947 508 947 q 288 907 344 947 q 201 772 232 867 q 171 517 171 677 q 201 258 171 354 q 288 121 232 162 q 426 81 344 81 m 380 1117 l 266 1314 l 376 1314 l 472 1117 l 380 1117 z "},"Ỏ":{"ha":851,"x_min":60,"x_max":791,"o":"m 426 -13 q 60 514 60 -13 q 426 1041 60 1041 q 791 514 791 1041 q 426 -13 791 -13 m 426 81 q 563 121 507 81 q 649 256 619 161 q 680 510 680 351 q 649 770 680 674 q 563 907 619 866 q 426 947 508 947 q 288 907 344 947 q 201 772 232 867 q 171 517 171 677 q 201 258 171 354 q 288 121 232 162 q 426 81 344 81 m 393 1117 q 403 1152 394 1138 q 425 1174 413 1166 q 458 1193 438 1183 q 488 1211 478 1203 q 498 1232 498 1219 q 481 1256 498 1248 q 424 1265 465 1265 q 361 1259 394 1265 q 300 1242 329 1253 l 300 1297 q 360 1313 324 1307 q 430 1319 396 1319 q 532 1298 498 1319 q 566 1239 566 1276 q 551 1197 566 1212 q 508 1168 537 1183 q 472 1144 484 1155 q 458 1117 460 1134 l 393 1117 z "},"Ơ":{"ha":851,"x_min":60,"x_max":794,"o":"m 653 963 q 791 514 791 840 q 695 113 791 238 q 426 -13 599 -13 q 60 514 60 -13 q 426 1041 60 1041 q 522 1033 468 1041 q 594 1026 569 1026 q 680 1052 648 1026 q 711 1135 711 1079 q 707 1184 711 1161 q 696 1233 703 1207 l 778 1233 q 791 1184 787 1208 q 794 1130 794 1160 q 756 1015 794 1058 q 653 963 718 972 m 426 81 q 563 121 507 81 q 649 256 619 161 q 680 510 680 351 q 649 770 680 674 q 563 907 619 866 q 426 947 508 947 q 288 907 344 947 q 201 772 232 867 q 171 517 171 677 q 201 258 171 354 q 288 121 232 162 q 426 81 344 81 z "},"Ớ":{"ha":851,"x_min":60,"x_max":794,"o":"m 653 963 q 791 514 791 840 q 695 113 791 238 q 426 -13 599 -13 q 60 514 60 -13 q 426 1041 60 1041 q 522 1033 468 1041 q 594 1026 569 1026 q 680 1052 648 1026 q 711 1135 711 1079 q 707 1184 711 1161 q 696 1233 703 1207 l 778 1233 q 791 1184 787 1208 q 794 1130 794 1160 q 756 1015 794 1058 q 653 963 718 972 m 426 81 q 563 121 507 81 q 649 256 619 161 q 680 510 680 351 q 649 770 680 674 q 563 907 619 866 q 426 947 508 947 q 288 907 344 947 q 201 772 232 867 q 171 517 171 677 q 201 258 171 354 q 288 121 232 162 q 426 81 344 81 m 380 1117 l 475 1314 l 585 1314 l 472 1117 l 380 1117 z "},"Ợ":{"ha":851,"x_min":60,"x_max":794,"o":"m 653 963 q 791 514 791 840 q 695 113 791 238 q 426 -13 599 -13 q 60 514 60 -13 q 426 1041 60 1041 q 522 1033 468 1041 q 594 1026 569 1026 q 680 1052 648 1026 q 711 1135 711 1079 q 707 1184 711 1161 q 696 1233 703 1207 l 778 1233 q 791 1184 787 1208 q 794 1130 794 1160 q 756 1015 794 1058 q 653 963 718 972 m 426 81 q 563 121 507 81 q 649 256 619 161 q 680 510 680 351 q 649 770 680 674 q 563 907 619 866 q 426 947 508 947 q 288 907 344 947 q 201 772 232 867 q 171 517 171 677 q 201 258 171 354 q 288 121 232 162 q 426 81 344 81 m 426 -244 q 371 -227 391 -244 q 351 -179 351 -210 q 371 -131 351 -148 q 426 -113 391 -113 q 481 -131 460 -113 q 501 -179 501 -148 q 481 -227 501 -210 q 426 -244 460 -244 z "},"Ờ":{"ha":851,"x_min":60,"x_max":794,"o":"m 653 963 q 791 514 791 840 q 695 113 791 238 q 426 -13 599 -13 q 60 514 60 -13 q 426 1041 60 1041 q 522 1033 468 1041 q 594 1026 569 1026 q 680 1052 648 1026 q 711 1135 711 1079 q 707 1184 711 1161 q 696 1233 703 1207 l 778 1233 q 791 1184 787 1208 q 794 1130 794 1160 q 756 1015 794 1058 q 653 963 718 972 m 426 81 q 563 121 507 81 q 649 256 619 161 q 680 510 680 351 q 649 770 680 674 q 563 907 619 866 q 426 947 508 947 q 288 907 344 947 q 201 772 232 867 q 171 517 171 677 q 201 258 171 354 q 288 121 232 162 q 426 81 344 81 m 380 1117 l 266 1314 l 376 1314 l 472 1117 l 380 1117 z "},"Ở":{"ha":851,"x_min":60,"x_max":794,"o":"m 653 963 q 791 514 791 840 q 695 113 791 238 q 426 -13 599 -13 q 60 514 60 -13 q 426 1041 60 1041 q 522 1033 468 1041 q 594 1026 569 1026 q 680 1052 648 1026 q 711 1135 711 1079 q 707 1184 711 1161 q 696 1233 703 1207 l 778 1233 q 791 1184 787 1208 q 794 1130 794 1160 q 756 1015 794 1058 q 653 963 718 972 m 426 81 q 563 121 507 81 q 649 256 619 161 q 680 510 680 351 q 649 770 680 674 q 563 907 619 866 q 426 947 508 947 q 288 907 344 947 q 201 772 232 867 q 171 517 171 677 q 201 258 171 354 q 288 121 232 162 q 426 81 344 81 m 393 1117 q 403 1152 394 1138 q 425 1174 413 1166 q 458 1193 438 1183 q 488 1211 478 1203 q 498 1232 498 1219 q 481 1256 498 1248 q 424 1265 465 1265 q 361 1259 394 1265 q 300 1242 329 1253 l 300 1297 q 360 1313 324 1307 q 430 1319 396 1319 q 532 1298 498 1319 q 566 1239 566 1276 q 551 1197 566 1212 q 508 1168 537 1183 q 472 1144 484 1155 q 458 1117 460 1134 l 393 1117 z "},"Ỡ":{"ha":851,"x_min":60,"x_max":794,"o":"m 331 1212 q 276 1200 300 1212 q 230 1161 252 1188 l 230 1238 q 332 1284 267 1284 q 381 1276 358 1284 q 435 1254 404 1269 q 483 1235 465 1241 q 519 1229 501 1229 q 575 1241 551 1229 q 622 1280 599 1253 l 622 1203 q 519 1158 584 1158 q 469 1165 493 1158 q 416 1187 446 1173 q 368 1206 386 1200 q 331 1212 351 1212 m 653 963 q 791 514 791 840 q 695 113 791 238 q 426 -13 599 -13 q 60 514 60 -13 q 426 1041 60 1041 q 522 1033 468 1041 q 594 1026 569 1026 q 680 1052 648 1026 q 711 1135 711 1079 q 707 1184 711 1161 q 696 1233 703 1207 l 778 1233 q 791 1184 787 1208 q 794 1130 794 1160 q 756 1015 794 1058 q 653 963 718 972 m 426 81 q 563 121 507 81 q 649 256 619 161 q 680 510 680 351 q 649 770 680 674 q 563 907 619 866 q 426 947 508 947 q 288 907 344 947 q 201 772 232 867 q 171 517 171 677 q 201 258 171 354 q 288 121 232 162 q 426 81 344 81 z "},"Ő":{"ha":851,"x_min":60,"x_max":791,"o":"m 426 -13 q 60 514 60 -13 q 426 1041 60 1041 q 791 514 791 1041 q 426 -13 791 -13 m 426 81 q 563 121 507 81 q 649 256 619 161 q 680 510 680 351 q 649 770 680 674 q 563 907 619 866 q 426 947 508 947 q 288 907 344 947 q 201 772 232 867 q 171 517 171 677 q 201 258 171 354 q 288 121 232 162 q 426 81 344 81 m 280 1117 l 346 1314 l 436 1314 l 362 1117 l 280 1117 m 489 1117 l 555 1314 l 645 1314 l 571 1117 l 489 1117 z "},"Ȏ":{"ha":851,"x_min":60,"x_max":791,"o":"m 426 -13 q 60 514 60 -13 q 426 1041 60 1041 q 791 514 791 1041 q 426 -13 791 -13 m 426 81 q 563 121 507 81 q 649 256 619 161 q 680 510 680 351 q 649 770 680 674 q 563 907 619 866 q 426 947 508 947 q 288 907 344 947 q 201 772 232 867 q 171 517 171 677 q 201 258 171 354 q 288 121 232 162 q 426 81 344 81 m 235 1131 q 290 1263 242 1218 q 424 1308 338 1308 q 560 1263 510 1308 q 617 1131 610 1217 l 545 1131 q 510 1217 538 1191 q 424 1244 481 1244 q 339 1217 367 1244 q 306 1131 311 1191 l 235 1131 z "},"Ō":{"ha":851,"x_min":60,"x_max":791,"o":"m 426 -13 q 60 514 60 -13 q 426 1041 60 1041 q 791 514 791 1041 q 426 -13 791 -13 m 426 81 q 563 121 507 81 q 649 256 619 161 q 680 510 680 351 q 649 770 680 674 q 563 907 619 866 q 426 947 508 947 q 288 907 344 947 q 201 772 232 867 q 171 517 171 677 q 201 258 171 354 q 288 121 232 162 q 426 81 344 81 m 234 1178 l 234 1253 l 617 1253 l 617 1178 l 234 1178 z "},"Ṓ":{"ha":851,"x_min":60,"x_max":791,"o":"m 426 -13 q 60 514 60 -13 q 426 1041 60 1041 q 791 514 791 1041 q 426 -13 791 -13 m 426 81 q 563 121 507 81 q 649 256 619 161 q 680 510 680 351 q 649 770 680 674 q 563 907 619 866 q 426 947 508 947 q 288 907 344 947 q 201 772 232 867 q 171 517 171 677 q 201 258 171 354 q 288 121 232 162 q 426 81 344 81 m 376 1327 l 472 1488 l 588 1488 l 475 1327 l 376 1327 m 234 1178 l 234 1253 l 617 1253 l 617 1178 l 234 1178 z "},"Ṑ":{"ha":851,"x_min":60,"x_max":791,"o":"m 426 -13 q 60 514 60 -13 q 426 1041 60 1041 q 791 514 791 1041 q 426 -13 791 -13 m 426 81 q 563 121 507 81 q 649 256 619 161 q 680 510 680 351 q 649 770 680 674 q 563 907 619 866 q 426 947 508 947 q 288 907 344 947 q 201 772 232 867 q 171 517 171 677 q 201 258 171 354 q 288 121 232 162 q 426 81 344 81 m 376 1327 l 263 1488 l 380 1488 l 475 1327 l 376 1327 m 234 1178 l 234 1253 l 617 1253 l 617 1178 l 234 1178 z "},"Ǫ":{"ha":851,"x_min":60,"x_max":791,"o":"m 561 9 q 404 -156 404 -56 q 499 -234 404 -234 q 599 -209 542 -234 l 599 -264 q 491 -289 547 -289 q 375 -256 415 -289 q 335 -162 335 -223 q 357 -82 335 -119 q 424 -13 378 -45 q 60 514 60 -12 q 426 1041 60 1041 q 791 514 791 1041 q 731 175 791 295 q 561 9 672 54 m 171 517 q 201 258 171 354 q 288 121 232 162 q 426 81 344 81 q 563 121 507 81 q 649 256 619 161 q 680 510 680 351 q 649 770 680 674 q 563 907 619 866 q 426 947 508 947 q 288 907 344 947 q 201 772 232 867 q 171 517 171 677 z "},"Ø":{"ha":851,"x_min":60,"x_max":791,"o":"m 706 900 q 791 514 791 767 q 426 -13 791 -13 q 192 70 280 -13 l 136 -19 l 77 18 l 145 128 q 60 514 60 258 q 426 1041 60 1041 q 659 957 572 1041 l 715 1047 l 774 1010 l 706 900 m 171 517 q 210 233 171 336 l 603 866 q 527 928 571 909 q 426 947 483 947 q 288 907 344 947 q 201 772 232 867 q 171 517 171 677 m 426 81 q 563 121 507 81 q 649 256 619 161 q 680 510 680 351 q 641 794 680 691 l 248 161 q 324 100 280 119 q 426 81 369 81 z "},"Ǿ":{"ha":851,"x_min":60,"x_max":791,"o":"m 706 900 q 791 514 791 767 q 426 -13 791 -13 q 192 70 280 -13 l 136 -19 l 77 18 l 145 128 q 60 514 60 258 q 426 1041 60 1041 q 659 957 572 1041 l 715 1047 l 774 1010 l 706 900 m 171 517 q 210 233 171 336 l 603 866 q 527 928 571 909 q 426 947 483 947 q 288 907 344 947 q 201 772 232 867 q 171 517 171 677 m 426 81 q 563 121 507 81 q 649 256 619 161 q 680 510 680 351 q 641 794 680 691 l 248 161 q 324 100 280 119 q 426 81 369 81 m 381 1117 l 476 1314 l 586 1314 l 473 1117 l 381 1117 z "},"Õ":{"ha":851,"x_min":60,"x_max":791,"o":"m 426 -13 q 60 514 60 -13 q 426 1041 60 1041 q 791 514 791 1041 q 426 -13 791 -13 m 426 81 q 563 121 507 81 q 649 256 619 161 q 680 510 680 351 q 649 770 680 674 q 563 907 619 866 q 426 947 508 947 q 288 907 344 947 q 201 772 232 867 q 171 517 171 677 q 201 258 171 354 q 288 121 232 162 q 426 81 344 81 m 522 1158 q 473 1165 496 1158 q 415 1187 450 1172 q 366 1206 385 1200 q 328 1212 348 1212 q 271 1200 296 1212 q 223 1161 247 1188 l 223 1238 q 329 1284 263 1284 q 378 1277 356 1284 q 436 1255 401 1269 q 484 1235 465 1242 q 523 1229 503 1229 q 580 1241 555 1229 q 628 1280 605 1253 l 628 1203 q 522 1158 590 1158 z "},"Ṍ":{"ha":851,"x_min":60,"x_max":791,"o":"m 426 -13 q 60 514 60 -13 q 426 1041 60 1041 q 791 514 791 1041 q 426 -13 791 -13 m 426 81 q 563 121 507 81 q 649 256 619 161 q 680 510 680 351 q 649 770 680 674 q 563 907 619 866 q 426 947 508 947 q 288 907 344 947 q 201 772 232 867 q 171 517 171 677 q 201 258 171 354 q 288 121 232 162 q 426 81 344 81 m 376 1327 l 472 1488 l 588 1488 l 475 1327 l 376 1327 m 522 1158 q 473 1165 496 1158 q 415 1187 450 1172 q 366 1206 385 1200 q 328 1212 348 1212 q 271 1200 296 1212 q 223 1161 247 1188 l 223 1238 q 329 1284 263 1284 q 378 1277 356 1284 q 436 1255 401 1269 q 484 1235 465 1242 q 523 1229 503 1229 q 580 1241 555 1229 q 628 1280 605 1253 l 628 1203 q 522 1158 590 1158 z "},"Ṏ":{"ha":851,"x_min":60,"x_max":791,"o":"m 426 -13 q 60 514 60 -13 q 426 1041 60 1041 q 791 514 791 1041 q 426 -13 791 -13 m 426 81 q 563 121 507 81 q 649 256 619 161 q 680 510 680 351 q 649 770 680 674 q 563 907 619 866 q 426 947 508 947 q 288 907 344 947 q 201 772 232 867 q 171 517 171 677 q 201 258 171 354 q 288 121 232 162 q 426 81 344 81 m 522 1158 q 473 1165 496 1158 q 415 1187 450 1172 q 366 1206 385 1200 q 328 1212 348 1212 q 271 1200 296 1212 q 223 1161 247 1188 l 223 1238 q 329 1284 263 1284 q 378 1277 356 1284 q 436 1255 401 1269 q 484 1235 465 1242 q 523 1229 503 1229 q 580 1241 555 1229 q 628 1280 605 1253 l 628 1203 q 522 1158 590 1158 m 288 1362 q 237 1379 256 1362 q 218 1426 218 1397 q 237 1475 218 1457 q 288 1492 256 1492 q 339 1475 320 1492 q 358 1426 358 1457 q 339 1379 358 1397 q 288 1362 320 1362 m 563 1362 q 513 1379 531 1362 q 494 1426 494 1397 q 513 1475 494 1457 q 563 1492 531 1492 q 615 1475 596 1492 q 633 1426 633 1457 q 615 1379 633 1397 q 563 1362 596 1362 z "},"Ȭ":{"ha":851,"x_min":60,"x_max":791,"o":"m 426 -13 q 60 514 60 -13 q 426 1041 60 1041 q 791 514 791 1041 q 426 -13 791 -13 m 426 81 q 563 121 507 81 q 649 256 619 161 q 680 510 680 351 q 649 770 680 674 q 563 907 619 866 q 426 947 508 947 q 288 907 344 947 q 201 772 232 867 q 171 517 171 677 q 201 258 171 354 q 288 121 232 162 q 426 81 344 81 m 522 1158 q 473 1165 496 1158 q 415 1187 450 1172 q 366 1206 385 1200 q 328 1212 348 1212 q 271 1200 296 1212 q 223 1161 247 1188 l 223 1238 q 329 1284 263 1284 q 378 1277 356 1284 q 436 1255 401 1269 q 484 1235 465 1242 q 523 1229 503 1229 q 580 1241 555 1229 q 628 1280 605 1253 l 628 1203 q 522 1158 590 1158 m 234 1389 l 234 1464 l 617 1464 l 617 1389 l 234 1389 z "},"Œ":{"ha":1189,"x_min":60,"x_max":1161,"o":"m 1161 95 l 1161 0 l 685 0 q 619 -3 666 0 q 519 -7 560 -7 q 175 119 291 -7 q 60 514 60 244 q 508 1037 60 1037 q 615 1031 553 1037 q 647 1029 626 1031 q 682 1028 668 1028 l 1154 1028 l 1154 933 l 721 933 l 721 575 l 1089 575 l 1089 480 l 721 480 l 721 95 l 1161 95 m 615 935 q 497 943 558 943 q 314 899 385 943 q 207 761 242 856 q 171 514 171 667 q 209 265 171 360 q 320 128 247 171 q 508 86 394 86 q 615 92 566 86 l 615 935 z "},"P":{"ha":762,"x_min":100,"x_max":706,"o":"m 100 1016 q 327 1039 226 1039 q 612 953 517 1039 q 706 687 706 867 q 314 337 706 337 q 207 342 256 337 l 207 0 l 100 0 l 100 1016 m 317 428 q 531 491 463 428 q 600 684 600 553 q 535 884 600 822 q 334 947 471 947 q 207 938 269 947 l 207 435 q 317 428 253 428 z "},"Þ":{"ha":769,"x_min":100,"x_max":706,"o":"m 100 1028 l 207 1028 l 207 870 q 328 878 265 878 q 612 793 518 878 q 706 527 706 707 q 315 177 706 177 q 207 182 256 177 l 207 0 l 100 0 l 100 1028 m 317 269 q 531 331 463 269 q 600 524 600 393 q 535 725 600 662 q 334 788 471 788 q 207 778 269 788 l 207 275 q 317 269 253 269 z "},"Q":{"ha":851,"x_min":60,"x_max":791,"o":"m 791 514 q 711 142 791 274 q 477 -1 632 11 q 775 -65 608 -48 l 756 -157 q 336 -42 486 -117 q 123 165 187 34 q 60 514 60 297 q 426 1041 60 1041 q 791 514 791 1041 m 171 517 q 201 258 171 354 q 288 121 232 162 q 426 81 344 81 q 563 121 507 81 q 649 256 619 161 q 680 510 680 351 q 649 770 680 674 q 563 907 619 866 q 426 947 508 947 q 288 907 344 947 q 201 772 232 867 q 171 517 171 677 z "},"R":{"ha":807,"x_min":100,"x_max":785,"o":"m 668 0 l 376 427 q 315 425 347 425 q 206 428 258 425 l 206 0 l 100 0 l 100 1016 q 218 1033 162 1027 q 338 1039 274 1039 q 614 963 522 1039 q 705 735 705 887 q 648 547 706 620 q 479 444 590 473 l 785 0 l 668 0 m 312 514 q 532 567 463 514 q 602 734 602 620 q 541 897 602 844 q 344 949 479 949 q 206 938 270 949 l 206 518 q 312 514 267 514 z "},"Ŕ":{"ha":807,"x_min":100,"x_max":785,"o":"m 668 0 l 376 427 q 315 425 347 425 q 206 428 258 425 l 206 0 l 100 0 l 100 1016 q 218 1033 162 1027 q 338 1039 274 1039 q 614 963 522 1039 q 705 735 705 887 q 648 547 706 620 q 479 444 590 473 l 785 0 l 668 0 m 312 514 q 532 567 463 514 q 602 734 602 620 q 541 897 602 844 q 344 949 479 949 q 206 938 270 949 l 206 518 q 312 514 267 514 m 337 1117 l 432 1314 l 542 1314 l 428 1117 l 337 1117 z "},"Ř":{"ha":807,"x_min":100,"x_max":785,"o":"m 668 0 l 376 427 q 315 425 347 425 q 206 428 258 425 l 206 0 l 100 0 l 100 1016 q 218 1033 162 1027 q 338 1039 274 1039 q 614 963 522 1039 q 705 735 705 887 q 648 547 706 620 q 479 444 590 473 l 785 0 l 668 0 m 312 514 q 532 567 463 514 q 602 734 602 620 q 541 897 602 844 q 344 949 479 949 q 206 938 270 949 l 206 518 q 312 514 267 514 m 484 1314 l 567 1314 l 432 1117 l 333 1117 l 198 1314 l 281 1314 l 383 1163 l 484 1314 z "},"Ŗ":{"ha":807,"x_min":100,"x_max":785,"o":"m 668 0 l 376 427 q 315 425 347 425 q 206 428 258 425 l 206 0 l 100 0 l 100 1016 q 218 1033 162 1027 q 338 1039 274 1039 q 614 963 522 1039 q 705 735 705 887 q 648 547 706 620 q 479 444 590 473 l 785 0 l 668 0 m 312 514 q 532 567 463 514 q 602 734 602 620 q 541 897 602 844 q 344 949 479 949 q 206 938 270 949 l 206 518 q 312 514 267 514 m 428 -113 q 499 -189 499 -113 q 489 -256 499 -219 q 461 -324 479 -292 l 394 -324 q 422 -226 417 -272 q 376 -209 392 -224 q 360 -169 360 -194 q 377 -128 360 -143 q 428 -113 395 -113 z "},"Ȑ":{"ha":807,"x_min":100,"x_max":785,"o":"m 668 0 l 376 427 q 315 425 347 425 q 206 428 258 425 l 206 0 l 100 0 l 100 1016 q 218 1033 162 1027 q 338 1039 274 1039 q 614 963 522 1039 q 705 735 705 887 q 648 547 706 620 q 479 444 590 473 l 785 0 l 668 0 m 312 514 q 532 567 463 514 q 602 734 602 620 q 541 897 602 844 q 344 949 479 949 q 206 938 270 949 l 206 518 q 312 514 267 514 m 237 1117 l 163 1314 l 253 1314 l 319 1117 l 237 1117 m 446 1117 l 372 1314 l 462 1314 l 528 1117 l 446 1117 z "},"Ṛ":{"ha":807,"x_min":100,"x_max":785,"o":"m 668 0 l 376 427 q 315 425 347 425 q 206 428 258 425 l 206 0 l 100 0 l 100 1016 q 218 1033 162 1027 q 338 1039 274 1039 q 614 963 522 1039 q 705 735 705 887 q 648 547 706 620 q 479 444 590 473 l 785 0 l 668 0 m 312 514 q 532 567 463 514 q 602 734 602 620 q 541 897 602 844 q 344 949 479 949 q 206 938 270 949 l 206 518 q 312 514 267 514 m 430 -244 q 375 -227 395 -244 q 355 -179 355 -210 q 375 -131 355 -148 q 430 -113 395 -113 q 485 -131 465 -113 q 505 -179 505 -148 q 485 -227 505 -210 q 430 -244 465 -244 z "},"Ȓ":{"ha":807,"x_min":100,"x_max":785,"o":"m 668 0 l 376 427 q 315 425 347 425 q 206 428 258 425 l 206 0 l 100 0 l 100 1016 q 218 1033 162 1027 q 338 1039 274 1039 q 614 963 522 1039 q 705 735 705 887 q 648 547 706 620 q 479 444 590 473 l 785 0 l 668 0 m 312 514 q 532 567 463 514 q 602 734 602 620 q 541 897 602 844 q 344 949 479 949 q 206 938 270 949 l 206 518 q 312 514 267 514 m 192 1131 q 247 1263 199 1218 q 381 1308 295 1308 q 517 1263 467 1308 q 574 1131 567 1217 l 502 1131 q 467 1217 495 1191 q 381 1244 438 1244 q 296 1217 324 1244 q 263 1131 268 1191 l 192 1131 z "},"Ṟ":{"ha":807,"x_min":100,"x_max":785,"o":"m 668 0 l 376 427 q 315 425 347 425 q 206 428 258 425 l 206 0 l 100 0 l 100 1016 q 218 1033 162 1027 q 338 1039 274 1039 q 614 963 522 1039 q 705 735 705 887 q 648 547 706 620 q 479 444 590 473 l 785 0 l 668 0 m 312 514 q 532 567 463 514 q 602 734 602 620 q 541 897 602 844 q 344 949 479 949 q 206 938 270 949 l 206 518 q 312 514 267 514 m 238 -214 l 238 -139 l 622 -139 l 622 -214 l 238 -214 z "},"S":{"ha":635,"x_min":38,"x_max":597,"o":"m 268 -13 q 160 -3 217 -13 q 54 24 103 6 l 54 119 q 269 81 163 81 q 433 128 378 81 q 488 267 488 175 q 470 355 488 319 q 415 416 453 390 q 310 465 376 442 l 262 481 q 95 587 152 519 q 38 760 38 654 q 76 911 38 848 q 188 1007 113 974 q 369 1041 262 1041 q 467 1034 417 1041 q 554 1015 517 1027 l 554 920 q 374 947 471 947 q 147 768 147 947 q 164 684 147 718 q 217 625 181 650 q 315 578 253 600 l 364 561 q 538 453 480 522 q 597 276 597 385 q 558 120 597 185 q 446 21 519 55 q 268 -13 372 -13 z "},"Ś":{"ha":635,"x_min":38,"x_max":597,"o":"m 268 -13 q 160 -3 217 -13 q 54 24 103 6 l 54 119 q 269 81 163 81 q 433 128 378 81 q 488 267 488 175 q 470 355 488 319 q 415 416 453 390 q 310 465 376 442 l 262 481 q 95 587 152 519 q 38 760 38 654 q 76 911 38 848 q 188 1007 113 974 q 369 1041 262 1041 q 467 1034 417 1041 q 554 1015 517 1027 l 554 920 q 374 947 471 947 q 147 768 147 947 q 164 684 147 718 q 217 625 181 650 q 315 578 253 600 l 364 561 q 538 453 480 522 q 597 276 597 385 q 558 120 597 185 q 446 21 519 55 q 268 -13 372 -13 m 277 1117 l 372 1314 l 482 1314 l 369 1117 l 277 1117 z "},"Ṥ":{"ha":635,"x_min":38,"x_max":597,"o":"m 268 -13 q 160 -3 217 -13 q 54 24 103 6 l 54 119 q 269 81 163 81 q 433 128 378 81 q 488 267 488 175 q 470 355 488 319 q 415 416 453 390 q 310 465 376 442 l 262 481 q 95 587 152 519 q 38 760 38 654 q 76 911 38 848 q 188 1007 113 974 q 369 1041 262 1041 q 467 1034 417 1041 q 554 1015 517 1027 l 554 920 q 374 947 471 947 q 147 768 147 947 q 164 684 147 718 q 217 625 181 650 q 315 578 253 600 l 364 561 q 538 453 480 522 q 597 276 597 385 q 558 120 597 185 q 446 21 519 55 q 268 -13 372 -13 m 247 1286 q 199 1301 217 1286 q 181 1344 181 1317 q 199 1387 181 1372 q 247 1403 217 1403 q 295 1387 277 1403 q 313 1344 313 1372 q 295 1301 313 1317 q 247 1286 277 1286 m 277 1117 l 372 1314 l 482 1314 l 369 1117 l 277 1117 z "},"Š":{"ha":635,"x_min":38,"x_max":597,"o":"m 268 -13 q 160 -3 217 -13 q 54 24 103 6 l 54 119 q 269 81 163 81 q 433 128 378 81 q 488 267 488 175 q 470 355 488 319 q 415 416 453 390 q 310 465 376 442 l 262 481 q 95 587 152 519 q 38 760 38 654 q 76 911 38 848 q 188 1007 113 974 q 369 1041 262 1041 q 467 1034 417 1041 q 554 1015 517 1027 l 554 920 q 374 947 471 947 q 147 768 147 947 q 164 684 147 718 q 217 625 181 650 q 315 578 253 600 l 364 561 q 538 453 480 522 q 597 276 597 385 q 558 120 597 185 q 446 21 519 55 q 268 -13 372 -13 m 424 1314 l 508 1314 l 372 1117 l 274 1117 l 138 1314 l 221 1314 l 323 1163 l 424 1314 z "},"Ṧ":{"ha":635,"x_min":38,"x_max":597,"o":"m 268 -13 q 160 -3 217 -13 q 54 24 103 6 l 54 119 q 269 81 163 81 q 433 128 378 81 q 488 267 488 175 q 470 355 488 319 q 415 416 453 390 q 310 465 376 442 l 262 481 q 95 587 152 519 q 38 760 38 654 q 76 911 38 848 q 188 1007 113 974 q 369 1041 262 1041 q 467 1034 417 1041 q 554 1015 517 1027 l 554 920 q 374 947 471 947 q 147 768 147 947 q 164 684 147 718 q 217 625 181 650 q 315 578 253 600 l 364 561 q 538 453 480 522 q 597 276 597 385 q 558 120 597 185 q 446 21 519 55 q 268 -13 372 -13 m 323 1321 q 275 1336 293 1321 q 257 1379 257 1351 q 275 1423 257 1407 q 323 1438 293 1438 q 371 1423 353 1438 q 389 1379 389 1407 q 371 1336 389 1351 q 323 1321 353 1321 m 424 1314 l 508 1314 l 372 1117 l 274 1117 l 138 1314 l 221 1314 l 323 1163 l 424 1314 z "},"Ş":{"ha":635,"x_min":38,"x_max":597,"o":"m 597 276 q 533 84 597 158 q 349 -7 469 11 l 349 -72 q 433 -105 403 -77 q 464 -179 464 -132 q 426 -260 464 -231 q 319 -289 388 -289 q 197 -265 253 -289 l 197 -208 q 315 -235 258 -235 q 397 -176 397 -235 q 375 -131 397 -146 q 314 -117 353 -117 l 287 -117 l 287 -13 l 268 -13 q 160 -3 217 -13 q 54 24 103 6 l 54 119 q 269 81 163 81 q 433 128 378 81 q 488 267 488 175 q 470 355 488 319 q 415 416 453 390 q 310 465 376 442 l 262 481 q 95 587 152 519 q 38 760 38 654 q 76 911 38 848 q 188 1007 113 974 q 369 1041 262 1041 q 467 1034 417 1041 q 554 1015 517 1027 l 554 920 q 374 947 471 947 q 147 768 147 947 q 164 684 147 718 q 217 625 181 650 q 315 578 253 600 l 364 561 q 538 453 480 522 q 597 276 597 385 z "},"Ŝ":{"ha":635,"x_min":38,"x_max":597,"o":"m 268 -13 q 160 -3 217 -13 q 54 24 103 6 l 54 119 q 269 81 163 81 q 433 128 378 81 q 488 267 488 175 q 470 355 488 319 q 415 416 453 390 q 310 465 376 442 l 262 481 q 95 587 152 519 q 38 760 38 654 q 76 911 38 848 q 188 1007 113 974 q 369 1041 262 1041 q 467 1034 417 1041 q 554 1015 517 1027 l 554 920 q 374 947 471 947 q 147 768 147 947 q 164 684 147 718 q 217 625 181 650 q 315 578 253 600 l 364 561 q 538 453 480 522 q 597 276 597 385 q 558 120 597 185 q 446 21 519 55 q 268 -13 372 -13 m 508 1117 l 424 1117 l 323 1268 l 221 1117 l 138 1117 l 274 1314 l 372 1314 l 508 1117 z "},"Ș":{"ha":635,"x_min":38,"x_max":597,"o":"m 268 -13 q 160 -3 217 -13 q 54 24 103 6 l 54 119 q 269 81 163 81 q 433 128 378 81 q 488 267 488 175 q 470 355 488 319 q 415 416 453 390 q 310 465 376 442 l 262 481 q 95 587 152 519 q 38 760 38 654 q 76 911 38 848 q 188 1007 113 974 q 369 1041 262 1041 q 467 1034 417 1041 q 554 1015 517 1027 l 554 920 q 374 947 471 947 q 147 768 147 947 q 164 684 147 718 q 217 625 181 650 q 315 578 253 600 l 364 561 q 538 453 480 522 q 597 276 597 385 q 558 120 597 185 q 446 21 519 55 q 268 -13 372 -13 m 321 -113 q 392 -189 392 -113 q 382 -256 392 -219 q 354 -324 372 -292 l 287 -324 q 315 -226 310 -272 q 269 -209 285 -224 q 253 -169 253 -194 q 270 -128 253 -143 q 321 -113 288 -113 z "},"Ṡ":{"ha":635,"x_min":38,"x_max":597,"o":"m 268 -13 q 160 -3 217 -13 q 54 24 103 6 l 54 119 q 269 81 163 81 q 433 128 378 81 q 488 267 488 175 q 470 355 488 319 q 415 416 453 390 q 310 465 376 442 l 262 481 q 95 587 152 519 q 38 760 38 654 q 76 911 38 848 q 188 1007 113 974 q 369 1041 262 1041 q 467 1034 417 1041 q 554 1015 517 1027 l 554 920 q 374 947 471 947 q 147 768 147 947 q 164 684 147 718 q 217 625 181 650 q 315 578 253 600 l 364 561 q 538 453 480 522 q 597 276 597 385 q 558 120 597 185 q 446 21 519 55 q 268 -13 372 -13 m 323 1151 q 268 1168 288 1151 q 248 1216 248 1185 q 268 1265 248 1247 q 323 1282 288 1282 q 378 1265 358 1282 q 398 1216 398 1247 q 378 1168 398 1185 q 323 1151 358 1151 z "},"Ṣ":{"ha":635,"x_min":38,"x_max":597,"o":"m 268 -13 q 160 -3 217 -13 q 54 24 103 6 l 54 119 q 269 81 163 81 q 433 128 378 81 q 488 267 488 175 q 470 355 488 319 q 415 416 453 390 q 310 465 376 442 l 262 481 q 95 587 152 519 q 38 760 38 654 q 76 911 38 848 q 188 1007 113 974 q 369 1041 262 1041 q 467 1034 417 1041 q 554 1015 517 1027 l 554 920 q 374 947 471 947 q 147 768 147 947 q 164 684 147 718 q 217 625 181 650 q 315 578 253 600 l 364 561 q 538 453 480 522 q 597 276 597 385 q 558 120 597 185 q 446 21 519 55 q 268 -13 372 -13 m 323 -244 q 268 -227 288 -244 q 248 -179 248 -210 q 268 -131 248 -148 q 323 -113 288 -113 q 378 -131 358 -113 q 398 -179 398 -148 q 378 -227 398 -210 q 323 -244 358 -244 z "},"Ṩ":{"ha":635,"x_min":38,"x_max":597,"o":"m 268 -13 q 160 -3 217 -13 q 54 24 103 6 l 54 119 q 269 81 163 81 q 433 128 378 81 q 488 267 488 175 q 470 355 488 319 q 415 416 453 390 q 310 465 376 442 l 262 481 q 95 587 152 519 q 38 760 38 654 q 76 911 38 848 q 188 1007 113 974 q 369 1041 262 1041 q 467 1034 417 1041 q 554 1015 517 1027 l 554 920 q 374 947 471 947 q 147 768 147 947 q 164 684 147 718 q 217 625 181 650 q 315 578 253 600 l 364 561 q 538 453 480 522 q 597 276 597 385 q 558 120 597 185 q 446 21 519 55 q 268 -13 372 -13 m 323 -244 q 268 -227 288 -244 q 248 -179 248 -210 q 268 -131 248 -148 q 323 -113 288 -113 q 378 -131 358 -113 q 398 -179 398 -148 q 378 -227 398 -210 q 323 -244 358 -244 m 323 1151 q 268 1168 288 1151 q 248 1216 248 1185 q 268 1265 248 1247 q 323 1282 288 1282 q 378 1265 358 1282 q 398 1216 398 1247 q 378 1168 398 1185 q 323 1151 358 1151 z "},"ẞ":{"ha":1019,"x_min":100,"x_max":981,"o":"m 751 561 q 923 453 865 522 q 981 276 981 385 q 942 120 981 185 q 831 21 904 55 q 653 -13 758 -13 q 550 -3 606 -13 q 444 24 494 6 l 444 118 q 655 81 553 81 q 818 128 763 81 q 872 267 872 175 q 855 355 872 319 q 800 416 838 390 q 698 465 763 442 l 650 481 q 485 586 542 519 q 429 760 429 654 q 488 942 429 871 q 426 948 460 948 q 259 886 311 948 q 207 694 207 824 l 207 0 l 100 0 l 100 681 q 179 952 100 863 q 426 1041 258 1041 q 588 1012 521 1041 q 759 1041 661 1041 q 853 1034 804 1041 q 939 1016 902 1028 l 939 922 q 764 947 858 947 q 593 901 649 947 q 538 768 538 855 q 554 684 538 718 q 606 624 570 649 q 703 578 642 599 l 751 561 z "},"Ə":{"ha":847,"x_min":53,"x_max":788,"o":"m 345 1041 q 590 988 492 1041 q 738 817 688 934 q 788 510 788 700 q 690 113 788 239 q 419 -13 593 -13 q 148 112 243 -13 q 53 510 53 237 l 53 556 l 678 556 q 635 791 674 706 q 525 912 597 876 q 335 948 452 948 q 105 919 206 948 l 105 1013 q 345 1041 219 1041 m 419 79 q 556 115 501 79 q 643 237 612 151 q 678 468 675 322 l 165 468 q 198 237 168 322 q 282 115 227 151 q 419 79 336 79 z "},"T":{"ha":718,"x_min":5,"x_max":713,"o":"m 306 0 l 306 931 l 5 931 l 5 1028 l 713 1028 l 713 931 l 413 931 l 413 0 l 306 0 z "},"Ŧ":{"ha":718,"x_min":5,"x_max":713,"o":"m 713 931 l 413 931 l 413 576 l 610 576 l 610 499 l 413 499 l 413 0 l 306 0 l 306 499 l 108 499 l 108 576 l 306 576 l 306 931 l 5 931 l 5 1028 l 713 1028 l 713 931 z "},"Ť":{"ha":718,"x_min":5,"x_max":713,"o":"m 306 0 l 306 931 l 5 931 l 5 1028 l 713 1028 l 713 931 l 413 931 l 413 0 l 306 0 m 460 1314 l 544 1314 l 408 1117 l 310 1117 l 174 1314 l 257 1314 l 359 1163 l 460 1314 z "},"Ţ":{"ha":718,"x_min":5,"x_max":713,"o":"m 385 0 l 385 -72 q 469 -105 439 -77 q 500 -179 500 -132 q 462 -260 500 -231 q 356 -289 424 -289 q 233 -265 290 -289 l 233 -208 q 351 -235 294 -235 q 433 -176 433 -235 q 411 -131 433 -146 q 350 -117 390 -117 l 323 -117 l 323 0 l 306 0 l 306 931 l 5 931 l 5 1028 l 713 1028 l 713 931 l 413 931 l 413 0 l 385 0 z "},"Ț":{"ha":718,"x_min":5,"x_max":713,"o":"m 306 0 l 306 931 l 5 931 l 5 1028 l 713 1028 l 713 931 l 413 931 l 413 0 l 306 0 m 357 -113 q 428 -189 428 -113 q 418 -256 428 -219 q 390 -324 408 -292 l 323 -324 q 351 -226 346 -272 q 305 -209 322 -224 q 289 -169 289 -194 q 307 -128 289 -143 q 357 -113 324 -113 z "},"Ṭ":{"ha":718,"x_min":5,"x_max":713,"o":"m 306 0 l 306 931 l 5 931 l 5 1028 l 713 1028 l 713 931 l 413 931 l 413 0 l 306 0 m 359 -244 q 304 -227 324 -244 q 284 -179 284 -210 q 304 -131 284 -148 q 359 -113 324 -113 q 414 -131 394 -113 q 434 -179 434 -148 q 414 -227 434 -210 q 359 -244 394 -244 z "},"Ṯ":{"ha":718,"x_min":5,"x_max":713,"o":"m 306 0 l 306 931 l 5 931 l 5 1028 l 713 1028 l 713 931 l 413 931 l 413 0 l 306 0 m 167 -214 l 167 -139 l 551 -139 l 551 -214 l 167 -214 z "},"U":{"ha":858,"x_min":94,"x_max":763,"o":"m 431 -13 q 240 27 314 -13 q 130 150 166 67 q 94 363 94 233 l 94 1028 l 201 1028 l 201 349 q 256 146 201 210 q 431 81 310 81 q 605 146 550 81 q 659 349 659 210 l 659 1028 l 763 1028 l 763 363 q 728 150 763 233 q 620 27 693 67 q 431 -13 547 -13 z "},"Ú":{"ha":858,"x_min":94,"x_max":763,"o":"m 431 -13 q 240 27 314 -13 q 130 150 166 67 q 94 363 94 233 l 94 1028 l 201 1028 l 201 349 q 256 146 201 210 q 431 81 310 81 q 605 146 550 81 q 659 349 659 210 l 659 1028 l 763 1028 l 763 363 q 728 150 763 233 q 620 27 693 67 q 431 -13 547 -13 m 385 1117 l 480 1314 l 590 1314 l 476 1117 l 385 1117 z "},"Ŭ":{"ha":858,"x_min":94,"x_max":763,"o":"m 431 -13 q 240 27 314 -13 q 130 150 166 67 q 94 363 94 233 l 94 1028 l 201 1028 l 201 349 q 256 146 201 210 q 431 81 310 81 q 605 146 550 81 q 659 349 659 210 l 659 1028 l 763 1028 l 763 363 q 728 150 763 233 q 620 27 693 67 q 431 -13 547 -13 m 431 1123 q 296 1168 345 1123 q 240 1299 247 1213 l 311 1299 q 346 1213 318 1239 q 431 1187 374 1187 q 517 1213 488 1187 q 550 1299 545 1240 l 622 1299 q 566 1167 615 1212 q 431 1123 517 1123 z "},"Û":{"ha":858,"x_min":94,"x_max":763,"o":"m 431 -13 q 240 27 314 -13 q 130 150 166 67 q 94 363 94 233 l 94 1028 l 201 1028 l 201 349 q 256 146 201 210 q 431 81 310 81 q 605 146 550 81 q 659 349 659 210 l 659 1028 l 763 1028 l 763 363 q 728 150 763 233 q 620 27 693 67 q 431 -13 547 -13 m 615 1117 l 532 1117 l 431 1268 l 328 1117 l 246 1117 l 381 1314 l 480 1314 l 615 1117 z "},"Ȕ":{"ha":858,"x_min":94,"x_max":763,"o":"m 431 -13 q 240 27 314 -13 q 130 150 166 67 q 94 363 94 233 l 94 1028 l 201 1028 l 201 349 q 256 146 201 210 q 431 81 310 81 q 605 146 550 81 q 659 349 659 210 l 659 1028 l 763 1028 l 763 363 q 728 150 763 233 q 620 27 693 67 q 431 -13 547 -13 m 285 1117 l 211 1314 l 301 1314 l 367 1117 l 285 1117 m 494 1117 l 420 1314 l 510 1314 l 576 1117 l 494 1117 z "},"Ü":{"ha":858,"x_min":94,"x_max":763,"o":"m 431 -13 q 240 27 314 -13 q 130 150 166 67 q 94 363 94 233 l 94 1028 l 201 1028 l 201 349 q 256 146 201 210 q 431 81 310 81 q 605 146 550 81 q 659 349 659 210 l 659 1028 l 763 1028 l 763 363 q 728 150 763 233 q 620 27 693 67 q 431 -13 547 -13 m 292 1151 q 242 1169 260 1151 q 223 1216 223 1186 q 242 1264 223 1247 q 292 1282 260 1282 q 344 1264 325 1282 q 363 1216 363 1247 q 344 1169 363 1186 q 292 1151 325 1151 m 568 1151 q 517 1169 536 1151 q 499 1216 499 1186 q 517 1264 499 1247 q 568 1282 536 1282 q 619 1264 601 1282 q 638 1216 638 1247 q 619 1169 638 1186 q 568 1151 601 1151 z "},"Ụ":{"ha":858,"x_min":94,"x_max":763,"o":"m 431 -13 q 240 27 314 -13 q 130 150 166 67 q 94 363 94 233 l 94 1028 l 201 1028 l 201 349 q 256 146 201 210 q 431 81 310 81 q 605 146 550 81 q 659 349 659 210 l 659 1028 l 763 1028 l 763 363 q 728 150 763 233 q 620 27 693 67 q 431 -13 547 -13 m 431 -244 q 376 -227 396 -244 q 356 -179 356 -210 q 376 -131 356 -148 q 431 -113 396 -113 q 485 -131 465 -113 q 506 -179 506 -148 q 485 -227 506 -210 q 431 -244 465 -244 z "},"Ù":{"ha":858,"x_min":94,"x_max":763,"o":"m 431 -13 q 240 27 314 -13 q 130 150 166 67 q 94 363 94 233 l 94 1028 l 201 1028 l 201 349 q 256 146 201 210 q 431 81 310 81 q 605 146 550 81 q 659 349 659 210 l 659 1028 l 763 1028 l 763 363 q 728 150 763 233 q 620 27 693 67 q 431 -13 547 -13 m 385 1117 l 271 1314 l 381 1314 l 476 1117 l 385 1117 z "},"Ủ":{"ha":858,"x_min":94,"x_max":763,"o":"m 431 -13 q 240 27 314 -13 q 130 150 166 67 q 94 363 94 233 l 94 1028 l 201 1028 l 201 349 q 256 146 201 210 q 431 81 310 81 q 605 146 550 81 q 659 349 659 210 l 659 1028 l 763 1028 l 763 363 q 728 150 763 233 q 620 27 693 67 q 431 -13 547 -13 m 398 1117 q 408 1152 399 1138 q 430 1174 418 1166 q 463 1193 442 1183 q 493 1211 483 1203 q 503 1232 503 1219 q 486 1256 503 1248 q 428 1265 469 1265 q 366 1259 399 1265 q 305 1242 334 1253 l 305 1297 q 365 1313 329 1307 q 435 1319 401 1319 q 537 1298 503 1319 q 571 1239 571 1276 q 556 1197 571 1212 q 513 1168 542 1183 q 477 1144 489 1155 q 463 1117 465 1134 l 398 1117 z "},"Ư":{"ha":860,"x_min":94,"x_max":901,"o":"m 431 -13 q 240 27 314 -13 q 130 150 166 67 q 94 363 94 233 l 94 1028 l 201 1028 l 201 349 q 256 146 201 210 q 431 81 310 81 q 605 146 550 81 q 659 349 659 210 l 659 1028 l 699 1028 q 786 1053 754 1028 q 817 1135 817 1079 q 814 1184 817 1161 q 802 1233 810 1207 l 885 1233 q 897 1184 893 1208 q 901 1130 901 1160 q 863 1018 901 1059 q 763 969 826 977 l 763 363 q 728 150 763 233 q 620 27 693 67 q 431 -13 547 -13 z "},"Ứ":{"ha":860,"x_min":94,"x_max":901,"o":"m 431 -13 q 240 27 314 -13 q 130 150 166 67 q 94 363 94 233 l 94 1028 l 201 1028 l 201 349 q 256 146 201 210 q 431 81 310 81 q 605 146 550 81 q 659 349 659 210 l 659 1028 l 699 1028 q 786 1053 754 1028 q 817 1135 817 1079 q 814 1184 817 1161 q 802 1233 810 1207 l 885 1233 q 897 1184 893 1208 q 901 1130 901 1160 q 863 1018 901 1059 q 763 969 826 977 l 763 363 q 728 150 763 233 q 620 27 693 67 q 431 -13 547 -13 m 383 1117 l 478 1314 l 588 1314 l 475 1117 l 383 1117 z "},"Ự":{"ha":860,"x_min":94,"x_max":901,"o":"m 431 -13 q 240 27 314 -13 q 130 150 166 67 q 94 363 94 233 l 94 1028 l 201 1028 l 201 349 q 256 146 201 210 q 431 81 310 81 q 605 146 550 81 q 659 349 659 210 l 659 1028 l 699 1028 q 786 1053 754 1028 q 817 1135 817 1079 q 814 1184 817 1161 q 802 1233 810 1207 l 885 1233 q 897 1184 893 1208 q 901 1130 901 1160 q 863 1018 901 1059 q 763 969 826 977 l 763 363 q 728 150 763 233 q 620 27 693 67 q 431 -13 547 -13 m 429 -244 q 374 -227 394 -244 q 354 -179 354 -210 q 374 -131 354 -148 q 429 -113 394 -113 q 484 -131 464 -113 q 504 -179 504 -148 q 484 -227 504 -210 q 429 -244 464 -244 z "},"Ừ":{"ha":860,"x_min":94,"x_max":901,"o":"m 431 -13 q 240 27 314 -13 q 130 150 166 67 q 94 363 94 233 l 94 1028 l 201 1028 l 201 349 q 256 146 201 210 q 431 81 310 81 q 605 146 550 81 q 659 349 659 210 l 659 1028 l 699 1028 q 786 1053 754 1028 q 817 1135 817 1079 q 814 1184 817 1161 q 802 1233 810 1207 l 885 1233 q 897 1184 893 1208 q 901 1130 901 1160 q 863 1018 901 1059 q 763 969 826 977 l 763 363 q 728 150 763 233 q 620 27 693 67 q 431 -13 547 -13 m 383 1117 l 269 1314 l 380 1314 l 475 1117 l 383 1117 z "},"Ử":{"ha":860,"x_min":94,"x_max":901,"o":"m 431 -13 q 240 27 314 -13 q 130 150 166 67 q 94 363 94 233 l 94 1028 l 201 1028 l 201 349 q 256 146 201 210 q 431 81 310 81 q 605 146 550 81 q 659 349 659 210 l 659 1028 l 699 1028 q 786 1053 754 1028 q 817 1135 817 1079 q 814 1184 817 1161 q 802 1233 810 1207 l 885 1233 q 897 1184 893 1208 q 901 1130 901 1160 q 863 1018 901 1059 q 763 969 826 977 l 763 363 q 728 150 763 233 q 620 27 693 67 q 431 -13 547 -13 m 397 1117 q 407 1152 397 1138 q 429 1174 417 1166 q 461 1193 441 1183 q 492 1211 482 1203 q 501 1232 501 1219 q 485 1256 501 1248 q 427 1265 468 1265 q 365 1259 397 1265 q 303 1242 333 1253 l 303 1297 q 364 1313 328 1307 q 433 1319 399 1319 q 535 1298 501 1319 q 569 1239 569 1276 q 555 1197 569 1212 q 512 1168 540 1183 q 476 1144 488 1155 q 462 1117 464 1134 l 397 1117 z "},"Ữ":{"ha":860,"x_min":94,"x_max":901,"o":"m 431 -13 q 240 27 314 -13 q 130 150 166 67 q 94 363 94 233 l 94 1028 l 201 1028 l 201 349 q 256 146 201 210 q 431 81 310 81 q 605 146 550 81 q 659 349 659 210 l 659 1028 l 699 1028 q 786 1053 754 1028 q 817 1135 817 1079 q 814 1184 817 1161 q 802 1233 810 1207 l 885 1233 q 897 1184 893 1208 q 901 1130 901 1160 q 863 1018 901 1059 q 763 969 826 977 l 763 363 q 728 150 763 233 q 620 27 693 67 q 431 -13 547 -13 m 526 1158 q 476 1165 499 1158 q 419 1187 453 1172 q 370 1206 388 1200 q 332 1212 351 1212 q 275 1200 299 1212 q 226 1161 250 1188 l 226 1238 q 333 1284 266 1284 q 382 1277 359 1284 q 440 1255 405 1269 q 487 1235 468 1242 q 526 1229 506 1229 q 583 1241 558 1229 q 632 1280 608 1253 l 632 1203 q 526 1158 594 1158 z "},"Ű":{"ha":858,"x_min":94,"x_max":763,"o":"m 431 -13 q 240 27 314 -13 q 130 150 166 67 q 94 363 94 233 l 94 1028 l 201 1028 l 201 349 q 256 146 201 210 q 431 81 310 81 q 605 146 550 81 q 659 349 659 210 l 659 1028 l 763 1028 l 763 363 q 728 150 763 233 q 620 27 693 67 q 431 -13 547 -13 m 285 1117 l 351 1314 l 441 1314 l 367 1117 l 285 1117 m 494 1117 l 560 1314 l 650 1314 l 576 1117 l 494 1117 z "},"Ȗ":{"ha":858,"x_min":94,"x_max":763,"o":"m 431 -13 q 240 27 314 -13 q 130 150 166 67 q 94 363 94 233 l 94 1028 l 201 1028 l 201 349 q 256 146 201 210 q 431 81 310 81 q 605 146 550 81 q 659 349 659 210 l 659 1028 l 763 1028 l 763 363 q 728 150 763 233 q 620 27 693 67 q 431 -13 547 -13 m 240 1131 q 295 1263 247 1218 q 429 1308 343 1308 q 565 1263 515 1308 q 622 1131 615 1217 l 550 1131 q 515 1217 543 1191 q 429 1244 486 1244 q 344 1217 372 1244 q 311 1131 316 1191 l 240 1131 z "},"Ū":{"ha":858,"x_min":94,"x_max":763,"o":"m 431 -13 q 240 27 314 -13 q 130 150 166 67 q 94 363 94 233 l 94 1028 l 201 1028 l 201 349 q 256 146 201 210 q 431 81 310 81 q 605 146 550 81 q 659 349 659 210 l 659 1028 l 763 1028 l 763 363 q 728 150 763 233 q 620 27 693 67 q 431 -13 547 -13 m 239 1178 l 239 1253 l 622 1253 l 622 1178 l 239 1178 z "},"Ṻ":{"ha":858,"x_min":94,"x_max":763,"o":"m 431 -13 q 240 27 314 -13 q 130 150 166 67 q 94 363 94 233 l 94 1028 l 201 1028 l 201 349 q 256 146 201 210 q 431 81 310 81 q 605 146 550 81 q 659 349 659 210 l 659 1028 l 763 1028 l 763 363 q 728 150 763 233 q 620 27 693 67 q 431 -13 547 -13 m 239 1178 l 239 1253 l 622 1253 l 622 1178 l 239 1178 m 292 1362 q 242 1379 260 1362 q 223 1426 223 1397 q 242 1475 223 1457 q 292 1492 260 1492 q 344 1475 325 1492 q 363 1426 363 1457 q 344 1379 363 1397 q 292 1362 325 1362 m 568 1362 q 517 1379 536 1362 q 499 1426 499 1397 q 517 1475 499 1457 q 568 1492 536 1492 q 619 1475 601 1492 q 638 1426 638 1457 q 619 1379 638 1397 q 568 1362 601 1362 z "},"Ų":{"ha":858,"x_min":94,"x_max":763,"o":"m 763 1028 l 763 363 q 718 130 763 219 q 572 7 674 40 q 438 -67 475 -26 q 401 -156 401 -109 q 497 -234 401 -234 q 597 -209 540 -234 l 597 -264 q 488 -289 544 -289 q 373 -256 413 -289 q 333 -162 333 -224 q 422 -13 333 -73 q 174 80 253 -11 q 94 363 94 170 l 94 1028 l 201 1028 l 201 349 q 256 146 201 210 q 431 81 310 81 q 605 146 550 81 q 659 349 659 210 l 659 1028 l 763 1028 z "},"Ů":{"ha":858,"x_min":94,"x_max":763,"o":"m 431 -13 q 240 27 314 -13 q 130 150 166 67 q 94 363 94 233 l 94 1028 l 201 1028 l 201 349 q 256 146 201 210 q 431 81 310 81 q 605 146 550 81 q 659 349 659 210 l 659 1028 l 763 1028 l 763 363 q 728 150 763 233 q 620 27 693 67 q 431 -13 547 -13 m 431 1110 q 361 1128 392 1110 q 312 1176 330 1145 q 294 1245 294 1207 q 312 1314 294 1283 q 361 1362 330 1344 q 431 1379 392 1379 q 500 1362 469 1379 q 549 1314 531 1344 q 566 1245 566 1283 q 549 1176 566 1207 q 500 1128 531 1145 q 431 1110 469 1110 m 431 1163 q 489 1185 467 1163 q 511 1245 511 1207 q 489 1305 511 1283 q 431 1328 467 1328 q 372 1305 394 1328 q 350 1245 350 1283 q 372 1185 350 1207 q 431 1163 394 1163 z "},"Ũ":{"ha":858,"x_min":94,"x_max":763,"o":"m 431 -13 q 240 27 314 -13 q 130 150 166 67 q 94 363 94 233 l 94 1028 l 201 1028 l 201 349 q 256 146 201 210 q 431 81 310 81 q 605 146 550 81 q 659 349 659 210 l 659 1028 l 763 1028 l 763 363 q 728 150 763 233 q 620 27 693 67 q 431 -13 547 -13 m 527 1158 q 478 1165 501 1158 q 420 1187 455 1172 q 371 1206 390 1200 q 333 1212 353 1212 q 276 1200 301 1212 q 228 1161 251 1188 l 228 1238 q 334 1284 267 1284 q 383 1277 360 1284 q 441 1255 406 1269 q 489 1235 469 1242 q 528 1229 508 1229 q 585 1241 560 1229 q 633 1280 610 1253 l 633 1203 q 527 1158 595 1158 z "},"Ṹ":{"ha":858,"x_min":94,"x_max":763,"o":"m 431 -13 q 240 27 314 -13 q 130 150 166 67 q 94 363 94 233 l 94 1028 l 201 1028 l 201 349 q 256 146 201 210 q 431 81 310 81 q 605 146 550 81 q 659 349 659 210 l 659 1028 l 763 1028 l 763 363 q 728 150 763 233 q 620 27 693 67 q 431 -13 547 -13 m 381 1327 l 476 1488 l 593 1488 l 480 1327 l 381 1327 m 527 1158 q 478 1165 501 1158 q 420 1187 455 1172 q 371 1206 390 1200 q 333 1212 353 1212 q 276 1200 301 1212 q 228 1161 251 1188 l 228 1238 q 334 1284 267 1284 q 383 1277 360 1284 q 441 1255 406 1269 q 489 1235 469 1242 q 528 1229 508 1229 q 585 1241 560 1229 q 633 1280 610 1253 l 633 1203 q 527 1158 595 1158 z "},"V":{"ha":796,"x_min":2,"x_max":794,"o":"m 690 1028 l 794 1028 l 477 0 l 319 0 l 2 1028 l 113 1028 l 400 84 l 690 1028 z "},"W":{"ha":1278,"x_min":29,"x_max":1248,"o":"m 1147 1028 l 1248 1028 l 999 0 l 858 0 l 641 898 l 419 0 l 278 0 l 29 1028 l 138 1028 l 355 107 l 579 1028 l 705 1028 l 926 104 l 1147 1028 z "},"Ẃ":{"ha":1278,"x_min":29,"x_max":1248,"o":"m 1147 1028 l 1248 1028 l 999 0 l 858 0 l 641 898 l 419 0 l 278 0 l 29 1028 l 138 1028 l 355 107 l 579 1028 l 705 1028 l 926 104 l 1147 1028 m 594 1117 l 689 1314 l 799 1314 l 685 1117 l 594 1117 z "},"Ŵ":{"ha":1278,"x_min":29,"x_max":1248,"o":"m 1147 1028 l 1248 1028 l 999 0 l 858 0 l 641 898 l 419 0 l 278 0 l 29 1028 l 138 1028 l 355 107 l 579 1028 l 705 1028 l 926 104 l 1147 1028 m 824 1117 l 741 1117 l 640 1268 l 538 1117 l 455 1117 l 590 1314 l 689 1314 l 824 1117 z "},"Ẅ":{"ha":1278,"x_min":29,"x_max":1248,"o":"m 1147 1028 l 1248 1028 l 999 0 l 858 0 l 641 898 l 419 0 l 278 0 l 29 1028 l 138 1028 l 355 107 l 579 1028 l 705 1028 l 926 104 l 1147 1028 m 501 1151 q 451 1169 469 1151 q 432 1216 432 1186 q 451 1264 432 1247 q 501 1282 469 1282 q 553 1264 534 1282 q 572 1216 572 1247 q 553 1169 572 1186 q 501 1151 534 1151 m 777 1151 q 726 1169 745 1151 q 708 1216 708 1186 q 726 1264 708 1247 q 777 1282 745 1282 q 828 1264 810 1282 q 847 1216 847 1247 q 828 1169 847 1186 q 777 1151 810 1151 z "},"Ẁ":{"ha":1278,"x_min":29,"x_max":1248,"o":"m 1147 1028 l 1248 1028 l 999 0 l 858 0 l 641 898 l 419 0 l 278 0 l 29 1028 l 138 1028 l 355 107 l 579 1028 l 705 1028 l 926 104 l 1147 1028 m 594 1117 l 480 1314 l 590 1314 l 685 1117 l 594 1117 z "},"X":{"ha":787,"x_min":7,"x_max":778,"o":"m 456 525 l 778 0 l 658 0 l 393 435 l 126 0 l 7 0 l 331 524 l 20 1028 l 140 1028 l 393 615 l 647 1028 l 765 1028 l 456 525 z "},"Y":{"ha":718,"x_min":-24,"x_max":738,"o":"m 738 1028 l 413 458 l 413 0 l 306 0 l 306 457 l -24 1028 l 90 1028 l 361 558 l 630 1028 l 738 1028 z "},"Ý":{"ha":718,"x_min":-24,"x_max":738,"o":"m 738 1028 l 413 458 l 413 0 l 306 0 l 306 457 l -24 1028 l 90 1028 l 361 558 l 630 1028 l 738 1028 m 314 1117 l 409 1314 l 519 1314 l 406 1117 l 314 1117 z "},"Ŷ":{"ha":718,"x_min":-24,"x_max":738,"o":"m 738 1028 l 413 458 l 413 0 l 306 0 l 306 457 l -24 1028 l 90 1028 l 361 558 l 630 1028 l 738 1028 m 544 1117 l 461 1117 l 360 1268 l 258 1117 l 175 1117 l 310 1314 l 409 1314 l 544 1117 z "},"Ÿ":{"ha":718,"x_min":-24,"x_max":738,"o":"m 738 1028 l 413 458 l 413 0 l 306 0 l 306 457 l -24 1028 l 90 1028 l 361 558 l 630 1028 l 738 1028 m 222 1151 q 171 1169 190 1151 q 152 1216 152 1186 q 171 1264 152 1247 q 222 1282 190 1282 q 273 1264 254 1282 q 292 1216 292 1247 q 273 1169 292 1186 q 222 1151 254 1151 m 497 1151 q 447 1169 465 1151 q 428 1216 428 1186 q 447 1264 428 1247 q 497 1282 465 1282 q 549 1264 530 1282 q 567 1216 567 1247 q 549 1169 567 1186 q 497 1151 530 1151 z "},"Ẏ":{"ha":718,"x_min":-24,"x_max":738,"o":"m 738 1028 l 413 458 l 413 0 l 306 0 l 306 457 l -24 1028 l 90 1028 l 361 558 l 630 1028 l 738 1028 m 360 1151 q 305 1168 325 1151 q 285 1216 285 1185 q 305 1265 285 1247 q 360 1282 325 1282 q 415 1265 394 1282 q 435 1216 435 1247 q 415 1168 435 1185 q 360 1151 394 1151 z "},"Ỵ":{"ha":718,"x_min":-24,"x_max":738,"o":"m 738 1028 l 413 458 l 413 0 l 306 0 l 306 457 l -24 1028 l 90 1028 l 361 558 l 630 1028 l 738 1028 m 359 -244 q 304 -227 324 -244 q 284 -179 284 -210 q 304 -131 284 -148 q 359 -113 324 -113 q 414 -131 394 -113 q 434 -179 434 -148 q 414 -227 434 -210 q 359 -244 394 -244 z "},"Ỳ":{"ha":718,"x_min":-24,"x_max":738,"o":"m 738 1028 l 413 458 l 413 0 l 306 0 l 306 457 l -24 1028 l 90 1028 l 361 558 l 630 1028 l 738 1028 m 314 1117 l 200 1314 l 310 1314 l 406 1117 l 314 1117 z "},"Ỷ":{"ha":718,"x_min":-24,"x_max":738,"o":"m 738 1028 l 413 458 l 413 0 l 306 0 l 306 457 l -24 1028 l 90 1028 l 361 558 l 630 1028 l 738 1028 m 327 1117 q 338 1152 328 1138 q 359 1174 347 1166 q 392 1193 372 1183 q 422 1211 413 1203 q 432 1232 432 1219 q 415 1256 432 1248 q 358 1265 399 1265 q 295 1259 328 1265 q 234 1242 263 1253 l 234 1297 q 294 1313 258 1307 q 364 1319 330 1319 q 466 1298 432 1319 q 500 1239 500 1276 q 485 1197 500 1212 q 442 1168 471 1183 q 406 1144 418 1155 q 392 1117 394 1134 l 327 1117 z "},"Ȳ":{"ha":718,"x_min":-24,"x_max":738,"o":"m 738 1028 l 413 458 l 413 0 l 306 0 l 306 457 l -24 1028 l 90 1028 l 361 558 l 630 1028 l 738 1028 m 168 1178 l 168 1253 l 551 1253 l 551 1178 l 168 1178 z "},"Ỹ":{"ha":718,"x_min":-24,"x_max":738,"o":"m 738 1028 l 413 458 l 413 0 l 306 0 l 306 457 l -24 1028 l 90 1028 l 361 558 l 630 1028 l 738 1028 m 456 1158 q 407 1165 430 1158 q 349 1187 384 1172 q 300 1206 319 1200 q 263 1212 282 1212 q 205 1200 230 1212 q 157 1161 181 1188 l 157 1238 q 263 1284 197 1284 q 313 1277 290 1284 q 370 1255 335 1269 q 418 1235 399 1242 q 457 1229 437 1229 q 514 1241 489 1229 q 563 1280 539 1253 l 563 1203 q 456 1158 524 1158 z "},"Z":{"ha":690,"x_min":35,"x_max":655,"o":"m 172 96 l 655 96 l 655 0 l 35 0 l 35 61 l 510 932 l 42 932 l 42 1028 l 648 1028 l 648 967 l 172 96 z "},"Ź":{"ha":690,"x_min":35,"x_max":655,"o":"m 172 96 l 655 96 l 655 0 l 35 0 l 35 61 l 510 932 l 42 932 l 42 1028 l 648 1028 l 648 967 l 172 96 m 300 1117 l 395 1314 l 505 1314 l 392 1117 l 300 1117 z "},"Ž":{"ha":690,"x_min":35,"x_max":655,"o":"m 172 96 l 655 96 l 655 0 l 35 0 l 35 61 l 510 932 l 42 932 l 42 1028 l 648 1028 l 648 967 l 172 96 m 447 1314 l 531 1314 l 395 1117 l 297 1117 l 161 1314 l 244 1314 l 346 1163 l 447 1314 z "},"Ż":{"ha":690,"x_min":35,"x_max":655,"o":"m 172 96 l 655 96 l 655 0 l 35 0 l 35 61 l 510 932 l 42 932 l 42 1028 l 648 1028 l 648 967 l 172 96 m 346 1151 q 291 1168 311 1151 q 271 1216 271 1185 q 291 1265 271 1247 q 346 1282 311 1282 q 401 1265 381 1282 q 421 1216 421 1247 q 401 1168 421 1185 q 346 1151 381 1151 z "},"Ẓ":{"ha":690,"x_min":35,"x_max":655,"o":"m 172 96 l 655 96 l 655 0 l 35 0 l 35 61 l 510 932 l 42 932 l 42 1028 l 648 1028 l 648 967 l 172 96 m 344 -244 q 290 -227 310 -244 q 269 -179 269 -210 q 290 -131 269 -148 q 344 -113 310 -113 q 399 -131 379 -113 q 419 -179 419 -148 q 399 -227 419 -210 q 344 -244 379 -244 z "},"a":{"ha":620,"x_min":47,"x_max":538,"o":"m 282 765 q 425 740 369 765 q 510 658 481 715 q 538 503 538 601 l 538 0 l 450 0 l 442 83 l 435 83 q 357 11 404 35 q 250 -12 309 -12 q 144 12 190 -12 q 73 82 98 36 q 47 192 47 128 q 108 350 47 294 q 295 417 168 406 l 435 432 l 435 508 q 416 609 435 572 q 362 660 398 645 q 267 675 326 675 q 181 668 227 675 q 91 645 135 660 l 91 735 q 184 757 131 749 q 282 765 236 765 m 279 73 q 363 94 322 73 q 435 165 403 116 l 435 358 l 303 344 q 191 302 227 337 q 154 204 154 267 q 186 106 154 138 q 279 73 219 73 z "},"á":{"ha":620,"x_min":47,"x_max":538,"o":"m 282 765 q 425 740 369 765 q 510 658 481 715 q 538 503 538 601 l 538 0 l 450 0 l 442 83 l 435 83 q 357 11 404 35 q 250 -12 309 -12 q 144 12 190 -12 q 73 82 98 36 q 47 192 47 128 q 108 350 47 294 q 295 417 168 406 l 435 432 l 435 508 q 416 609 435 572 q 362 660 398 645 q 267 675 326 675 q 181 668 227 675 q 91 645 135 660 l 91 735 q 184 757 131 749 q 282 765 236 765 m 279 73 q 363 94 322 73 q 435 165 403 116 l 435 358 l 303 344 q 191 302 227 337 q 154 204 154 267 q 186 106 154 138 q 279 73 219 73 m 262 869 l 376 1122 l 483 1122 l 352 869 l 262 869 z "},"ă":{"ha":620,"x_min":47,"x_max":538,"o":"m 282 765 q 425 740 369 765 q 510 658 481 715 q 538 503 538 601 l 538 0 l 450 0 l 442 83 l 435 83 q 357 11 404 35 q 250 -12 309 -12 q 144 12 190 -12 q 73 82 98 36 q 47 192 47 128 q 108 350 47 294 q 295 417 168 406 l 435 432 l 435 508 q 416 609 435 572 q 362 660 398 645 q 267 675 326 675 q 181 668 227 675 q 91 645 135 660 l 91 735 q 184 757 131 749 q 282 765 236 765 m 279 73 q 363 94 322 73 q 435 165 403 116 l 435 358 l 303 344 q 191 302 227 337 q 154 204 154 267 q 186 106 154 138 q 279 73 219 73 m 308 878 q 180 934 228 878 q 128 1104 133 991 l 199 1104 q 231 981 204 1019 q 308 942 258 942 q 384 981 357 942 q 414 1104 411 1019 l 485 1104 q 435 934 481 990 q 308 878 388 878 z "},"ắ":{"ha":620,"x_min":47,"x_max":538,"o":"m 282 765 q 425 740 369 765 q 510 658 481 715 q 538 503 538 601 l 538 0 l 450 0 l 442 83 l 435 83 q 357 11 404 35 q 250 -12 309 -12 q 144 12 190 -12 q 73 82 98 36 q 47 192 47 128 q 108 350 47 294 q 295 417 168 406 l 435 432 l 435 508 q 416 609 435 572 q 362 660 398 645 q 267 675 326 675 q 181 668 227 675 q 91 645 135 660 l 91 735 q 184 757 131 749 q 282 765 236 765 m 279 73 q 363 94 322 73 q 435 165 403 116 l 435 358 l 303 344 q 191 302 227 337 q 154 204 154 267 q 186 106 154 138 q 279 73 219 73 m 269 1109 l 364 1297 l 458 1297 l 345 1109 l 269 1109 m 308 878 q 179 933 227 878 q 126 1095 131 988 l 197 1095 q 230 977 203 1014 q 308 941 258 941 q 385 977 358 941 q 416 1095 413 1014 l 488 1095 q 435 933 483 988 q 308 878 388 878 z "},"ặ":{"ha":620,"x_min":47,"x_max":538,"o":"m 282 765 q 425 740 369 765 q 510 658 481 715 q 538 503 538 601 l 538 0 l 450 0 l 442 83 l 435 83 q 357 11 404 35 q 250 -12 309 -12 q 144 12 190 -12 q 73 82 98 36 q 47 192 47 128 q 108 350 47 294 q 295 417 168 406 l 435 432 l 435 508 q 416 609 435 572 q 362 660 398 645 q 267 675 326 675 q 181 668 227 675 q 91 645 135 660 l 91 735 q 184 757 131 749 q 282 765 236 765 m 279 73 q 363 94 322 73 q 435 165 403 116 l 435 358 l 303 344 q 191 302 227 337 q 154 204 154 267 q 186 106 154 138 q 279 73 219 73 m 309 -250 q 259 -232 278 -250 q 240 -182 240 -213 q 259 -132 240 -151 q 309 -113 278 -113 q 359 -132 340 -113 q 378 -182 378 -151 q 359 -232 378 -213 q 309 -250 340 -250 m 308 878 q 180 934 228 878 q 128 1104 133 991 l 199 1104 q 231 981 204 1019 q 308 942 258 942 q 384 981 357 942 q 414 1104 411 1019 l 485 1104 q 435 934 481 990 q 308 878 388 878 z "},"ằ":{"ha":620,"x_min":47,"x_max":538,"o":"m 282 765 q 425 740 369 765 q 510 658 481 715 q 538 503 538 601 l 538 0 l 450 0 l 442 83 l 435 83 q 357 11 404 35 q 250 -12 309 -12 q 144 12 190 -12 q 73 82 98 36 q 47 192 47 128 q 108 350 47 294 q 295 417 168 406 l 435 432 l 435 508 q 416 609 435 572 q 362 660 398 645 q 267 675 326 675 q 181 668 227 675 q 91 645 135 660 l 91 735 q 184 757 131 749 q 282 765 236 765 m 279 73 q 363 94 322 73 q 435 165 403 116 l 435 358 l 303 344 q 191 302 227 337 q 154 204 154 267 q 186 106 154 138 q 279 73 219 73 m 269 1109 l 155 1297 l 250 1297 l 345 1109 l 269 1109 m 308 878 q 179 933 227 878 q 126 1095 131 988 l 197 1095 q 230 977 203 1014 q 308 941 258 941 q 385 977 358 941 q 416 1095 413 1014 l 488 1095 q 435 933 483 988 q 308 878 388 878 z "},"ẳ":{"ha":620,"x_min":47,"x_max":538,"o":"m 282 765 q 425 740 369 765 q 510 658 481 715 q 538 503 538 601 l 538 0 l 450 0 l 442 83 l 435 83 q 357 11 404 35 q 250 -12 309 -12 q 144 12 190 -12 q 73 82 98 36 q 47 192 47 128 q 108 350 47 294 q 295 417 168 406 l 435 432 l 435 508 q 416 609 435 572 q 362 660 398 645 q 267 675 326 675 q 181 668 227 675 q 91 645 135 660 l 91 735 q 184 757 131 749 q 282 765 236 765 m 279 73 q 363 94 322 73 q 435 165 403 116 l 435 358 l 303 344 q 191 302 227 337 q 154 204 154 267 q 186 106 154 138 q 279 73 219 73 m 274 1109 q 292 1152 276 1138 q 339 1182 308 1167 q 369 1199 359 1191 q 379 1219 379 1207 q 363 1243 379 1235 q 305 1251 346 1251 q 243 1246 275 1251 q 181 1229 210 1240 l 181 1280 q 242 1296 206 1290 q 311 1302 278 1302 q 413 1282 379 1302 q 447 1226 447 1262 q 432 1186 447 1200 q 389 1158 417 1172 q 353 1135 365 1144 q 340 1109 342 1126 l 274 1109 m 308 878 q 179 933 227 878 q 126 1095 131 988 l 197 1095 q 230 977 203 1014 q 308 941 258 941 q 385 977 358 941 q 416 1095 413 1014 l 488 1095 q 435 933 483 988 q 308 878 388 878 z "},"ẵ":{"ha":620,"x_min":47,"x_max":538,"o":"m 282 765 q 425 740 369 765 q 510 658 481 715 q 538 503 538 601 l 538 0 l 450 0 l 442 83 l 435 83 q 357 11 404 35 q 250 -12 309 -12 q 144 12 190 -12 q 73 82 98 36 q 47 192 47 128 q 108 350 47 294 q 295 417 168 406 l 435 432 l 435 508 q 416 609 435 572 q 362 660 398 645 q 267 675 326 675 q 181 668 227 675 q 91 645 135 660 l 91 735 q 184 757 131 749 q 282 765 236 765 m 279 73 q 363 94 322 73 q 435 165 403 116 l 435 358 l 303 344 q 191 302 227 337 q 154 204 154 267 q 186 106 154 138 q 279 73 219 73 m 398 1149 q 351 1156 373 1149 q 297 1177 329 1163 q 252 1195 270 1189 q 215 1201 233 1201 q 160 1190 184 1201 q 112 1153 135 1178 l 112 1224 q 216 1267 151 1267 q 264 1260 241 1267 q 317 1239 286 1253 q 362 1221 344 1227 q 399 1215 381 1215 q 454 1226 429 1215 q 501 1263 478 1238 l 501 1193 q 398 1149 464 1149 m 308 878 q 179 933 227 878 q 126 1095 131 988 l 197 1095 q 230 977 203 1014 q 308 941 258 941 q 385 977 358 941 q 416 1095 413 1014 l 488 1095 q 435 933 483 988 q 308 878 388 878 z "},"â":{"ha":620,"x_min":47,"x_max":538,"o":"m 282 765 q 425 740 369 765 q 510 658 481 715 q 538 503 538 601 l 538 0 l 450 0 l 442 83 l 435 83 q 357 11 404 35 q 250 -12 309 -12 q 144 12 190 -12 q 73 82 98 36 q 47 192 47 128 q 108 350 47 294 q 295 417 168 406 l 435 432 l 435 508 q 416 609 435 572 q 362 660 398 645 q 267 675 326 675 q 181 668 227 675 q 91 645 135 660 l 91 735 q 184 757 131 749 q 282 765 236 765 m 279 73 q 363 94 322 73 q 435 165 403 116 l 435 358 l 303 344 q 191 302 227 337 q 154 204 154 267 q 186 106 154 138 q 279 73 219 73 m 481 869 l 401 869 l 307 1069 l 213 869 l 133 869 l 258 1122 l 356 1122 l 481 869 z "},"ấ":{"ha":620,"x_min":47,"x_max":630,"o":"m 282 765 q 425 740 369 765 q 510 658 481 715 q 538 503 538 601 l 538 0 l 450 0 l 442 83 l 435 83 q 357 11 404 35 q 250 -12 309 -12 q 144 12 190 -12 q 73 82 98 36 q 47 192 47 128 q 108 350 47 294 q 295 417 168 406 l 435 432 l 435 508 q 416 609 435 572 q 362 660 398 645 q 267 675 326 675 q 181 668 227 675 q 91 645 135 660 l 91 735 q 184 757 131 749 q 282 765 236 765 m 279 73 q 363 94 322 73 q 435 165 403 116 l 435 358 l 303 344 q 191 302 227 337 q 154 204 154 267 q 186 106 154 138 q 279 73 219 73 m 535 1297 l 630 1297 l 516 1109 l 440 1109 l 535 1297 m 258 1122 l 356 1122 l 481 869 l 401 869 l 307 1069 l 213 869 l 133 869 l 258 1122 z "},"ậ":{"ha":620,"x_min":47,"x_max":538,"o":"m 282 765 q 425 740 369 765 q 510 658 481 715 q 538 503 538 601 l 538 0 l 450 0 l 442 83 l 435 83 q 357 11 404 35 q 250 -12 309 -12 q 144 12 190 -12 q 73 82 98 36 q 47 192 47 128 q 108 350 47 294 q 295 417 168 406 l 435 432 l 435 508 q 416 609 435 572 q 362 660 398 645 q 267 675 326 675 q 181 668 227 675 q 91 645 135 660 l 91 735 q 184 757 131 749 q 282 765 236 765 m 279 73 q 363 94 322 73 q 435 165 403 116 l 435 358 l 303 344 q 191 302 227 337 q 154 204 154 267 q 186 106 154 138 q 279 73 219 73 m 309 -250 q 259 -232 278 -250 q 240 -182 240 -213 q 259 -132 240 -151 q 309 -113 278 -113 q 359 -132 340 -113 q 378 -182 378 -151 q 359 -232 378 -213 q 309 -250 340 -250 m 481 869 l 401 869 l 307 1069 l 213 869 l 133 869 l 258 1122 l 356 1122 l 481 869 z "},"ầ":{"ha":620,"x_min":47,"x_max":538,"o":"m 282 765 q 425 740 369 765 q 510 658 481 715 q 538 503 538 601 l 538 0 l 450 0 l 442 83 l 435 83 q 357 11 404 35 q 250 -12 309 -12 q 144 12 190 -12 q 73 82 98 36 q 47 192 47 128 q 108 350 47 294 q 295 417 168 406 l 435 432 l 435 508 q 416 609 435 572 q 362 660 398 645 q 267 675 326 675 q 181 668 227 675 q 91 645 135 660 l 91 735 q 184 757 131 749 q 282 765 236 765 m 279 73 q 363 94 322 73 q 435 165 403 116 l 435 358 l 303 344 q 191 302 227 337 q 154 204 154 267 q 186 106 154 138 q 279 73 219 73 m 524 1109 l 447 1109 l 334 1297 l 428 1297 l 524 1109 m 258 1122 l 356 1122 l 481 869 l 401 869 l 307 1069 l 213 869 l 133 869 l 258 1122 z "},"ẩ":{"ha":620,"x_min":47,"x_max":601,"o":"m 282 765 q 425 740 369 765 q 510 658 481 715 q 538 503 538 601 l 538 0 l 450 0 l 442 83 l 435 83 q 357 11 404 35 q 250 -12 309 -12 q 144 12 190 -12 q 73 82 98 36 q 47 192 47 128 q 108 350 47 294 q 295 417 168 406 l 435 432 l 435 508 q 416 609 435 572 q 362 660 398 645 q 267 675 326 675 q 181 668 227 675 q 91 645 135 660 l 91 735 q 184 757 131 749 q 282 765 236 765 m 279 73 q 363 94 322 73 q 435 165 403 116 l 435 358 l 303 344 q 191 302 227 337 q 154 204 154 267 q 186 106 154 138 q 279 73 219 73 m 464 1302 q 566 1282 532 1302 q 601 1226 601 1262 q 586 1186 601 1200 q 542 1158 571 1172 q 506 1135 518 1144 q 492 1109 494 1126 l 427 1109 q 445 1152 429 1138 q 492 1182 462 1167 q 522 1199 512 1191 q 532 1219 532 1207 q 515 1243 532 1235 q 458 1251 499 1251 q 395 1245 428 1251 q 335 1229 363 1240 l 335 1280 q 395 1296 359 1290 q 464 1302 431 1302 m 258 1122 l 356 1122 l 481 869 l 401 869 l 307 1069 l 213 869 l 133 869 l 258 1122 z "},"ẫ":{"ha":620,"x_min":47,"x_max":538,"o":"m 282 765 q 425 740 369 765 q 510 658 481 715 q 538 503 538 601 l 538 0 l 450 0 l 442 83 l 435 83 q 357 11 404 35 q 250 -12 309 -12 q 144 12 190 -12 q 73 82 98 36 q 47 192 47 128 q 108 350 47 294 q 295 417 168 406 l 435 432 l 435 508 q 416 609 435 572 q 362 660 398 645 q 267 675 326 675 q 181 668 227 675 q 91 645 135 660 l 91 735 q 184 757 131 749 q 282 765 236 765 m 279 73 q 363 94 322 73 q 435 165 403 116 l 435 358 l 303 344 q 191 302 227 337 q 154 204 154 267 q 186 106 154 138 q 279 73 219 73 m 399 1215 q 455 1227 431 1215 q 503 1264 480 1239 l 503 1193 q 399 1149 464 1149 q 351 1157 374 1149 q 297 1178 328 1164 q 250 1195 268 1190 q 215 1201 233 1201 q 158 1190 183 1201 q 110 1153 134 1178 l 110 1224 q 215 1267 150 1267 q 263 1260 240 1267 q 317 1239 286 1253 q 363 1221 344 1227 q 399 1215 381 1215 m 258 1108 l 356 1108 l 481 870 l 401 870 l 307 1060 l 213 870 l 133 870 l 258 1108 z "},"ȁ":{"ha":620,"x_min":47,"x_max":538,"o":"m 282 765 q 425 740 369 765 q 510 658 481 715 q 538 503 538 601 l 538 0 l 450 0 l 442 83 l 435 83 q 357 11 404 35 q 250 -12 309 -12 q 144 12 190 -12 q 73 82 98 36 q 47 192 47 128 q 108 350 47 294 q 295 417 168 406 l 435 432 l 435 508 q 416 609 435 572 q 362 660 398 645 q 267 675 326 675 q 181 668 227 675 q 91 645 135 660 l 91 735 q 184 757 131 749 q 282 765 236 765 m 279 73 q 363 94 322 73 q 435 165 403 116 l 435 358 l 303 344 q 191 302 227 337 q 154 204 154 267 q 186 106 154 138 q 279 73 219 73 m 161 869 l 84 1122 l 174 1122 l 243 869 l 161 869 m 370 869 l 293 1122 l 384 1122 l 452 869 l 370 869 z "},"ä":{"ha":620,"x_min":47,"x_max":538,"o":"m 282 765 q 425 740 369 765 q 510 658 481 715 q 538 503 538 601 l 538 0 l 450 0 l 442 83 l 435 83 q 357 11 404 35 q 250 -12 309 -12 q 144 12 190 -12 q 73 82 98 36 q 47 192 47 128 q 108 350 47 294 q 295 417 168 406 l 435 432 l 435 508 q 416 609 435 572 q 362 660 398 645 q 267 675 326 675 q 181 668 227 675 q 91 645 135 660 l 91 735 q 184 757 131 749 q 282 765 236 765 m 279 73 q 363 94 322 73 q 435 165 403 116 l 435 358 l 303 344 q 191 302 227 337 q 154 204 154 267 q 186 106 154 138 q 279 73 219 73 m 181 919 q 131 937 149 919 q 112 987 112 956 q 131 1037 112 1018 q 181 1056 149 1056 q 231 1037 212 1056 q 250 987 250 1018 q 231 937 250 956 q 181 919 212 919 m 433 919 q 383 937 401 919 q 364 987 364 956 q 383 1037 364 1018 q 433 1056 401 1056 q 483 1037 464 1056 q 502 987 502 1018 q 483 937 502 956 q 433 919 464 919 z "},"ạ":{"ha":620,"x_min":47,"x_max":538,"o":"m 282 765 q 425 740 369 765 q 510 658 481 715 q 538 503 538 601 l 538 0 l 450 0 l 442 83 l 435 83 q 357 11 404 35 q 250 -12 309 -12 q 144 12 190 -12 q 73 82 98 36 q 47 192 47 128 q 108 350 47 294 q 295 417 168 406 l 435 432 l 435 508 q 416 609 435 572 q 362 660 398 645 q 267 675 326 675 q 181 668 227 675 q 91 645 135 660 l 91 735 q 184 757 131 749 q 282 765 236 765 m 279 73 q 363 94 322 73 q 435 165 403 116 l 435 358 l 303 344 q 191 302 227 337 q 154 204 154 267 q 186 106 154 138 q 279 73 219 73 m 309 -250 q 259 -232 278 -250 q 240 -182 240 -213 q 259 -132 240 -151 q 309 -113 278 -113 q 359 -132 340 -113 q 378 -182 378 -151 q 359 -232 378 -213 q 309 -250 340 -250 z "},"à":{"ha":620,"x_min":47,"x_max":538,"o":"m 282 765 q 425 740 369 765 q 510 658 481 715 q 538 503 538 601 l 538 0 l 450 0 l 442 83 l 435 83 q 357 11 404 35 q 250 -12 309 -12 q 144 12 190 -12 q 73 82 98 36 q 47 192 47 128 q 108 350 47 294 q 295 417 168 406 l 435 432 l 435 508 q 416 609 435 572 q 362 660 398 645 q 267 675 326 675 q 181 668 227 675 q 91 645 135 660 l 91 735 q 184 757 131 749 q 282 765 236 765 m 279 73 q 363 94 322 73 q 435 165 403 116 l 435 358 l 303 344 q 191 302 227 337 q 154 204 154 267 q 186 106 154 138 q 279 73 219 73 m 262 869 l 130 1122 l 238 1122 l 352 869 l 262 869 z "},"ả":{"ha":620,"x_min":47,"x_max":538,"o":"m 282 765 q 425 740 369 765 q 510 658 481 715 q 538 503 538 601 l 538 0 l 450 0 l 442 83 l 435 83 q 357 11 404 35 q 250 -12 309 -12 q 144 12 190 -12 q 73 82 98 36 q 47 192 47 128 q 108 350 47 294 q 295 417 168 406 l 435 432 l 435 508 q 416 609 435 572 q 362 660 398 645 q 267 675 326 675 q 181 668 227 675 q 91 645 135 660 l 91 735 q 184 757 131 749 q 282 765 236 765 m 279 73 q 363 94 322 73 q 435 165 403 116 l 435 358 l 303 344 q 191 302 227 337 q 154 204 154 267 q 186 106 154 138 q 279 73 219 73 m 273 869 q 282 915 274 896 q 302 946 291 934 q 333 975 314 958 q 361 1002 352 992 q 370 1028 370 1013 q 353 1063 370 1052 q 299 1074 337 1074 q 249 1070 275 1074 q 201 1058 222 1066 l 201 1113 q 250 1126 222 1121 q 305 1131 278 1131 q 406 1106 372 1131 q 439 1035 439 1081 q 426 985 439 1003 q 387 945 413 966 q 352 910 363 926 q 340 869 340 894 l 273 869 z "},"ȃ":{"ha":620,"x_min":47,"x_max":538,"o":"m 282 765 q 425 740 369 765 q 510 658 481 715 q 538 503 538 601 l 538 0 l 450 0 l 442 83 l 435 83 q 357 11 404 35 q 250 -12 309 -12 q 144 12 190 -12 q 73 82 98 36 q 47 192 47 128 q 108 350 47 294 q 295 417 168 406 l 435 432 l 435 508 q 416 609 435 572 q 362 660 398 645 q 267 675 326 675 q 181 668 227 675 q 91 645 135 660 l 91 735 q 184 757 131 749 q 282 765 236 765 m 279 73 q 363 94 322 73 q 435 165 403 116 l 435 358 l 303 344 q 191 302 227 337 q 154 204 154 267 q 186 106 154 138 q 279 73 219 73 m 128 889 q 178 1060 133 1005 q 306 1115 224 1115 q 434 1059 386 1115 q 485 889 481 1003 l 414 889 q 382 1013 409 975 q 306 1051 356 1051 q 228 1013 255 1051 q 199 889 202 975 l 128 889 z "},"ā":{"ha":620,"x_min":47,"x_max":538,"o":"m 282 765 q 425 740 369 765 q 510 658 481 715 q 538 503 538 601 l 538 0 l 450 0 l 442 83 l 435 83 q 357 11 404 35 q 250 -12 309 -12 q 144 12 190 -12 q 73 82 98 36 q 47 192 47 128 q 108 350 47 294 q 295 417 168 406 l 435 432 l 435 508 q 416 609 435 572 q 362 660 398 645 q 267 675 326 675 q 181 668 227 675 q 91 645 135 660 l 91 735 q 184 757 131 749 q 282 765 236 765 m 279 73 q 363 94 322 73 q 435 165 403 116 l 435 358 l 303 344 q 191 302 227 337 q 154 204 154 267 q 186 106 154 138 q 279 73 219 73 m 114 950 l 114 1025 l 500 1025 l 500 950 l 114 950 z "},"ą":{"ha":620,"x_min":47,"x_max":588,"o":"m 498 -234 q 588 -207 542 -234 l 588 -262 q 490 -289 545 -289 q 385 -256 422 -289 q 349 -162 349 -222 q 373 -74 349 -115 q 449 6 397 -33 l 442 83 l 435 83 q 357 11 404 35 q 250 -12 309 -12 q 144 12 190 -12 q 73 82 98 36 q 47 192 47 128 q 108 350 47 294 q 295 417 168 406 l 435 432 l 435 508 q 416 609 435 572 q 362 660 398 645 q 267 675 326 675 q 181 668 227 675 q 91 645 135 660 l 91 735 q 184 757 131 749 q 282 765 236 765 q 425 740 369 765 q 510 658 481 715 q 538 503 538 601 l 538 0 q 444 -77 472 -40 q 417 -156 417 -114 q 438 -214 417 -194 q 498 -234 459 -234 m 279 73 q 363 94 322 73 q 435 165 403 116 l 435 358 l 303 344 q 191 302 227 337 q 154 204 154 267 q 186 106 154 138 q 279 73 219 73 z "},"å":{"ha":620,"x_min":47,"x_max":538,"o":"m 282 765 q 425 740 369 765 q 510 658 481 715 q 538 503 538 601 l 538 0 l 450 0 l 442 83 l 435 83 q 357 11 404 35 q 250 -12 309 -12 q 144 12 190 -12 q 73 82 98 36 q 47 192 47 128 q 108 350 47 294 q 295 417 168 406 l 435 432 l 435 508 q 416 609 435 572 q 362 660 398 645 q 267 675 326 675 q 181 668 227 675 q 91 645 135 660 l 91 735 q 184 757 131 749 q 282 765 236 765 m 279 73 q 363 94 322 73 q 435 165 403 116 l 435 358 l 303 344 q 191 302 227 337 q 154 204 154 267 q 186 106 154 138 q 279 73 219 73 m 307 867 q 237 884 268 867 q 189 932 206 901 q 171 1001 171 963 q 189 1070 171 1039 q 237 1118 206 1101 q 307 1135 268 1135 q 377 1118 346 1135 q 425 1070 408 1101 q 442 1001 442 1039 q 425 932 442 963 q 377 884 408 901 q 307 867 346 867 m 307 919 q 365 941 343 919 q 388 1001 388 963 q 365 1061 388 1039 q 307 1083 343 1083 q 249 1061 271 1083 q 226 1001 226 1039 q 249 941 226 963 q 307 919 271 919 z "},"ǻ":{"ha":620,"x_min":47,"x_max":538,"o":"m 282 765 q 425 740 369 765 q 510 658 481 715 q 538 503 538 601 l 538 0 l 450 0 l 442 83 l 435 83 q 357 11 404 35 q 250 -12 309 -12 q 144 12 190 -12 q 73 82 98 36 q 47 192 47 128 q 108 350 47 294 q 295 417 168 406 l 435 432 l 435 508 q 416 609 435 572 q 362 660 398 645 q 267 675 326 675 q 181 668 227 675 q 91 645 135 660 l 91 735 q 184 757 131 749 q 282 765 236 765 m 279 73 q 363 94 322 73 q 435 165 403 116 l 435 358 l 303 344 q 191 302 227 337 q 154 204 154 267 q 186 106 154 138 q 279 73 219 73 m 412 1088 q 442 1001 442 1052 q 425 932 442 963 q 377 884 408 901 q 307 867 346 867 q 237 884 268 867 q 189 932 206 901 q 171 1001 171 963 q 189 1070 171 1039 q 237 1118 206 1101 q 307 1135 268 1135 q 358 1126 333 1135 l 445 1236 l 538 1236 l 412 1088 m 307 919 q 365 941 343 919 q 388 1001 388 963 q 365 1061 388 1039 q 307 1083 343 1083 q 249 1061 271 1083 q 226 1001 226 1039 q 249 941 226 963 q 307 919 271 919 z "},"ã":{"ha":620,"x_min":47,"x_max":538,"o":"m 282 765 q 425 740 369 765 q 510 658 481 715 q 538 503 538 601 l 538 0 l 450 0 l 442 83 l 435 83 q 357 11 404 35 q 250 -12 309 -12 q 144 12 190 -12 q 73 82 98 36 q 47 192 47 128 q 108 350 47 294 q 295 417 168 406 l 435 432 l 435 508 q 416 609 435 572 q 362 660 398 645 q 267 675 326 675 q 181 668 227 675 q 91 645 135 660 l 91 735 q 184 757 131 749 q 282 765 236 765 m 279 73 q 363 94 322 73 q 435 165 403 116 l 435 358 l 303 344 q 191 302 227 337 q 154 204 154 267 q 186 106 154 138 q 279 73 219 73 m 396 935 q 350 942 372 935 q 297 965 328 950 q 253 985 272 978 q 217 992 235 992 q 162 979 186 992 q 114 939 138 966 l 114 1018 q 217 1065 153 1065 q 264 1057 242 1065 q 317 1034 287 1049 q 361 1014 344 1021 q 397 1008 379 1008 q 452 1020 427 1008 q 500 1061 476 1033 l 500 981 q 396 935 460 935 z "},"æ":{"ha":988,"x_min":47,"x_max":944,"o":"m 944 340 l 538 340 q 564 183 540 241 q 633 101 588 126 q 751 76 678 76 q 910 104 816 76 l 910 14 q 741 -13 824 -13 q 583 18 647 -13 q 484 117 519 49 q 384 17 441 47 q 258 -12 328 -12 q 147 11 195 -12 q 73 81 99 35 q 47 191 47 126 q 111 356 47 296 q 312 416 175 416 l 436 416 l 436 510 q 417 609 436 574 q 361 660 399 645 q 266 675 324 675 q 181 667 227 675 q 91 645 135 660 l 91 735 q 184 758 134 750 q 279 765 234 765 q 421 737 366 765 q 500 647 476 708 q 697 766 561 766 q 880 674 815 766 q 944 376 944 581 l 944 340 m 692 687 q 580 626 620 687 q 538 416 540 566 l 842 416 q 822 580 840 521 q 771 663 803 640 q 692 687 739 687 m 281 74 q 456 193 397 74 q 437 343 439 257 l 319 343 q 193 305 233 343 q 154 201 154 267 q 188 106 154 138 q 281 74 221 74 z "},"ǽ":{"ha":988,"x_min":47,"x_max":944,"o":"m 944 340 l 538 340 q 564 183 540 241 q 633 101 588 126 q 751 76 678 76 q 910 104 816 76 l 910 14 q 741 -13 824 -13 q 583 18 647 -13 q 484 117 519 49 q 384 17 441 47 q 258 -12 328 -12 q 147 11 195 -12 q 73 81 99 35 q 47 191 47 126 q 111 356 47 296 q 312 416 175 416 l 436 416 l 436 510 q 417 609 436 574 q 361 660 399 645 q 266 675 324 675 q 181 667 227 675 q 91 645 135 660 l 91 735 q 184 758 134 750 q 279 765 234 765 q 421 737 366 765 q 500 647 476 708 q 697 766 561 766 q 880 674 815 766 q 944 376 944 581 l 944 340 m 692 687 q 580 626 620 687 q 538 416 540 566 l 842 416 q 822 580 840 521 q 771 663 803 640 q 692 687 739 687 m 281 74 q 456 193 397 74 q 437 343 439 257 l 319 343 q 193 305 233 343 q 154 201 154 267 q 188 106 154 138 q 281 74 221 74 m 442 869 l 556 1122 l 664 1122 l 533 869 l 442 869 z "},"b":{"ha":669,"x_min":88,"x_max":617,"o":"m 278 -13 q 179 -5 231 -13 q 88 17 127 3 l 88 1122 l 194 1122 l 194 681 l 200 681 q 270 742 226 718 q 369 765 314 765 q 548 677 479 765 q 617 390 617 588 q 278 -13 617 -13 m 284 74 q 452 145 396 74 q 508 380 508 217 q 486 558 508 494 q 427 648 465 623 q 336 672 390 672 q 254 651 293 672 q 194 590 215 629 l 194 87 q 236 78 211 81 q 284 74 262 74 z "},"c":{"ha":514,"x_min":52,"x_max":499,"o":"m 343 -13 q 125 78 199 -13 q 52 376 52 170 q 89 602 52 517 q 197 727 126 688 q 373 765 267 765 q 499 751 440 765 l 499 658 q 389 673 441 673 q 260 646 309 673 q 187 555 211 619 q 163 380 163 491 q 185 200 163 266 q 251 107 207 135 q 363 79 294 79 q 499 106 420 79 l 499 14 q 343 -13 422 -13 z "},"ć":{"ha":514,"x_min":52,"x_max":499,"o":"m 343 -13 q 125 78 199 -13 q 52 376 52 170 q 89 602 52 517 q 197 727 126 688 q 373 765 267 765 q 499 751 440 765 l 499 658 q 389 673 441 673 q 260 646 309 673 q 187 555 211 619 q 163 380 163 491 q 185 200 163 266 q 251 107 207 135 q 363 79 294 79 q 499 106 420 79 l 499 14 q 343 -13 422 -13 m 256 869 l 370 1122 l 478 1122 l 347 869 l 256 869 z "},"č":{"ha":514,"x_min":52,"x_max":499,"o":"m 343 -13 q 125 78 199 -13 q 52 376 52 170 q 89 602 52 517 q 197 727 126 688 q 373 765 267 765 q 499 751 440 765 l 499 658 q 389 673 441 673 q 260 646 309 673 q 187 555 211 619 q 163 380 163 491 q 185 200 163 266 q 251 107 207 135 q 363 79 294 79 q 499 106 420 79 l 499 14 q 343 -13 422 -13 m 396 1122 l 476 1122 l 351 869 l 252 869 l 127 1122 l 207 1122 l 301 923 l 396 1122 z "},"ç":{"ha":514,"x_min":52,"x_max":499,"o":"m 389 673 q 260 646 309 673 q 187 555 211 619 q 163 380 163 491 q 185 200 163 266 q 251 107 207 135 q 363 79 294 79 q 499 106 420 79 l 499 14 q 343 -13 422 -13 l 340 -13 l 340 -74 q 412 -108 387 -81 q 437 -180 437 -136 q 402 -259 437 -230 q 301 -289 367 -289 q 246 -283 274 -289 q 197 -267 219 -277 l 197 -210 q 300 -235 244 -235 q 372 -177 372 -235 q 299 -117 372 -117 l 278 -117 l 278 -8 q 109 102 166 10 q 52 376 52 194 q 89 602 52 517 q 197 727 126 688 q 373 765 267 765 q 499 751 440 765 l 499 658 q 389 673 441 673 z "},"ḉ":{"ha":514,"x_min":52,"x_max":499,"o":"m 478 1122 l 347 869 l 256 869 l 370 1122 l 478 1122 m 389 673 q 260 646 309 673 q 187 555 211 619 q 163 380 163 491 q 185 200 163 266 q 251 107 207 135 q 363 79 294 79 q 499 106 420 79 l 499 14 q 343 -13 422 -13 l 340 -13 l 340 -74 q 412 -108 387 -81 q 437 -180 437 -136 q 402 -259 437 -230 q 301 -289 367 -289 q 246 -283 274 -289 q 197 -267 219 -277 l 197 -210 q 300 -235 244 -235 q 372 -177 372 -235 q 299 -117 372 -117 l 278 -117 l 278 -8 q 109 102 166 10 q 52 376 52 194 q 89 602 52 517 q 197 727 126 688 q 373 765 267 765 q 499 751 440 765 l 499 658 q 389 673 441 673 z "},"ĉ":{"ha":514,"x_min":52,"x_max":499,"o":"m 343 -13 q 125 78 199 -13 q 52 376 52 170 q 89 602 52 517 q 197 727 126 688 q 373 765 267 765 q 499 751 440 765 l 499 658 q 389 673 441 673 q 260 646 309 673 q 187 555 211 619 q 163 380 163 491 q 185 200 163 266 q 251 107 207 135 q 363 79 294 79 q 499 106 420 79 l 499 14 q 343 -13 422 -13 m 476 869 l 396 869 l 301 1069 l 207 869 l 127 869 l 252 1122 l 351 1122 l 476 869 z "},"ċ":{"ha":514,"x_min":52,"x_max":499,"o":"m 343 -13 q 125 78 199 -13 q 52 376 52 170 q 89 602 52 517 q 197 727 126 688 q 373 765 267 765 q 499 751 440 765 l 499 658 q 389 673 441 673 q 260 646 309 673 q 187 555 211 619 q 163 380 163 491 q 185 200 163 266 q 251 107 207 135 q 363 79 294 79 q 499 106 420 79 l 499 14 q 343 -13 422 -13 m 301 917 q 246 935 266 917 q 226 987 226 954 q 246 1039 226 1019 q 301 1058 266 1058 q 356 1039 337 1058 q 376 987 376 1019 q 356 935 376 954 q 301 917 337 917 z "},"d":{"ha":669,"x_min":52,"x_max":582,"o":"m 307 -13 q 177 23 235 -13 q 86 143 120 60 q 52 362 52 227 q 138 666 52 567 q 394 765 224 765 q 476 760 431 765 l 476 1122 l 582 1122 l 582 0 l 491 0 l 483 76 l 476 76 q 407 11 451 36 q 307 -13 363 -13 m 333 80 q 415 102 376 80 q 476 165 454 124 l 476 669 q 434 675 459 673 q 388 678 408 678 q 218 607 274 678 q 161 372 161 536 q 183 193 161 258 q 242 105 205 129 q 333 80 280 80 z "},"ð":{"ha":662,"x_min":52,"x_max":608,"o":"m 463 922 q 569 671 530 806 q 608 405 608 535 q 332 -14 608 -14 q 52 376 52 -14 q 326 764 52 764 q 453 723 400 764 q 367 904 420 817 l 123 858 l 109 925 l 325 965 q 178 1122 261 1051 l 299 1122 q 424 983 366 1066 l 580 1013 l 594 947 l 463 922 m 332 72 q 457 141 413 72 q 501 372 501 211 q 481 556 501 489 q 423 651 460 624 q 331 678 386 678 q 239 651 276 678 q 181 558 201 624 q 161 377 161 492 q 181 193 161 260 q 239 99 201 126 q 332 72 276 72 z "},"ď":{"ha":669,"x_min":52,"x_max":727,"o":"m 307 -13 q 177 23 235 -13 q 86 143 120 60 q 52 362 52 227 q 138 666 52 567 q 394 765 224 765 q 476 760 431 765 l 476 1122 l 582 1122 l 582 0 l 491 0 l 483 76 l 476 76 q 407 11 451 36 q 307 -13 363 -13 m 333 80 q 415 102 376 80 q 476 165 454 124 l 476 669 q 434 675 459 673 q 388 678 408 678 q 218 607 274 678 q 161 372 161 536 q 183 193 161 258 q 242 105 205 129 q 333 80 280 80 m 632 819 q 647 1122 647 942 l 727 1122 q 719 965 727 1044 q 694 819 711 886 l 632 819 z "},"đ":{"ha":669,"x_min":52,"x_max":667,"o":"m 667 901 l 582 901 l 582 0 l 491 0 l 483 76 l 476 76 q 407 11 451 36 q 307 -13 363 -13 q 177 23 235 -13 q 86 143 120 60 q 52 362 52 227 q 138 666 52 567 q 394 765 224 765 q 476 760 431 765 l 476 901 l 281 901 l 281 980 l 476 980 l 476 1122 l 582 1122 l 582 980 l 667 980 l 667 901 m 476 669 q 434 675 459 673 q 388 678 408 678 q 218 607 274 678 q 161 372 161 536 q 183 193 161 258 q 242 105 205 129 q 333 80 280 80 q 415 102 376 80 q 476 165 454 124 l 476 669 z "},"ḍ":{"ha":669,"x_min":52,"x_max":582,"o":"m 307 -13 q 177 23 235 -13 q 86 143 120 60 q 52 362 52 227 q 138 666 52 567 q 394 765 224 765 q 476 760 431 765 l 476 1122 l 582 1122 l 582 0 l 491 0 l 483 76 l 476 76 q 407 11 451 36 q 307 -13 363 -13 m 333 80 q 415 102 376 80 q 476 165 454 124 l 476 669 q 434 675 459 673 q 388 678 408 678 q 218 607 274 678 q 161 372 161 536 q 183 193 161 258 q 242 105 205 129 q 333 80 280 80 m 335 -250 q 285 -232 304 -250 q 266 -182 266 -213 q 285 -132 266 -151 q 335 -113 304 -113 q 385 -132 366 -113 q 404 -182 404 -151 q 385 -232 404 -213 q 335 -250 367 -250 z "},"ḏ":{"ha":669,"x_min":52,"x_max":582,"o":"m 307 -13 q 177 23 235 -13 q 86 143 120 60 q 52 362 52 227 q 138 666 52 567 q 394 765 224 765 q 476 760 431 765 l 476 1122 l 582 1122 l 582 0 l 491 0 l 483 76 l 476 76 q 407 11 451 36 q 307 -13 363 -13 m 333 80 q 415 102 376 80 q 476 165 454 124 l 476 669 q 434 675 459 673 q 388 678 408 678 q 218 607 274 678 q 161 372 161 536 q 183 193 161 258 q 242 105 205 129 q 333 80 280 80 m 158 -218 l 158 -144 l 513 -144 l 513 -218 l 158 -218 z "},"ǳ":{"ha":1209,"x_min":52,"x_max":1179,"o":"m 307 -13 q 177 23 235 -13 q 86 143 120 60 q 52 362 52 227 q 138 666 52 567 q 394 765 224 765 q 476 760 431 765 l 476 1122 l 582 1122 l 582 0 l 491 0 l 483 76 l 476 76 q 407 11 451 36 q 307 -13 363 -13 m 333 80 q 415 102 376 80 q 476 165 454 124 l 476 669 q 434 675 459 673 q 388 678 408 678 q 218 607 274 678 q 161 372 161 536 q 183 193 161 258 q 242 105 205 129 q 333 80 280 80 m 826 88 l 1179 88 l 1179 0 l 705 0 l 705 65 l 1050 666 l 712 666 l 712 753 l 1172 753 l 1172 689 l 826 88 z "},"ǆ":{"ha":1209,"x_min":52,"x_max":1179,"o":"m 307 -13 q 177 23 235 -13 q 86 143 120 60 q 52 362 52 227 q 138 666 52 567 q 394 765 224 765 q 476 760 431 765 l 476 1122 l 582 1122 l 582 0 l 491 0 l 483 76 l 476 76 q 407 11 451 36 q 307 -13 363 -13 m 333 80 q 415 102 376 80 q 476 165 454 124 l 476 669 q 434 675 459 673 q 388 678 408 678 q 218 607 274 678 q 161 372 161 536 q 183 193 161 258 q 242 105 205 129 q 333 80 280 80 m 826 88 l 1179 88 l 1179 0 l 705 0 l 705 65 l 1050 666 l 712 666 l 712 753 l 1172 753 l 1172 689 l 826 88 m 1037 1122 l 1117 1122 l 992 869 l 893 869 l 768 1122 l 848 1122 l 942 923 l 1037 1122 z "},"e":{"ha":617,"x_min":52,"x_max":572,"o":"m 572 340 l 160 340 q 186 183 163 241 q 256 101 210 126 q 377 76 303 76 q 538 104 444 76 l 538 14 q 450 -7 491 -1 q 366 -13 409 -13 q 190 25 258 -13 q 86 150 121 64 q 52 378 52 236 q 123 671 52 577 q 320 765 194 765 q 508 672 443 765 q 572 376 572 579 l 572 340 m 319 686 q 204 626 245 686 q 160 416 163 566 l 469 416 q 450 578 468 519 q 399 662 431 638 q 319 686 367 686 z "},"é":{"ha":617,"x_min":52,"x_max":572,"o":"m 572 340 l 160 340 q 186 183 163 241 q 256 101 210 126 q 377 76 303 76 q 538 104 444 76 l 538 14 q 450 -7 491 -1 q 366 -13 409 -13 q 190 25 258 -13 q 86 150 121 64 q 52 378 52 236 q 123 671 52 577 q 320 765 194 765 q 508 672 443 765 q 572 376 572 579 l 572 340 m 319 686 q 204 626 245 686 q 160 416 163 566 l 469 416 q 450 578 468 519 q 399 662 431 638 q 319 686 367 686 m 271 869 l 385 1122 l 492 1122 l 361 869 l 271 869 z "},"ĕ":{"ha":617,"x_min":52,"x_max":572,"o":"m 572 340 l 160 340 q 186 183 163 241 q 256 101 210 126 q 377 76 303 76 q 538 104 444 76 l 538 14 q 450 -7 491 -1 q 366 -13 409 -13 q 190 25 258 -13 q 86 150 121 64 q 52 378 52 236 q 123 671 52 577 q 320 765 194 765 q 508 672 443 765 q 572 376 572 579 l 572 340 m 319 686 q 204 626 245 686 q 160 416 163 566 l 469 416 q 450 578 468 519 q 399 662 431 638 q 319 686 367 686 m 317 878 q 189 934 237 878 q 138 1104 142 991 l 208 1104 q 240 981 213 1019 q 317 942 267 942 q 393 981 366 942 q 423 1104 420 1019 l 494 1104 q 444 934 490 990 q 317 878 397 878 z "},"ě":{"ha":617,"x_min":52,"x_max":572,"o":"m 572 340 l 160 340 q 186 183 163 241 q 256 101 210 126 q 377 76 303 76 q 538 104 444 76 l 538 14 q 450 -7 491 -1 q 366 -13 409 -13 q 190 25 258 -13 q 86 150 121 64 q 52 378 52 236 q 123 671 52 577 q 320 765 194 765 q 508 672 443 765 q 572 376 572 579 l 572 340 m 319 686 q 204 626 245 686 q 160 416 163 566 l 469 416 q 450 578 468 519 q 399 662 431 638 q 319 686 367 686 m 410 1122 l 490 1122 l 365 869 l 267 869 l 142 1122 l 222 1122 l 316 923 l 410 1122 z "},"ḝ":{"ha":617,"x_min":52,"x_max":572,"o":"m 317 878 q 189 934 237 878 q 138 1104 142 991 l 208 1104 q 240 981 213 1019 q 317 942 267 942 q 393 981 366 942 q 423 1104 420 1019 l 494 1104 q 444 934 490 990 q 317 878 397 878 m 572 340 l 160 340 q 186 183 163 241 q 256 101 210 126 q 377 76 303 76 q 538 104 444 76 l 538 14 q 450 -7 491 -1 q 366 -13 409 -13 l 351 -13 l 351 -74 q 422 -108 397 -81 q 447 -180 447 -136 q 413 -259 447 -230 q 312 -289 378 -289 q 257 -283 284 -289 q 207 -267 229 -277 l 207 -210 q 310 -235 255 -235 q 382 -177 382 -235 q 309 -117 382 -117 l 288 -117 l 288 -8 q 110 103 168 12 q 52 378 52 195 q 123 671 52 577 q 320 765 194 765 q 508 672 443 765 q 572 376 572 579 l 572 340 m 319 686 q 204 626 245 686 q 160 416 163 566 l 469 416 q 450 578 468 519 q 399 662 431 638 q 319 686 367 686 z "},"ê":{"ha":617,"x_min":52,"x_max":572,"o":"m 572 340 l 160 340 q 186 183 163 241 q 256 101 210 126 q 377 76 303 76 q 538 104 444 76 l 538 14 q 450 -7 491 -1 q 366 -13 409 -13 q 190 25 258 -13 q 86 150 121 64 q 52 378 52 236 q 123 671 52 577 q 320 765 194 765 q 508 672 443 765 q 572 376 572 579 l 572 340 m 319 686 q 204 626 245 686 q 160 416 163 566 l 469 416 q 450 578 468 519 q 399 662 431 638 q 319 686 367 686 m 490 869 l 410 869 l 316 1069 l 222 869 l 142 869 l 267 1122 l 365 1122 l 490 869 z "},"ế":{"ha":617,"x_min":52,"x_max":639,"o":"m 572 340 l 160 340 q 186 183 163 241 q 256 101 210 126 q 377 76 303 76 q 538 104 444 76 l 538 14 q 450 -7 491 -1 q 366 -13 409 -13 q 190 25 258 -13 q 86 150 121 64 q 52 378 52 236 q 123 671 52 577 q 320 765 194 765 q 508 672 443 765 q 572 376 572 579 l 572 340 m 319 686 q 204 626 245 686 q 160 416 163 566 l 469 416 q 450 578 468 519 q 399 662 431 638 q 319 686 367 686 m 544 1297 l 639 1297 l 525 1109 l 449 1109 l 544 1297 m 267 1122 l 365 1122 l 490 869 l 410 869 l 316 1069 l 222 869 l 142 869 l 267 1122 z "},"ệ":{"ha":617,"x_min":52,"x_max":572,"o":"m 572 340 l 160 340 q 186 183 163 241 q 256 101 210 126 q 377 76 303 76 q 538 104 444 76 l 538 14 q 450 -7 491 -1 q 366 -13 409 -13 q 190 25 258 -13 q 86 150 121 64 q 52 378 52 236 q 123 671 52 577 q 320 765 194 765 q 508 672 443 765 q 572 376 572 579 l 572 340 m 319 686 q 204 626 245 686 q 160 416 163 566 l 469 416 q 450 578 468 519 q 399 662 431 638 q 319 686 367 686 m 316 -250 q 266 -232 285 -250 q 247 -182 247 -213 q 266 -132 247 -151 q 316 -113 285 -113 q 366 -132 347 -113 q 385 -182 385 -151 q 366 -232 385 -213 q 316 -250 347 -250 m 490 869 l 410 869 l 316 1069 l 222 869 l 142 869 l 267 1122 l 365 1122 l 490 869 z "},"ề":{"ha":617,"x_min":52,"x_max":572,"o":"m 572 340 l 160 340 q 186 183 163 241 q 256 101 210 126 q 377 76 303 76 q 538 104 444 76 l 538 14 q 450 -7 491 -1 q 366 -13 409 -13 q 190 25 258 -13 q 86 150 121 64 q 52 378 52 236 q 123 671 52 577 q 320 765 194 765 q 508 672 443 765 q 572 376 572 579 l 572 340 m 319 686 q 204 626 245 686 q 160 416 163 566 l 469 416 q 450 578 468 519 q 399 662 431 638 q 319 686 367 686 m 533 1109 l 456 1109 l 343 1297 l 438 1297 l 533 1109 m 267 1122 l 365 1122 l 490 869 l 410 869 l 316 1069 l 222 869 l 142 869 l 267 1122 z "},"ể":{"ha":617,"x_min":52,"x_max":610,"o":"m 572 340 l 160 340 q 186 183 163 241 q 256 101 210 126 q 377 76 303 76 q 538 104 444 76 l 538 14 q 450 -7 491 -1 q 366 -13 409 -13 q 190 25 258 -13 q 86 150 121 64 q 52 378 52 236 q 123 671 52 577 q 320 765 194 765 q 508 672 443 765 q 572 376 572 579 l 572 340 m 319 686 q 204 626 245 686 q 160 416 163 566 l 469 416 q 450 578 468 519 q 399 662 431 638 q 319 686 367 686 m 473 1302 q 575 1282 541 1302 q 610 1226 610 1262 q 595 1186 610 1200 q 551 1158 580 1172 q 515 1135 527 1144 q 501 1109 503 1126 l 436 1109 q 455 1152 438 1138 q 501 1182 471 1167 q 531 1199 521 1191 q 541 1219 541 1207 q 524 1243 541 1235 q 467 1251 508 1251 q 405 1245 437 1251 q 344 1229 372 1240 l 344 1280 q 404 1296 368 1290 q 473 1302 440 1302 m 267 1122 l 365 1122 l 490 869 l 410 869 l 316 1069 l 222 869 l 142 869 l 267 1122 z "},"ễ":{"ha":617,"x_min":52,"x_max":572,"o":"m 572 340 l 160 340 q 186 183 163 241 q 256 101 210 126 q 377 76 303 76 q 538 104 444 76 l 538 14 q 450 -7 491 -1 q 366 -13 409 -13 q 190 25 258 -13 q 86 150 121 64 q 52 378 52 236 q 123 671 52 577 q 320 765 194 765 q 508 672 443 765 q 572 376 572 579 l 572 340 m 319 686 q 204 626 245 686 q 160 416 163 566 l 469 416 q 450 578 468 519 q 399 662 431 638 q 319 686 367 686 m 408 1215 q 464 1227 440 1215 q 513 1264 489 1239 l 513 1193 q 408 1149 473 1149 q 360 1157 383 1149 q 306 1178 337 1164 q 259 1195 277 1190 q 224 1201 242 1201 q 167 1190 192 1201 q 119 1153 143 1178 l 119 1224 q 224 1267 159 1267 q 272 1260 249 1267 q 326 1239 295 1253 q 372 1221 353 1227 q 408 1215 390 1215 m 267 1108 l 365 1108 l 490 870 l 410 870 l 316 1060 l 222 870 l 142 870 l 267 1108 z "},"ȅ":{"ha":617,"x_min":52,"x_max":572,"o":"m 572 340 l 160 340 q 186 183 163 241 q 256 101 210 126 q 377 76 303 76 q 538 104 444 76 l 538 14 q 450 -7 491 -1 q 366 -13 409 -13 q 190 25 258 -13 q 86 150 121 64 q 52 378 52 236 q 123 671 52 577 q 320 765 194 765 q 508 672 443 765 q 572 376 572 579 l 572 340 m 319 686 q 204 626 245 686 q 160 416 163 566 l 469 416 q 450 578 468 519 q 399 662 431 638 q 319 686 367 686 m 170 869 l 93 1122 l 183 1122 l 252 869 l 170 869 m 379 869 l 302 1122 l 393 1122 l 461 869 l 379 869 z "},"ë":{"ha":617,"x_min":52,"x_max":572,"o":"m 572 340 l 160 340 q 186 183 163 241 q 256 101 210 126 q 377 76 303 76 q 538 104 444 76 l 538 14 q 450 -7 491 -1 q 366 -13 409 -13 q 190 25 258 -13 q 86 150 121 64 q 52 378 52 236 q 123 671 52 577 q 320 765 194 765 q 508 672 443 765 q 572 376 572 579 l 572 340 m 319 686 q 204 626 245 686 q 160 416 163 566 l 469 416 q 450 578 468 519 q 399 662 431 638 q 319 686 367 686 m 190 919 q 140 937 158 919 q 121 987 121 956 q 140 1037 121 1018 q 190 1056 158 1056 q 240 1037 221 1056 q 259 987 259 1018 q 240 937 259 956 q 190 919 221 919 m 442 919 q 392 937 410 919 q 373 987 373 956 q 392 1037 373 1018 q 442 1056 410 1056 q 492 1037 473 1056 q 511 987 511 1018 q 492 937 511 956 q 442 919 473 919 z "},"ė":{"ha":617,"x_min":52,"x_max":572,"o":"m 572 340 l 160 340 q 186 183 163 241 q 256 101 210 126 q 377 76 303 76 q 538 104 444 76 l 538 14 q 450 -7 491 -1 q 366 -13 409 -13 q 190 25 258 -13 q 86 150 121 64 q 52 378 52 236 q 123 671 52 577 q 320 765 194 765 q 508 672 443 765 q 572 376 572 579 l 572 340 m 319 686 q 204 626 245 686 q 160 416 163 566 l 469 416 q 450 578 468 519 q 399 662 431 638 q 319 686 367 686 m 316 917 q 261 935 281 917 q 241 987 241 954 q 261 1039 241 1019 q 316 1058 281 1058 q 371 1039 351 1058 q 390 987 390 1019 q 371 935 390 954 q 316 917 351 917 z "},"ẹ":{"ha":617,"x_min":52,"x_max":572,"o":"m 572 340 l 160 340 q 186 183 163 241 q 256 101 210 126 q 377 76 303 76 q 538 104 444 76 l 538 14 q 450 -7 491 -1 q 366 -13 409 -13 q 190 25 258 -13 q 86 150 121 64 q 52 378 52 236 q 123 671 52 577 q 320 765 194 765 q 508 672 443 765 q 572 376 572 579 l 572 340 m 319 686 q 204 626 245 686 q 160 416 163 566 l 469 416 q 450 578 468 519 q 399 662 431 638 q 319 686 367 686 m 316 -250 q 266 -232 285 -250 q 247 -182 247 -213 q 266 -132 247 -151 q 316 -113 285 -113 q 366 -132 347 -113 q 385 -182 385 -151 q 366 -232 385 -213 q 316 -250 347 -250 z "},"è":{"ha":617,"x_min":52,"x_max":572,"o":"m 572 340 l 160 340 q 186 183 163 241 q 256 101 210 126 q 377 76 303 76 q 538 104 444 76 l 538 14 q 450 -7 491 -1 q 366 -13 409 -13 q 190 25 258 -13 q 86 150 121 64 q 52 378 52 236 q 123 671 52 577 q 320 765 194 765 q 508 672 443 765 q 572 376 572 579 l 572 340 m 319 686 q 204 626 245 686 q 160 416 163 566 l 469 416 q 450 578 468 519 q 399 662 431 638 q 319 686 367 686 m 271 869 l 139 1122 l 247 1122 l 361 869 l 271 869 z "},"ẻ":{"ha":617,"x_min":52,"x_max":572,"o":"m 572 340 l 160 340 q 186 183 163 241 q 256 101 210 126 q 377 76 303 76 q 538 104 444 76 l 538 14 q 450 -7 491 -1 q 366 -13 409 -13 q 190 25 258 -13 q 86 150 121 64 q 52 378 52 236 q 123 671 52 577 q 320 765 194 765 q 508 672 443 765 q 572 376 572 579 l 572 340 m 319 686 q 204 626 245 686 q 160 416 163 566 l 469 416 q 450 578 468 519 q 399 662 431 638 q 319 686 367 686 m 282 869 q 291 915 283 896 q 311 946 300 934 q 342 975 323 958 q 370 1002 361 992 q 379 1028 379 1013 q 363 1063 379 1052 q 308 1074 346 1074 q 258 1070 284 1074 q 210 1058 231 1066 l 210 1113 q 259 1126 231 1121 q 314 1131 287 1131 q 415 1106 381 1131 q 448 1035 448 1081 q 435 985 448 1003 q 396 945 422 966 q 361 910 372 926 q 349 869 349 894 l 282 869 z "},"ȇ":{"ha":617,"x_min":52,"x_max":572,"o":"m 572 340 l 160 340 q 186 183 163 241 q 256 101 210 126 q 377 76 303 76 q 538 104 444 76 l 538 14 q 450 -7 491 -1 q 366 -13 409 -13 q 190 25 258 -13 q 86 150 121 64 q 52 378 52 236 q 123 671 52 577 q 320 765 194 765 q 508 672 443 765 q 572 376 572 579 l 572 340 m 319 686 q 204 626 245 686 q 160 416 163 566 l 469 416 q 450 578 468 519 q 399 662 431 638 q 319 686 367 686 m 138 889 q 188 1060 142 1005 q 315 1115 233 1115 q 443 1059 395 1115 q 494 889 490 1003 l 423 889 q 391 1013 418 975 q 315 1051 365 1051 q 238 1013 264 1051 q 208 889 211 975 l 138 889 z "},"ē":{"ha":617,"x_min":52,"x_max":572,"o":"m 572 340 l 160 340 q 186 183 163 241 q 256 101 210 126 q 377 76 303 76 q 538 104 444 76 l 538 14 q 450 -7 491 -1 q 366 -13 409 -13 q 190 25 258 -13 q 86 150 121 64 q 52 378 52 236 q 123 671 52 577 q 320 765 194 765 q 508 672 443 765 q 572 376 572 579 l 572 340 m 319 686 q 204 626 245 686 q 160 416 163 566 l 469 416 q 450 578 468 519 q 399 662 431 638 q 319 686 367 686 m 123 950 l 123 1025 l 509 1025 l 509 950 l 123 950 z "},"ḗ":{"ha":617,"x_min":52,"x_max":572,"o":"m 572 340 l 160 340 q 186 183 163 241 q 256 101 210 126 q 377 76 303 76 q 538 104 444 76 l 538 14 q 450 -7 491 -1 q 366 -13 409 -13 q 190 25 258 -13 q 86 150 121 64 q 52 378 52 236 q 123 671 52 577 q 320 765 194 765 q 508 672 443 765 q 572 376 572 579 l 572 340 m 319 686 q 204 626 245 686 q 160 416 163 566 l 469 416 q 450 578 468 519 q 399 662 431 638 q 319 686 367 686 m 123 950 l 123 1025 l 509 1025 l 509 950 l 123 950 m 270 1153 l 365 1350 l 475 1350 l 362 1153 l 270 1153 z "},"ḕ":{"ha":617,"x_min":52,"x_max":572,"o":"m 572 340 l 160 340 q 186 183 163 241 q 256 101 210 126 q 377 76 303 76 q 538 104 444 76 l 538 14 q 450 -7 491 -1 q 366 -13 409 -13 q 190 25 258 -13 q 86 150 121 64 q 52 378 52 236 q 123 671 52 577 q 320 765 194 765 q 508 672 443 765 q 572 376 572 579 l 572 340 m 319 686 q 204 626 245 686 q 160 416 163 566 l 469 416 q 450 578 468 519 q 399 662 431 638 q 319 686 367 686 m 123 950 l 123 1025 l 509 1025 l 509 950 l 123 950 m 270 1153 l 156 1350 l 267 1350 l 362 1153 l 270 1153 z "},"ę":{"ha":617,"x_min":52,"x_max":572,"o":"m 572 340 l 160 340 q 186 183 163 241 q 256 101 210 126 q 377 76 303 76 q 538 104 444 76 l 538 14 q 403 -65 440 -22 q 367 -156 367 -108 q 388 -214 367 -194 q 447 -234 408 -234 q 538 -207 492 -234 l 538 -262 q 439 -289 496 -289 q 335 -256 372 -289 q 298 -162 298 -222 q 383 -12 298 -71 q 366 -13 377 -13 q 190 25 258 -13 q 86 150 121 64 q 52 378 52 236 q 123 671 52 577 q 320 765 194 765 q 508 672 443 765 q 572 376 572 579 l 572 340 m 319 684 q 204 624 245 684 q 160 414 163 564 l 469 414 q 450 576 468 517 q 399 660 431 636 q 319 684 367 684 z "},"ẽ":{"ha":617,"x_min":52,"x_max":572,"o":"m 572 340 l 160 340 q 186 183 163 241 q 256 101 210 126 q 377 76 303 76 q 538 104 444 76 l 538 14 q 450 -7 491 -1 q 366 -13 409 -13 q 190 25 258 -13 q 86 150 121 64 q 52 378 52 236 q 123 671 52 577 q 320 765 194 765 q 508 672 443 765 q 572 376 572 579 l 572 340 m 319 686 q 204 626 245 686 q 160 416 163 566 l 469 416 q 450 578 468 519 q 399 662 431 638 q 319 686 367 686 m 405 935 q 359 942 381 935 q 306 965 338 950 q 262 985 281 978 q 226 992 244 992 q 171 979 195 992 q 123 939 147 966 l 123 1018 q 226 1065 162 1065 q 273 1057 251 1065 q 326 1034 296 1049 q 370 1014 353 1021 q 406 1008 388 1008 q 461 1020 436 1008 q 509 1061 485 1033 l 509 981 q 405 935 469 935 z "},"ə":{"ha":617,"x_min":44,"x_max":565,"o":"m 251 767 q 427 728 358 767 q 530 603 496 690 q 565 376 565 517 q 494 82 565 176 q 297 -12 423 -12 q 109 81 174 -12 q 44 378 44 174 l 44 413 l 456 413 q 431 570 454 513 q 360 652 407 628 q 240 677 314 677 q 79 649 173 677 l 79 740 q 167 760 126 754 q 251 767 208 767 m 297 67 q 413 127 372 67 q 456 338 454 188 l 147 338 q 167 175 149 235 q 218 91 185 115 q 297 67 250 67 z "},"f":{"ha":423,"x_min":6,"x_max":458,"o":"m 380 1046 q 273 1012 308 1046 q 238 904 238 978 l 238 753 l 433 753 l 433 666 l 238 666 l 238 0 l 133 0 l 133 666 l 6 666 l 6 753 l 133 753 l 133 901 q 193 1076 133 1016 q 370 1136 253 1136 q 458 1128 419 1136 l 458 1038 q 380 1046 416 1046 z "},"g":{"ha":669,"x_min":52,"x_max":582,"o":"m 281 -319 q 186 -312 235 -319 q 98 -291 137 -305 l 98 -200 q 274 -231 189 -231 q 387 -209 343 -231 q 454 -140 431 -188 q 476 -11 476 -92 l 476 73 l 469 73 q 400 13 444 36 q 300 -11 356 -11 q 175 25 231 -11 q 86 144 119 61 q 52 362 52 228 q 138 666 52 567 q 392 765 224 765 q 491 757 439 765 q 582 735 544 749 l 582 3 q 507 -243 582 -167 q 281 -319 433 -319 m 333 81 q 416 102 376 81 q 476 163 455 124 l 476 667 q 432 675 457 672 q 385 678 407 678 q 217 607 274 678 q 161 372 161 535 q 183 194 161 258 q 242 106 204 131 q 333 81 279 81 z "},"ǵ":{"ha":669,"x_min":52,"x_max":582,"o":"m 281 -319 q 186 -312 235 -319 q 98 -291 137 -305 l 98 -200 q 274 -231 189 -231 q 387 -209 343 -231 q 454 -140 431 -188 q 476 -11 476 -92 l 476 73 l 469 73 q 400 13 444 36 q 300 -11 356 -11 q 175 25 231 -11 q 86 144 119 61 q 52 362 52 228 q 138 666 52 567 q 392 765 224 765 q 491 757 439 765 q 582 735 544 749 l 582 3 q 507 -243 582 -167 q 281 -319 433 -319 m 333 81 q 416 102 376 81 q 476 163 455 124 l 476 667 q 432 675 457 672 q 385 678 407 678 q 217 607 274 678 q 161 372 161 535 q 183 194 161 258 q 242 106 204 131 q 333 81 279 81 m 303 869 l 417 1122 l 524 1122 l 393 869 l 303 869 z "},"ğ":{"ha":669,"x_min":52,"x_max":582,"o":"m 281 -319 q 186 -312 235 -319 q 98 -291 137 -305 l 98 -200 q 274 -231 189 -231 q 387 -209 343 -231 q 454 -140 431 -188 q 476 -11 476 -92 l 476 73 l 469 73 q 400 13 444 36 q 300 -11 356 -11 q 175 25 231 -11 q 86 144 119 61 q 52 362 52 228 q 138 666 52 567 q 392 765 224 765 q 491 757 439 765 q 582 735 544 749 l 582 3 q 507 -243 582 -167 q 281 -319 433 -319 m 333 81 q 416 102 376 81 q 476 163 455 124 l 476 667 q 432 675 457 672 q 385 678 407 678 q 217 607 274 678 q 161 372 161 535 q 183 194 161 258 q 242 106 204 131 q 333 81 279 81 m 349 878 q 221 934 269 878 q 169 1104 174 991 l 240 1104 q 272 981 245 1019 q 349 942 299 942 q 425 981 398 942 q 455 1104 452 1019 l 526 1104 q 476 934 522 990 q 349 878 429 878 z "},"ǧ":{"ha":669,"x_min":52,"x_max":582,"o":"m 281 -319 q 186 -312 235 -319 q 98 -291 137 -305 l 98 -200 q 274 -231 189 -231 q 387 -209 343 -231 q 454 -140 431 -188 q 476 -11 476 -92 l 476 73 l 469 73 q 400 13 444 36 q 300 -11 356 -11 q 175 25 231 -11 q 86 144 119 61 q 52 362 52 228 q 138 666 52 567 q 392 765 224 765 q 491 757 439 765 q 582 735 544 749 l 582 3 q 507 -243 582 -167 q 281 -319 433 -319 m 333 81 q 416 102 376 81 q 476 163 455 124 l 476 667 q 432 675 457 672 q 385 678 407 678 q 217 607 274 678 q 161 372 161 535 q 183 194 161 258 q 242 106 204 131 q 333 81 279 81 m 442 1122 l 522 1122 l 397 869 l 299 869 l 174 1122 l 253 1122 l 348 923 l 442 1122 z "},"ĝ":{"ha":669,"x_min":52,"x_max":582,"o":"m 281 -319 q 186 -312 235 -319 q 98 -291 137 -305 l 98 -200 q 274 -231 189 -231 q 387 -209 343 -231 q 454 -140 431 -188 q 476 -11 476 -92 l 476 73 l 469 73 q 400 13 444 36 q 300 -11 356 -11 q 175 25 231 -11 q 86 144 119 61 q 52 362 52 228 q 138 666 52 567 q 392 765 224 765 q 491 757 439 765 q 582 735 544 749 l 582 3 q 507 -243 582 -167 q 281 -319 433 -319 m 333 81 q 416 102 376 81 q 476 163 455 124 l 476 667 q 432 675 457 672 q 385 678 407 678 q 217 607 274 678 q 161 372 161 535 q 183 194 161 258 q 242 106 204 131 q 333 81 279 81 m 522 869 l 442 869 l 348 1069 l 253 869 l 174 869 l 299 1122 l 397 1122 l 522 869 z "},"ģ":{"ha":669,"x_min":52,"x_max":582,"o":"m 281 -319 q 186 -312 235 -319 q 98 -291 137 -305 l 98 -200 q 274 -231 189 -231 q 387 -209 343 -231 q 454 -140 431 -188 q 476 -11 476 -92 l 476 73 l 469 73 q 400 13 444 36 q 300 -11 356 -11 q 175 25 231 -11 q 86 144 119 61 q 52 362 52 228 q 138 666 52 567 q 392 765 224 765 q 491 757 439 765 q 582 735 544 749 l 582 3 q 507 -243 582 -167 q 281 -319 433 -319 m 333 81 q 416 102 376 81 q 476 163 455 124 l 476 667 q 432 675 457 672 q 385 678 407 678 q 217 607 274 678 q 161 372 161 535 q 183 194 161 258 q 242 106 204 131 q 333 81 279 81 m 355 1031 q 401 1013 385 1028 q 417 973 417 998 q 400 932 417 947 q 350 917 382 917 q 296 936 315 917 q 278 993 278 956 q 288 1060 278 1023 q 317 1128 299 1097 l 384 1128 q 355 1031 360 1076 z "},"ġ":{"ha":669,"x_min":52,"x_max":582,"o":"m 281 -319 q 186 -312 235 -319 q 98 -291 137 -305 l 98 -200 q 274 -231 189 -231 q 387 -209 343 -231 q 454 -140 431 -188 q 476 -11 476 -92 l 476 73 l 469 73 q 400 13 444 36 q 300 -11 356 -11 q 175 25 231 -11 q 86 144 119 61 q 52 362 52 228 q 138 666 52 567 q 392 765 224 765 q 491 757 439 765 q 582 735 544 749 l 582 3 q 507 -243 582 -167 q 281 -319 433 -319 m 333 81 q 416 102 376 81 q 476 163 455 124 l 476 667 q 432 675 457 672 q 385 678 407 678 q 217 607 274 678 q 161 372 161 535 q 183 194 161 258 q 242 106 204 131 q 333 81 279 81 m 348 917 q 293 935 313 917 q 273 987 273 954 q 293 1039 273 1019 q 348 1058 313 1058 q 403 1039 383 1058 q 422 987 422 1019 q 403 935 422 954 q 348 917 383 917 z "},"ḡ":{"ha":669,"x_min":52,"x_max":582,"o":"m 281 -319 q 186 -312 235 -319 q 98 -291 137 -305 l 98 -200 q 274 -231 189 -231 q 387 -209 343 -231 q 454 -140 431 -188 q 476 -11 476 -92 l 476 73 l 469 73 q 400 13 444 36 q 300 -11 356 -11 q 175 25 231 -11 q 86 144 119 61 q 52 362 52 228 q 138 666 52 567 q 392 765 224 765 q 491 757 439 765 q 582 735 544 749 l 582 3 q 507 -243 582 -167 q 281 -319 433 -319 m 333 81 q 416 102 376 81 q 476 163 455 124 l 476 667 q 432 675 457 672 q 385 678 407 678 q 217 607 274 678 q 161 372 161 535 q 183 194 161 258 q 242 106 204 131 q 333 81 279 81 m 155 950 l 155 1025 l 541 1025 l 541 950 l 155 950 z "},"h":{"ha":676,"x_min":88,"x_max":594,"o":"m 88 1122 l 194 1122 l 194 669 l 200 669 q 286 741 237 717 q 397 765 336 765 q 541 709 488 765 q 594 524 594 652 l 594 0 l 489 0 l 489 519 q 456 634 489 600 q 363 667 424 667 q 270 644 317 667 q 194 569 222 620 l 194 0 l 88 0 l 88 1122 z "},"ħ":{"ha":676,"x_min":3,"x_max":594,"o":"m 397 765 q 541 709 488 765 q 594 524 594 652 l 594 0 l 489 0 l 489 519 q 456 634 489 600 q 363 667 424 667 q 270 644 317 667 q 194 569 222 620 l 194 0 l 88 0 l 88 901 l 3 901 l 3 980 l 88 980 l 88 1122 l 194 1122 l 194 980 l 390 980 l 390 901 l 194 901 l 194 669 l 200 669 q 286 741 237 717 q 397 765 336 765 z "},"ḫ":{"ha":676,"x_min":88,"x_max":594,"o":"m 88 1122 l 194 1122 l 194 669 l 200 669 q 286 741 237 717 q 397 765 336 765 q 541 709 488 765 q 594 524 594 652 l 594 0 l 489 0 l 489 519 q 456 634 489 600 q 363 667 424 667 q 270 644 317 667 q 194 569 222 620 l 194 0 l 88 0 l 88 1122 m 342 -292 q 213 -244 261 -292 q 163 -108 165 -196 l 234 -108 q 265 -198 237 -168 q 342 -228 292 -228 q 420 -198 393 -228 q 449 -108 448 -168 l 520 -108 q 471 -244 518 -197 q 342 -292 424 -292 z "},"ĥ":{"ha":676,"x_min":88,"x_max":594,"o":"m 88 1122 l 194 1122 l 194 669 l 200 669 q 286 741 237 717 q 397 765 336 765 q 541 709 488 765 q 594 524 594 652 l 594 0 l 489 0 l 489 519 q 456 634 489 600 q 363 667 424 667 q 270 644 317 667 q 194 569 222 620 l 194 0 l 88 0 l 88 1122 m 526 1183 l 443 1183 l 342 1335 l 240 1183 l 157 1183 l 292 1381 l 391 1381 l 526 1183 z "},"ḥ":{"ha":676,"x_min":88,"x_max":594,"o":"m 88 1122 l 194 1122 l 194 669 l 200 669 q 286 741 237 717 q 397 765 336 765 q 541 709 488 765 q 594 524 594 652 l 594 0 l 489 0 l 489 519 q 456 634 489 600 q 363 667 424 667 q 270 644 317 667 q 194 569 222 620 l 194 0 l 88 0 l 88 1122 m 342 -250 q 291 -232 310 -250 q 272 -182 272 -213 q 291 -132 272 -151 q 342 -113 310 -113 q 391 -132 372 -113 q 410 -182 410 -151 q 392 -232 410 -213 q 342 -250 373 -250 z "},"i":{"ha":282,"x_min":66,"x_max":215,"o":"m 88 0 l 88 753 l 194 753 l 194 0 l 88 0 m 141 917 q 86 935 106 917 q 66 987 66 954 q 86 1039 66 1019 q 141 1058 106 1058 q 196 1039 176 1058 q 215 987 215 1019 q 196 935 215 954 q 141 917 176 917 z "},"ı":{"ha":282,"x_min":88,"x_max":194,"o":"m 88 0 l 88 753 l 194 753 l 194 0 l 88 0 z "},"í":{"ha":282,"x_min":88,"x_max":317,"o":"m 88 0 l 88 753 l 194 753 l 194 0 l 88 0 m 96 869 l 210 1122 l 317 1122 l 186 869 l 96 869 z "},"ĭ":{"ha":282,"x_min":-37,"x_max":319,"o":"m 88 0 l 88 753 l 194 753 l 194 0 l 88 0 m 142 878 q 14 934 62 878 q -37 1104 -33 991 l 33 1104 q 65 981 38 1019 q 142 942 92 942 q 218 981 191 942 q 248 1104 245 1019 l 319 1104 q 269 934 315 990 q 142 878 222 878 z "},"î":{"ha":282,"x_min":-33,"x_max":315,"o":"m 88 0 l 88 753 l 194 753 l 194 0 l 88 0 m 315 869 l 235 869 l 141 1069 l 47 869 l -33 869 l 92 1122 l 190 1122 l 315 869 z "},"ȉ":{"ha":282,"x_min":-82,"x_max":286,"o":"m 88 0 l 88 753 l 194 753 l 194 0 l 88 0 m -5 869 l -82 1122 l 8 1122 l 77 869 l -5 869 m 204 869 l 127 1122 l 218 1122 l 286 869 l 204 869 z "},"ï":{"ha":282,"x_min":-54,"x_max":336,"o":"m 88 0 l 88 753 l 194 753 l 194 0 l 88 0 m 15 919 q -35 937 -17 919 q -54 987 -54 956 q -35 1037 -54 1018 q 15 1056 -17 1056 q 65 1037 46 1056 q 84 987 84 1018 q 65 937 84 956 q 15 919 46 919 m 267 919 q 217 937 235 919 q 198 987 198 956 q 217 1037 198 1018 q 267 1056 235 1056 q 317 1037 298 1056 q 336 987 336 1018 q 317 937 336 956 q 267 919 298 919 z "},"ḯ":{"ha":282,"x_min":-54,"x_max":336,"o":"m 88 0 l 88 753 l 194 753 l 194 0 l 88 0 m 15 919 q -35 937 -17 919 q -54 987 -54 956 q -35 1037 -54 1018 q 15 1056 -17 1056 q 65 1037 46 1056 q 84 987 84 1018 q 65 937 84 956 q 15 919 46 919 m 267 919 q 217 937 235 919 q 198 987 198 956 q 217 1037 198 1018 q 267 1056 235 1056 q 317 1037 298 1056 q 336 987 336 1018 q 317 937 336 956 q 267 919 298 919 m 95 1153 l 190 1350 l 300 1350 l 187 1153 l 95 1153 z "},"ị":{"ha":282,"x_min":66,"x_max":215,"o":"m 88 0 l 88 753 l 194 753 l 194 0 l 88 0 m 141 917 q 86 935 106 917 q 66 987 66 954 q 86 1039 66 1019 q 141 1058 106 1058 q 196 1039 176 1058 q 215 987 215 1019 q 196 935 215 954 q 141 917 176 917 m 141 -250 q 91 -232 110 -250 q 72 -182 72 -213 q 91 -132 72 -151 q 141 -113 110 -113 q 191 -132 172 -113 q 210 -182 210 -151 q 191 -232 210 -213 q 141 -250 172 -250 z "},"ì":{"ha":282,"x_min":-36,"x_max":194,"o":"m 88 0 l 88 753 l 194 753 l 194 0 l 88 0 m 96 869 l -36 1122 l 72 1122 l 186 869 l 96 869 z "},"ỉ":{"ha":282,"x_min":35,"x_max":273,"o":"m 88 0 l 88 753 l 194 753 l 194 0 l 88 0 m 107 869 q 116 915 108 896 q 136 946 125 934 q 167 975 148 958 q 195 1002 186 992 q 204 1028 204 1013 q 188 1063 204 1052 q 133 1074 171 1074 q 83 1070 109 1074 q 35 1058 56 1066 l 35 1113 q 84 1126 56 1121 q 139 1131 112 1131 q 240 1106 206 1131 q 273 1035 273 1081 q 260 985 273 1003 q 221 945 247 966 q 186 910 197 926 q 174 869 174 894 l 107 869 z "},"ȋ":{"ha":282,"x_min":-37,"x_max":319,"o":"m 88 0 l 88 753 l 194 753 l 194 0 l 88 0 m -37 889 q 13 1060 -33 1005 q 140 1115 58 1115 q 268 1059 220 1115 q 319 889 315 1003 l 248 889 q 216 1013 243 975 q 140 1051 190 1051 q 63 1013 89 1051 q 33 889 36 975 l -37 889 z "},"ī":{"ha":282,"x_min":-52,"x_max":334,"o":"m 88 0 l 88 753 l 194 753 l 194 0 l 88 0 m -52 950 l -52 1025 l 334 1025 l 334 950 l -52 950 z "},"į":{"ha":282,"x_min":4,"x_max":244,"o":"m 141 917 q 86 935 106 917 q 66 987 66 954 q 86 1039 66 1019 q 141 1058 106 1058 q 196 1039 176 1058 q 215 987 215 1019 q 196 935 215 954 q 141 917 176 917 m 153 -234 q 244 -207 198 -234 l 244 -262 q 145 -289 201 -289 q 41 -256 78 -289 q 4 -162 4 -222 q 26 -77 4 -117 q 98 0 49 -37 l 88 0 l 88 753 l 194 753 l 194 0 q 100 -77 128 -40 q 72 -156 72 -114 q 93 -214 72 -194 q 153 -234 115 -234 z "},"ĩ":{"ha":282,"x_min":-52,"x_max":334,"o":"m 88 0 l 88 753 l 194 753 l 194 0 l 88 0 m 230 935 q 184 942 206 935 q 131 965 163 950 q 87 985 106 978 q 51 992 69 992 q -4 979 20 992 q -52 939 -28 966 l -52 1018 q 51 1065 -13 1065 q 98 1057 76 1065 q 151 1034 121 1049 q 195 1014 178 1021 q 231 1008 213 1008 q 286 1020 261 1008 q 334 1061 310 1033 l 334 981 q 230 935 294 935 z "},"j":{"ha":282,"x_min":-24,"x_max":215,"o":"m -24 -274 q 63 -92 38 -178 q 88 118 88 -5 l 88 753 l 194 753 l 194 126 q 179 -41 194 33 q 132 -182 164 -115 q 48 -322 101 -249 l -24 -274 m 141 917 q 86 935 106 917 q 66 987 66 954 q 86 1039 66 1019 q 141 1058 106 1058 q 196 1039 176 1058 q 215 987 215 1019 q 196 935 215 954 q 141 917 176 917 z "},"ȷ":{"ha":282,"x_min":-24,"x_max":194,"o":"m -24 -274 q 63 -92 38 -178 q 88 118 88 -5 l 88 753 l 194 753 l 194 126 q 179 -41 194 33 q 132 -182 164 -115 q 48 -322 101 -249 l -24 -274 z "},"ĵ":{"ha":282,"x_min":-33,"x_max":315,"o":"m -24 -274 q 63 -92 38 -178 q 88 118 88 -5 l 88 753 l 194 753 l 194 126 q 179 -41 194 33 q 132 -182 164 -115 q 48 -322 101 -249 l -24 -274 m 315 869 l 235 869 l 141 1069 l 47 869 l -33 869 l 92 1122 l 190 1122 l 315 869 z "},"k":{"ha":625,"x_min":88,"x_max":645,"o":"m 527 0 l 291 342 l 194 342 l 194 0 l 88 0 l 88 1122 l 194 1122 l 194 430 l 290 430 l 507 753 l 622 753 l 379 388 l 645 0 l 527 0 z "},"ķ":{"ha":625,"x_min":88,"x_max":645,"o":"m 527 0 l 291 342 l 194 342 l 194 0 l 88 0 l 88 1122 l 194 1122 l 194 430 l 290 430 l 507 753 l 622 753 l 379 388 l 645 0 l 527 0 m 342 -113 q 413 -189 413 -113 q 403 -256 413 -219 q 375 -324 393 -292 l 308 -324 q 336 -226 331 -272 q 290 -209 306 -224 q 274 -169 274 -194 q 291 -128 274 -143 q 342 -113 309 -113 z "},"ĸ":{"ha":625,"x_min":88,"x_max":645,"o":"m 527 0 l 291 342 l 194 342 l 194 0 l 88 0 l 88 753 l 194 753 l 194 430 l 290 430 l 507 753 l 622 753 l 379 388 l 645 0 l 527 0 z "},"l":{"ha":281,"x_min":88,"x_max":194,"o":"m 88 0 l 88 1122 l 194 1122 l 194 0 l 88 0 z "},"ĺ":{"ha":281,"x_min":88,"x_max":300,"o":"m 88 0 l 88 1122 l 194 1122 l 194 0 l 88 0 m 95 1183 l 190 1381 l 300 1381 l 187 1183 l 95 1183 z "},"ľ":{"ha":281,"x_min":88,"x_max":339,"o":"m 88 0 l 88 1122 l 194 1122 l 194 0 l 88 0 m 244 819 q 259 1122 259 942 l 339 1122 q 331 965 339 1044 q 306 819 323 886 l 244 819 z "},"ļ":{"ha":281,"x_min":71,"x_max":210,"o":"m 88 0 l 88 1122 l 194 1122 l 194 0 l 88 0 m 139 -113 q 210 -189 210 -113 q 200 -256 210 -219 q 172 -324 190 -292 l 105 -324 q 133 -226 128 -272 q 87 -209 103 -224 q 71 -169 71 -194 q 89 -128 71 -143 q 139 -113 106 -113 z "},"ŀ":{"ha":359,"x_min":88,"x_max":392,"o":"m 88 0 l 88 1122 l 194 1122 l 194 0 l 88 0 m 317 481 q 262 499 281 481 q 242 551 242 517 q 262 602 242 583 q 317 622 281 622 q 372 602 353 622 q 392 551 392 583 q 372 499 392 517 q 317 481 353 481 z "},"ḷ":{"ha":281,"x_min":72,"x_max":210,"o":"m 88 0 l 88 1122 l 194 1122 l 194 0 l 88 0 m 141 -250 q 91 -232 110 -250 q 72 -182 72 -213 q 91 -132 72 -151 q 141 -113 110 -113 q 191 -132 172 -113 q 210 -182 210 -151 q 191 -232 210 -213 q 141 -250 172 -250 z "},"ǉ":{"ha":563,"x_min":88,"x_max":497,"o":"m 88 0 l 88 1122 l 194 1122 l 194 0 l 88 0 m 257 -274 q 344 -92 319 -178 q 369 118 369 -5 l 369 753 l 475 753 l 475 126 q 460 -41 475 33 q 414 -182 445 -115 q 329 -322 382 -249 l 257 -274 m 422 917 q 367 935 387 917 q 347 987 347 954 q 367 1039 347 1019 q 422 1058 387 1058 q 477 1039 458 1058 q 497 987 497 1019 q 477 935 497 954 q 422 917 458 917 z "},"ḻ":{"ha":281,"x_min":-37,"x_max":319,"o":"m 88 0 l 88 1122 l 194 1122 l 194 0 l 88 0 m -37 -218 l -37 -144 l 319 -144 l 319 -218 l -37 -218 z "},"ł":{"ha":300,"x_min":-5,"x_max":305,"o":"m 305 570 l 203 491 l 203 0 l 97 0 l 97 408 l 35 360 l -5 422 l 97 501 l 97 1122 l 203 1122 l 203 583 l 265 631 l 305 570 z "},"m":{"ha":1040,"x_min":88,"x_max":958,"o":"m 760 765 q 904 709 850 765 q 958 523 958 652 l 958 0 l 852 0 l 852 519 q 731 669 852 669 q 647 645 690 669 q 574 571 603 622 q 576 527 576 550 l 576 0 l 472 0 l 472 519 q 441 634 472 599 q 354 669 410 669 q 266 644 311 669 q 194 566 222 619 l 194 0 l 88 0 l 88 753 l 177 753 l 185 669 l 192 669 q 280 741 231 717 q 387 765 329 765 q 554 659 512 765 q 650 740 596 714 q 760 765 703 765 z "},"ṃ":{"ha":1040,"x_min":88,"x_max":958,"o":"m 760 765 q 904 709 850 765 q 958 523 958 652 l 958 0 l 852 0 l 852 519 q 731 669 852 669 q 647 645 690 669 q 574 571 603 622 q 576 527 576 550 l 576 0 l 472 0 l 472 519 q 441 634 472 599 q 354 669 410 669 q 266 644 311 669 q 194 566 222 619 l 194 0 l 88 0 l 88 753 l 177 753 l 185 669 l 192 669 q 280 741 231 717 q 387 765 329 765 q 554 659 512 765 q 650 740 596 714 q 760 765 703 765 m 524 -250 q 474 -232 493 -250 q 455 -182 455 -213 q 474 -132 455 -151 q 524 -113 493 -113 q 574 -132 555 -113 q 593 -182 593 -151 q 574 -232 593 -213 q 524 -250 556 -250 z "},"n":{"ha":676,"x_min":88,"x_max":594,"o":"m 88 753 l 177 753 l 185 669 l 192 669 q 281 741 231 716 q 392 765 332 765 q 540 709 486 765 q 594 526 594 653 l 594 0 l 489 0 l 489 520 q 456 634 489 600 q 363 669 424 669 q 270 644 317 669 q 194 569 223 620 l 194 0 l 88 0 l 88 753 z "},"ń":{"ha":676,"x_min":88,"x_max":594,"o":"m 88 753 l 177 753 l 185 669 l 192 669 q 281 741 231 716 q 392 765 332 765 q 540 709 486 765 q 594 526 594 653 l 594 0 l 489 0 l 489 520 q 456 634 489 600 q 363 669 424 669 q 270 644 317 669 q 194 569 223 620 l 194 0 l 88 0 l 88 753 m 297 869 l 410 1122 l 518 1122 l 387 869 l 297 869 z "},"ŉ":{"ha":676,"x_min":7,"x_max":594,"o":"m 88 753 l 177 753 l 185 669 l 192 669 q 281 741 231 716 q 392 765 332 765 q 540 709 486 765 q 594 526 594 653 l 594 0 l 489 0 l 489 520 q 456 634 489 600 q 363 669 424 669 q 270 644 317 669 q 194 569 223 620 l 194 0 l 88 0 l 88 753 m 74 1128 q 128 1108 110 1128 q 147 1052 147 1089 q 136 985 147 1022 q 108 917 126 949 l 41 917 q 69 1015 64 969 q 23 1032 39 1017 q 7 1072 7 1047 q 25 1113 7 1098 q 74 1128 42 1128 z "},"ň":{"ha":676,"x_min":88,"x_max":594,"o":"m 88 753 l 177 753 l 185 669 l 192 669 q 281 741 231 716 q 392 765 332 765 q 540 709 486 765 q 594 526 594 653 l 594 0 l 489 0 l 489 520 q 456 634 489 600 q 363 669 424 669 q 270 644 317 669 q 194 569 223 620 l 194 0 l 88 0 l 88 753 m 436 1122 l 516 1122 l 391 869 l 292 869 l 167 1122 l 247 1122 l 342 923 l 436 1122 z "},"ņ":{"ha":676,"x_min":88,"x_max":594,"o":"m 88 753 l 177 753 l 185 669 l 192 669 q 281 741 231 716 q 392 765 332 765 q 540 709 486 765 q 594 526 594 653 l 594 0 l 489 0 l 489 520 q 456 634 489 600 q 363 669 424 669 q 270 644 317 669 q 194 569 223 620 l 194 0 l 88 0 l 88 753 m 340 -113 q 411 -189 411 -113 q 401 -256 411 -219 q 373 -324 391 -292 l 306 -324 q 334 -226 328 -272 q 288 -209 304 -224 q 272 -169 272 -194 q 289 -128 272 -143 q 340 -113 307 -113 z "},"ṅ":{"ha":676,"x_min":88,"x_max":594,"o":"m 88 753 l 177 753 l 185 669 l 192 669 q 281 741 231 716 q 392 765 332 765 q 540 709 486 765 q 594 526 594 653 l 594 0 l 489 0 l 489 520 q 456 634 489 600 q 363 669 424 669 q 270 644 317 669 q 194 569 223 620 l 194 0 l 88 0 l 88 753 m 342 917 q 286 935 306 917 q 267 987 267 954 q 286 1039 267 1019 q 342 1058 306 1058 q 397 1039 377 1058 q 416 987 416 1019 q 397 935 416 954 q 342 917 377 917 z "},"ṇ":{"ha":676,"x_min":88,"x_max":594,"o":"m 88 753 l 177 753 l 185 669 l 192 669 q 281 741 231 716 q 392 765 332 765 q 540 709 486 765 q 594 526 594 653 l 594 0 l 489 0 l 489 520 q 456 634 489 600 q 363 669 424 669 q 270 644 317 669 q 194 569 223 620 l 194 0 l 88 0 l 88 753 m 342 -250 q 291 -232 310 -250 q 272 -182 272 -213 q 291 -132 272 -151 q 342 -113 310 -113 q 391 -132 372 -113 q 410 -182 410 -151 q 392 -232 410 -213 q 342 -250 373 -250 z "},"ŋ":{"ha":676,"x_min":88,"x_max":594,"o":"m 377 -274 q 464 -92 439 -179 q 489 118 489 -5 l 489 521 q 456 636 489 602 q 363 671 424 671 q 270 647 317 671 q 194 572 222 622 l 194 0 l 88 0 l 88 753 l 177 753 l 185 669 l 192 669 q 283 741 232 717 q 392 765 333 765 q 594 524 594 765 l 594 106 q 558 -118 591 -20 q 449 -322 526 -216 l 377 -274 z "},"ǌ":{"ha":958,"x_min":88,"x_max":892,"o":"m 88 753 l 177 753 l 185 669 l 192 669 q 281 741 231 716 q 392 765 332 765 q 540 709 486 765 q 594 526 594 653 l 594 0 l 489 0 l 489 520 q 456 634 489 600 q 363 669 424 669 q 270 644 317 669 q 194 569 223 620 l 194 0 l 88 0 l 88 753 m 652 -274 q 739 -92 714 -178 q 765 118 765 -5 l 765 753 l 870 753 l 870 126 q 855 -41 870 33 q 809 -182 840 -115 q 724 -322 777 -249 l 652 -274 m 817 917 q 762 935 782 917 q 742 987 742 954 q 762 1039 742 1019 q 817 1058 782 1058 q 872 1039 853 1058 q 892 987 892 1019 q 872 935 892 954 q 817 917 853 917 z "},"ṉ":{"ha":676,"x_min":88,"x_max":594,"o":"m 88 753 l 177 753 l 185 669 l 192 669 q 281 741 231 716 q 392 765 332 765 q 540 709 486 765 q 594 526 594 653 l 594 0 l 489 0 l 489 520 q 456 634 489 600 q 363 669 424 669 q 270 644 317 669 q 194 569 223 620 l 194 0 l 88 0 l 88 753 m 164 -218 l 164 -144 l 519 -144 l 519 -218 l 164 -218 z "},"ñ":{"ha":676,"x_min":88,"x_max":594,"o":"m 88 753 l 177 753 l 185 669 l 192 669 q 281 741 231 716 q 392 765 332 765 q 540 709 486 765 q 594 526 594 653 l 594 0 l 489 0 l 489 520 q 456 634 489 600 q 363 669 424 669 q 270 644 317 669 q 194 569 223 620 l 194 0 l 88 0 l 88 753 m 431 935 q 385 942 407 935 q 331 965 363 950 q 288 985 306 978 q 251 992 269 992 q 197 979 221 992 q 149 939 172 966 l 149 1018 q 252 1065 188 1065 q 299 1057 276 1065 q 352 1034 322 1049 q 396 1014 378 1021 q 431 1008 414 1008 q 486 1020 462 1008 q 535 1061 511 1033 l 535 981 q 431 935 494 935 z "},"o":{"ha":662,"x_min":52,"x_max":610,"o":"m 331 -13 q 52 376 52 -13 q 124 672 52 579 q 331 765 196 765 q 537 672 465 765 q 610 376 610 578 q 538 80 610 174 q 331 -13 466 -13 m 331 73 q 424 100 387 73 q 481 193 460 127 q 501 374 501 259 q 481 558 501 490 q 423 652 460 625 q 331 679 386 679 q 239 652 276 679 q 181 559 201 626 q 161 378 161 493 q 181 194 161 262 q 239 100 201 127 q 331 73 276 73 z "},"ó":{"ha":662,"x_min":52,"x_max":610,"o":"m 331 -13 q 52 376 52 -13 q 124 672 52 579 q 331 765 196 765 q 537 672 465 765 q 610 376 610 578 q 538 80 610 174 q 331 -13 466 -13 m 331 73 q 424 100 387 73 q 481 193 460 127 q 501 374 501 259 q 481 558 501 490 q 423 652 460 625 q 331 679 386 679 q 239 652 276 679 q 181 559 201 626 q 161 378 161 493 q 181 194 161 262 q 239 100 201 127 q 331 73 276 73 m 286 869 l 400 1122 l 508 1122 l 376 869 l 286 869 z "},"ŏ":{"ha":662,"x_min":52,"x_max":610,"o":"m 331 -13 q 52 376 52 -13 q 124 672 52 579 q 331 765 196 765 q 537 672 465 765 q 610 376 610 578 q 538 80 610 174 q 331 -13 466 -13 m 331 73 q 424 100 387 73 q 481 193 460 127 q 501 374 501 259 q 481 558 501 490 q 423 652 460 625 q 331 679 386 679 q 239 652 276 679 q 181 559 201 626 q 161 378 161 493 q 181 194 161 262 q 239 100 201 127 q 331 73 276 73 m 332 878 q 205 934 252 878 q 153 1104 157 991 l 224 1104 q 256 981 228 1019 q 332 942 283 942 q 408 981 381 942 q 438 1104 435 1019 l 510 1104 q 459 934 506 990 q 332 878 413 878 z "},"ô":{"ha":662,"x_min":52,"x_max":610,"o":"m 331 -13 q 52 376 52 -13 q 124 672 52 579 q 331 765 196 765 q 537 672 465 765 q 610 376 610 578 q 538 80 610 174 q 331 -13 466 -13 m 331 73 q 424 100 387 73 q 481 193 460 127 q 501 374 501 259 q 481 558 501 490 q 423 652 460 625 q 331 679 386 679 q 239 652 276 679 q 181 559 201 626 q 161 378 161 493 q 181 194 161 262 q 239 100 201 127 q 331 73 276 73 m 506 869 l 426 869 l 331 1069 l 237 869 l 157 869 l 282 1122 l 381 1122 l 506 869 z "},"ố":{"ha":662,"x_min":52,"x_max":654,"o":"m 331 -13 q 52 376 52 -13 q 124 672 52 579 q 331 765 196 765 q 537 672 465 765 q 610 376 610 578 q 538 80 610 174 q 331 -13 466 -13 m 331 73 q 424 100 387 73 q 481 193 460 127 q 501 374 501 259 q 481 558 501 490 q 423 652 460 625 q 331 679 386 679 q 239 652 276 679 q 181 559 201 626 q 161 378 161 493 q 181 194 161 262 q 239 100 201 127 q 331 73 276 73 m 560 1297 l 654 1297 l 540 1109 l 465 1109 l 560 1297 m 282 1122 l 381 1122 l 506 869 l 426 869 l 331 1069 l 237 869 l 157 869 l 282 1122 z "},"ộ":{"ha":662,"x_min":52,"x_max":610,"o":"m 331 -13 q 52 376 52 -13 q 124 672 52 579 q 331 765 196 765 q 537 672 465 765 q 610 376 610 578 q 538 80 610 174 q 331 -13 466 -13 m 331 73 q 424 100 387 73 q 481 193 460 127 q 501 374 501 259 q 481 558 501 490 q 423 652 460 625 q 331 679 386 679 q 239 652 276 679 q 181 559 201 626 q 161 378 161 493 q 181 194 161 262 q 239 100 201 127 q 331 73 276 73 m 331 -250 q 281 -232 300 -250 q 262 -182 262 -213 q 281 -132 262 -151 q 331 -113 300 -113 q 381 -132 362 -113 q 400 -182 400 -151 q 381 -232 400 -213 q 331 -250 363 -250 m 506 869 l 426 869 l 331 1069 l 237 869 l 157 869 l 282 1122 l 381 1122 l 506 869 z "},"ồ":{"ha":662,"x_min":52,"x_max":610,"o":"m 331 -13 q 52 376 52 -13 q 124 672 52 579 q 331 765 196 765 q 537 672 465 765 q 610 376 610 578 q 538 80 610 174 q 331 -13 466 -13 m 331 73 q 424 100 387 73 q 481 193 460 127 q 501 374 501 259 q 481 558 501 490 q 423 652 460 625 q 331 679 386 679 q 239 652 276 679 q 181 559 201 626 q 161 378 161 493 q 181 194 161 262 q 239 100 201 127 q 331 73 276 73 m 548 1109 l 472 1109 l 358 1297 l 453 1297 l 548 1109 m 282 1122 l 381 1122 l 506 869 l 426 869 l 331 1069 l 237 869 l 157 869 l 282 1122 z "},"ổ":{"ha":662,"x_min":52,"x_max":625,"o":"m 331 -13 q 52 376 52 -13 q 124 672 52 579 q 331 765 196 765 q 537 672 465 765 q 610 376 610 578 q 538 80 610 174 q 331 -13 466 -13 m 331 73 q 424 100 387 73 q 481 193 460 127 q 501 374 501 259 q 481 558 501 490 q 423 652 460 625 q 331 679 386 679 q 239 652 276 679 q 181 559 201 626 q 161 378 161 493 q 181 194 161 262 q 239 100 201 127 q 331 73 276 73 m 488 1302 q 591 1282 556 1302 q 625 1226 625 1262 q 610 1186 625 1200 q 567 1158 595 1172 q 531 1135 542 1144 q 517 1109 519 1126 l 451 1109 q 470 1152 453 1138 q 516 1182 486 1167 q 546 1199 536 1191 q 556 1219 556 1207 q 540 1243 556 1235 q 482 1251 523 1251 q 420 1245 452 1251 q 359 1229 388 1240 l 359 1280 q 419 1296 383 1290 q 488 1302 456 1302 m 282 1122 l 381 1122 l 506 869 l 426 869 l 331 1069 l 237 869 l 157 869 l 282 1122 z "},"ỗ":{"ha":662,"x_min":52,"x_max":610,"o":"m 331 -13 q 52 376 52 -13 q 124 672 52 579 q 331 765 196 765 q 537 672 465 765 q 610 376 610 578 q 538 80 610 174 q 331 -13 466 -13 m 331 73 q 424 100 387 73 q 481 193 460 127 q 501 374 501 259 q 481 558 501 490 q 423 652 460 625 q 331 679 386 679 q 239 652 276 679 q 181 559 201 626 q 161 378 161 493 q 181 194 161 262 q 239 100 201 127 q 331 73 276 73 m 424 1215 q 480 1227 455 1215 q 528 1264 504 1239 l 528 1193 q 423 1149 488 1149 q 375 1157 398 1149 q 321 1178 352 1164 q 275 1195 292 1190 q 239 1201 257 1201 q 183 1190 207 1201 q 135 1153 158 1178 l 135 1224 q 240 1267 174 1267 q 288 1260 265 1267 q 342 1239 310 1253 q 387 1221 369 1227 q 424 1215 406 1215 m 282 1108 l 381 1108 l 506 870 l 426 870 l 331 1060 l 237 870 l 157 870 l 282 1108 z "},"ȍ":{"ha":662,"x_min":52,"x_max":610,"o":"m 331 -13 q 52 376 52 -13 q 124 672 52 579 q 331 765 196 765 q 537 672 465 765 q 610 376 610 578 q 538 80 610 174 q 331 -13 466 -13 m 331 73 q 424 100 387 73 q 481 193 460 127 q 501 374 501 259 q 481 558 501 490 q 423 652 460 625 q 331 679 386 679 q 239 652 276 679 q 181 559 201 626 q 161 378 161 493 q 181 194 161 262 q 239 100 201 127 q 331 73 276 73 m 185 869 l 108 1122 l 199 1122 l 267 869 l 185 869 m 394 869 l 317 1122 l 408 1122 l 476 869 l 394 869 z "},"ö":{"ha":662,"x_min":52,"x_max":610,"o":"m 331 -13 q 52 376 52 -13 q 124 672 52 579 q 331 765 196 765 q 537 672 465 765 q 610 376 610 578 q 538 80 610 174 q 331 -13 466 -13 m 331 73 q 424 100 387 73 q 481 193 460 127 q 501 374 501 259 q 481 558 501 490 q 423 652 460 625 q 331 679 386 679 q 239 652 276 679 q 181 559 201 626 q 161 378 161 493 q 181 194 161 262 q 239 100 201 127 q 331 73 276 73 m 205 919 q 155 937 174 919 q 136 987 136 956 q 155 1037 136 1018 q 205 1056 174 1056 q 255 1037 236 1056 q 274 987 274 1018 q 255 937 274 956 q 205 919 236 919 m 457 919 q 407 937 426 919 q 388 987 388 956 q 407 1037 388 1018 q 457 1056 426 1056 q 507 1037 488 1056 q 526 987 526 1018 q 507 937 526 956 q 457 919 488 919 z "},"ȫ":{"ha":662,"x_min":52,"x_max":610,"o":"m 331 -13 q 52 376 52 -13 q 124 672 52 579 q 331 765 196 765 q 537 672 465 765 q 610 376 610 578 q 538 80 610 174 q 331 -13 466 -13 m 331 73 q 424 100 387 73 q 481 193 460 127 q 501 374 501 259 q 481 558 501 490 q 423 652 460 625 q 331 679 386 679 q 239 652 276 679 q 181 559 201 626 q 161 378 161 493 q 181 194 161 262 q 239 100 201 127 q 331 73 276 73 m 205 919 q 155 937 174 919 q 136 987 136 956 q 155 1037 136 1018 q 205 1056 174 1056 q 255 1037 236 1056 q 274 987 274 1018 q 255 937 274 956 q 205 919 236 919 m 457 919 q 407 937 426 919 q 388 987 388 956 q 407 1037 388 1018 q 457 1056 426 1056 q 507 1037 488 1056 q 526 987 526 1018 q 507 937 526 956 q 457 919 488 919 m 138 1208 l 138 1283 l 524 1283 l 524 1208 l 138 1208 z "},"ȱ":{"ha":662,"x_min":52,"x_max":610,"o":"m 331 -13 q 52 376 52 -13 q 124 672 52 579 q 331 765 196 765 q 537 672 465 765 q 610 376 610 578 q 538 80 610 174 q 331 -13 466 -13 m 331 73 q 424 100 387 73 q 481 193 460 127 q 501 374 501 259 q 481 558 501 490 q 423 652 460 625 q 331 679 386 679 q 239 652 276 679 q 181 559 201 626 q 161 378 161 493 q 181 194 161 262 q 239 100 201 127 q 331 73 276 73 m 331 917 q 276 935 296 917 q 256 987 256 954 q 276 1039 256 1019 q 331 1058 296 1058 q 386 1039 367 1058 q 406 987 406 1019 q 386 935 406 954 q 331 917 367 917 m 138 1162 l 138 1237 l 524 1237 l 524 1162 l 138 1162 z "},"ọ":{"ha":662,"x_min":52,"x_max":610,"o":"m 331 -13 q 52 376 52 -13 q 124 672 52 579 q 331 765 196 765 q 537 672 465 765 q 610 376 610 578 q 538 80 610 174 q 331 -13 466 -13 m 331 73 q 424 100 387 73 q 481 193 460 127 q 501 374 501 259 q 481 558 501 490 q 423 652 460 625 q 331 679 386 679 q 239 652 276 679 q 181 559 201 626 q 161 378 161 493 q 181 194 161 262 q 239 100 201 127 q 331 73 276 73 m 331 -250 q 281 -232 300 -250 q 262 -182 262 -213 q 281 -132 262 -151 q 331 -113 300 -113 q 381 -132 362 -113 q 400 -182 400 -151 q 381 -232 400 -213 q 331 -250 363 -250 z "},"ò":{"ha":662,"x_min":52,"x_max":610,"o":"m 331 -13 q 52 376 52 -13 q 124 672 52 579 q 331 765 196 765 q 537 672 465 765 q 610 376 610 578 q 538 80 610 174 q 331 -13 466 -13 m 331 73 q 424 100 387 73 q 481 193 460 127 q 501 374 501 259 q 481 558 501 490 q 423 652 460 625 q 331 679 386 679 q 239 652 276 679 q 181 559 201 626 q 161 378 161 493 q 181 194 161 262 q 239 100 201 127 q 331 73 276 73 m 286 869 l 154 1122 l 263 1122 l 376 869 l 286 869 z "},"ỏ":{"ha":662,"x_min":52,"x_max":610,"o":"m 331 -13 q 52 376 52 -13 q 124 672 52 579 q 331 765 196 765 q 537 672 465 765 q 610 376 610 578 q 538 80 610 174 q 331 -13 466 -13 m 331 73 q 424 100 387 73 q 481 193 460 127 q 501 374 501 259 q 481 558 501 490 q 423 652 460 625 q 331 679 386 679 q 239 652 276 679 q 181 559 201 626 q 161 378 161 493 q 181 194 161 262 q 239 100 201 127 q 331 73 276 73 m 297 869 q 307 915 298 896 q 327 946 315 934 q 357 975 338 958 q 385 1002 376 992 q 394 1028 394 1013 q 378 1063 394 1052 q 324 1074 361 1074 q 273 1070 299 1074 q 225 1058 247 1066 l 225 1113 q 274 1126 246 1121 q 329 1131 302 1131 q 430 1106 397 1131 q 463 1035 463 1081 q 450 985 463 1003 q 411 945 437 966 q 376 910 388 926 q 364 869 365 894 l 297 869 z "},"ơ":{"ha":662,"x_min":52,"x_max":629,"o":"m 510 701 q 610 376 610 608 q 538 80 610 174 q 331 -13 466 -13 q 52 376 52 -13 q 124 672 52 579 q 331 765 196 765 q 393 763 356 765 q 432 760 415 760 q 518 788 486 760 q 550 872 550 815 q 546 919 550 897 q 535 969 542 941 l 613 969 q 625 921 622 944 q 629 867 629 897 q 597 757 629 799 q 510 701 565 715 m 331 73 q 424 100 387 73 q 481 193 460 127 q 501 374 501 259 q 481 558 501 490 q 423 652 460 625 q 331 679 386 679 q 239 652 276 679 q 181 559 201 626 q 161 378 161 493 q 181 194 161 262 q 239 100 201 127 q 331 73 276 73 z "},"ớ":{"ha":662,"x_min":52,"x_max":629,"o":"m 497 1122 l 370 869 l 284 869 l 393 1122 l 497 1122 m 510 701 q 610 376 610 608 q 538 80 610 174 q 331 -13 466 -13 q 52 376 52 -13 q 124 672 52 579 q 331 765 196 765 q 393 763 356 765 q 432 760 415 760 q 518 788 486 760 q 550 872 550 815 q 546 919 550 897 q 535 969 542 941 l 613 969 q 625 921 622 944 q 629 867 629 897 q 597 757 629 799 q 510 701 565 715 m 331 73 q 424 100 387 73 q 481 193 460 127 q 501 374 501 259 q 481 558 501 490 q 423 652 460 625 q 331 679 386 679 q 239 652 276 679 q 181 559 201 626 q 161 378 161 493 q 181 194 161 262 q 239 100 201 127 q 331 73 276 73 z "},"ợ":{"ha":662,"x_min":52,"x_max":629,"o":"m 510 701 q 610 376 610 608 q 538 80 610 174 q 331 -13 466 -13 q 52 376 52 -13 q 124 672 52 579 q 331 765 196 765 q 393 763 356 765 q 432 760 415 760 q 518 788 486 760 q 550 872 550 815 q 546 919 550 897 q 535 969 542 941 l 613 969 q 625 921 622 944 q 629 867 629 897 q 597 757 629 799 q 510 701 565 715 m 331 73 q 424 100 387 73 q 481 193 460 127 q 501 374 501 259 q 481 558 501 490 q 423 652 460 625 q 331 679 386 679 q 239 652 276 679 q 181 559 201 626 q 161 378 161 493 q 181 194 161 262 q 239 100 201 127 q 331 73 276 73 m 331 -250 q 281 -232 300 -250 q 262 -182 262 -213 q 281 -132 262 -151 q 331 -113 300 -113 q 381 -132 362 -113 q 400 -182 400 -151 q 381 -232 400 -213 q 331 -250 363 -250 z "},"ờ":{"ha":662,"x_min":52,"x_max":629,"o":"m 510 701 q 610 376 610 608 q 538 80 610 174 q 331 -13 466 -13 q 52 376 52 -13 q 124 672 52 579 q 331 765 196 765 q 393 763 356 765 q 432 760 415 760 q 518 788 486 760 q 550 872 550 815 q 546 919 550 897 q 535 969 542 941 l 613 969 q 625 921 622 944 q 629 867 629 897 q 597 757 629 799 q 510 701 565 715 m 331 73 q 424 100 387 73 q 481 193 460 127 q 501 374 501 259 q 481 558 501 490 q 423 652 460 625 q 331 679 386 679 q 239 652 276 679 q 181 559 201 626 q 161 378 161 493 q 181 194 161 262 q 239 100 201 127 q 331 73 276 73 m 282 869 l 150 1122 l 258 1122 l 372 869 l 282 869 z "},"ở":{"ha":662,"x_min":52,"x_max":629,"o":"m 510 701 q 610 376 610 608 q 538 80 610 174 q 331 -13 466 -13 q 52 376 52 -13 q 124 672 52 579 q 331 765 196 765 q 393 763 356 765 q 432 760 415 760 q 518 788 486 760 q 550 872 550 815 q 546 919 550 897 q 535 969 542 941 l 613 969 q 625 921 622 944 q 629 867 629 897 q 597 757 629 799 q 510 701 565 715 m 331 73 q 424 100 387 73 q 481 193 460 127 q 501 374 501 259 q 481 558 501 490 q 423 652 460 625 q 331 679 386 679 q 239 652 276 679 q 181 559 201 626 q 161 378 161 493 q 181 194 161 262 q 239 100 201 127 q 331 73 276 73 m 293 869 q 302 915 294 896 q 323 946 311 934 q 353 975 334 958 q 381 1002 372 992 q 390 1028 390 1013 q 374 1063 390 1052 q 319 1074 357 1074 q 269 1070 295 1074 q 221 1058 242 1066 l 221 1113 q 270 1126 242 1121 q 325 1131 298 1131 q 426 1106 392 1131 q 459 1035 459 1081 q 446 985 459 1003 q 407 945 433 966 q 372 910 383 926 q 360 869 360 894 l 293 869 z "},"ỡ":{"ha":662,"x_min":52,"x_max":629,"o":"m 233 992 q 182 979 206 992 q 134 939 158 966 l 134 1018 q 234 1065 174 1065 q 280 1057 258 1065 q 330 1034 301 1049 q 373 1014 357 1020 q 406 1008 389 1008 q 459 1021 435 1008 q 506 1061 483 1034 l 506 981 q 461 947 487 959 q 406 935 435 935 q 361 942 382 935 q 310 965 340 950 q 268 985 285 978 q 233 992 251 992 m 510 701 q 610 376 610 608 q 538 80 610 174 q 331 -13 466 -13 q 52 376 52 -13 q 124 672 52 579 q 331 765 196 765 q 393 763 356 765 q 432 760 415 760 q 518 788 486 760 q 550 872 550 815 q 546 919 550 897 q 535 969 542 941 l 613 969 q 625 921 622 944 q 629 867 629 897 q 597 757 629 799 q 510 701 565 715 m 331 73 q 424 100 387 73 q 481 193 460 127 q 501 374 501 259 q 481 558 501 490 q 423 652 460 625 q 331 679 386 679 q 239 652 276 679 q 181 559 201 626 q 161 378 161 493 q 181 194 161 262 q 239 100 201 127 q 331 73 276 73 z "},"ő":{"ha":662,"x_min":52,"x_max":610,"o":"m 331 -13 q 52 376 52 -13 q 124 672 52 579 q 331 765 196 765 q 537 672 465 765 q 610 376 610 578 q 538 80 610 174 q 331 -13 466 -13 m 331 73 q 424 100 387 73 q 481 193 460 127 q 501 374 501 259 q 481 558 501 490 q 423 652 460 625 q 331 679 386 679 q 239 652 276 679 q 181 559 201 626 q 161 378 161 493 q 181 194 161 262 q 239 100 201 127 q 331 73 276 73 m 187 869 l 256 1122 l 345 1122 l 267 869 l 187 869 m 394 869 l 465 1122 l 553 1122 l 476 869 l 394 869 z "},"ȏ":{"ha":662,"x_min":52,"x_max":610,"o":"m 331 -13 q 52 376 52 -13 q 124 672 52 579 q 331 765 196 765 q 537 672 465 765 q 610 376 610 578 q 538 80 610 174 q 331 -13 466 -13 m 331 73 q 424 100 387 73 q 481 193 460 127 q 501 374 501 259 q 481 558 501 490 q 423 652 460 625 q 331 679 386 679 q 239 652 276 679 q 181 559 201 626 q 161 378 161 493 q 181 194 161 262 q 239 100 201 127 q 331 73 276 73 m 153 889 q 203 1060 157 1005 q 330 1115 249 1115 q 458 1059 410 1115 q 510 889 506 1003 l 438 889 q 407 1013 433 975 q 330 1051 380 1051 q 253 1013 279 1051 q 224 889 226 975 l 153 889 z "},"ō":{"ha":662,"x_min":52,"x_max":610,"o":"m 331 -13 q 52 376 52 -13 q 124 672 52 579 q 331 765 196 765 q 537 672 465 765 q 610 376 610 578 q 538 80 610 174 q 331 -13 466 -13 m 331 73 q 424 100 387 73 q 481 193 460 127 q 501 374 501 259 q 481 558 501 490 q 423 652 460 625 q 331 679 386 679 q 239 652 276 679 q 181 559 201 626 q 161 378 161 493 q 181 194 161 262 q 239 100 201 127 q 331 73 276 73 m 138 950 l 138 1025 l 524 1025 l 524 950 l 138 950 z "},"ṓ":{"ha":662,"x_min":52,"x_max":610,"o":"m 331 -13 q 52 376 52 -13 q 124 672 52 579 q 331 765 196 765 q 537 672 465 765 q 610 376 610 578 q 538 80 610 174 q 331 -13 466 -13 m 331 73 q 424 100 387 73 q 481 193 460 127 q 501 374 501 259 q 481 558 501 490 q 423 652 460 625 q 331 679 386 679 q 239 652 276 679 q 181 559 201 626 q 161 378 161 493 q 181 194 161 262 q 239 100 201 127 q 331 73 276 73 m 138 950 l 138 1025 l 524 1025 l 524 950 l 138 950 m 285 1153 l 381 1350 l 490 1350 l 377 1153 l 285 1153 z "},"ṑ":{"ha":662,"x_min":52,"x_max":610,"o":"m 331 -13 q 52 376 52 -13 q 124 672 52 579 q 331 765 196 765 q 537 672 465 765 q 610 376 610 578 q 538 80 610 174 q 331 -13 466 -13 m 331 73 q 424 100 387 73 q 481 193 460 127 q 501 374 501 259 q 481 558 501 490 q 423 652 460 625 q 331 679 386 679 q 239 652 276 679 q 181 559 201 626 q 161 378 161 493 q 181 194 161 262 q 239 100 201 127 q 331 73 276 73 m 138 950 l 138 1025 l 524 1025 l 524 950 l 138 950 m 285 1153 l 172 1350 l 282 1350 l 377 1153 l 285 1153 z "},"ǫ":{"ha":662,"x_min":52,"x_max":610,"o":"m 435 3 q 327 -68 360 -26 q 294 -154 294 -109 q 316 -214 294 -193 q 376 -234 338 -234 q 456 -212 415 -234 l 466 -264 q 367 -289 420 -289 q 264 -256 301 -289 q 226 -162 226 -222 q 247 -80 226 -118 q 309 -12 267 -42 q 52 376 52 4 q 124 672 52 579 q 331 765 196 765 q 537 672 465 765 q 610 376 610 578 q 566 126 610 215 q 435 3 522 36 m 161 378 q 181 194 161 262 q 239 100 201 127 q 331 73 276 73 q 424 100 387 73 q 481 193 460 127 q 501 374 501 259 q 481 558 501 490 q 423 652 460 625 q 331 679 386 679 q 239 652 276 679 q 181 559 201 626 q 161 378 161 493 z "},"ø":{"ha":662,"x_min":52,"x_max":610,"o":"m 549 655 q 610 376 610 558 q 538 80 610 174 q 331 -13 466 -13 q 158 44 226 -13 l 117 -19 l 59 18 l 111 100 q 52 376 52 197 q 124 672 52 579 q 331 765 196 765 q 501 710 435 765 l 542 773 l 601 736 l 549 655 m 331 681 q 237 653 275 681 q 178 560 199 626 q 158 378 158 494 q 178 194 158 263 l 452 626 q 401 668 431 655 q 331 681 371 681 m 331 71 q 425 98 388 71 q 484 192 463 125 q 505 374 505 258 q 483 561 505 491 l 208 128 q 260 84 229 98 q 331 71 291 71 z "},"ǿ":{"ha":662,"x_min":52,"x_max":610,"o":"m 549 655 q 610 376 610 558 q 538 80 610 174 q 331 -13 466 -13 q 158 44 226 -13 l 117 -19 l 59 18 l 111 100 q 52 376 52 197 q 124 672 52 579 q 331 765 196 765 q 501 710 435 765 l 542 773 l 601 736 l 549 655 m 331 681 q 237 653 275 681 q 178 560 199 626 q 158 378 158 494 q 178 194 158 263 l 452 626 q 401 668 431 655 q 331 681 371 681 m 331 71 q 425 98 388 71 q 484 192 463 125 q 505 374 505 258 q 483 561 505 491 l 208 128 q 260 84 229 98 q 331 71 291 71 m 286 869 l 400 1122 l 508 1122 l 376 869 l 286 869 z "},"õ":{"ha":662,"x_min":52,"x_max":610,"o":"m 331 -13 q 52 376 52 -13 q 124 672 52 579 q 331 765 196 765 q 537 672 465 765 q 610 376 610 578 q 538 80 610 174 q 331 -13 466 -13 m 331 73 q 424 100 387 73 q 481 193 460 127 q 501 374 501 259 q 481 558 501 490 q 423 652 460 625 q 331 679 386 679 q 239 652 276 679 q 181 559 201 626 q 161 378 161 493 q 181 194 161 262 q 239 100 201 127 q 331 73 276 73 m 420 935 q 375 942 397 935 q 321 965 353 950 q 277 985 296 978 q 241 992 259 992 q 186 979 210 992 q 138 939 162 966 l 138 1018 q 242 1065 177 1065 q 289 1057 266 1065 q 342 1034 311 1049 q 386 1014 368 1021 q 421 1008 403 1008 q 476 1020 451 1008 q 524 1061 501 1033 l 524 981 q 420 935 484 935 z "},"ṍ":{"ha":662,"x_min":52,"x_max":610,"o":"m 331 -13 q 52 376 52 -13 q 124 672 52 579 q 331 765 196 765 q 537 672 465 765 q 610 376 610 578 q 538 80 610 174 q 331 -13 466 -13 m 331 73 q 424 100 387 73 q 481 193 460 127 q 501 374 501 259 q 481 558 501 490 q 423 652 460 625 q 331 679 386 679 q 239 652 276 679 q 181 559 201 626 q 161 378 161 493 q 181 194 161 262 q 239 100 201 127 q 331 73 276 73 m 420 935 q 375 942 397 935 q 321 965 353 950 q 277 985 296 978 q 241 992 259 992 q 186 979 210 992 q 138 939 162 966 l 138 1018 q 242 1065 177 1065 q 289 1057 266 1065 q 342 1034 311 1049 q 386 1014 368 1021 q 421 1008 403 1008 q 476 1020 451 1008 q 524 1061 501 1033 l 524 981 q 420 935 484 935 m 285 1153 l 381 1350 l 490 1350 l 377 1153 l 285 1153 z "},"ṏ":{"ha":662,"x_min":52,"x_max":610,"o":"m 331 -13 q 52 376 52 -13 q 124 672 52 579 q 331 765 196 765 q 537 672 465 765 q 610 376 610 578 q 538 80 610 174 q 331 -13 466 -13 m 331 73 q 424 100 387 73 q 481 193 460 127 q 501 374 501 259 q 481 558 501 490 q 423 652 460 625 q 331 679 386 679 q 239 652 276 679 q 181 559 201 626 q 161 378 161 493 q 181 194 161 262 q 239 100 201 127 q 331 73 276 73 m 420 935 q 375 942 397 935 q 321 965 353 950 q 277 985 296 978 q 241 992 259 992 q 186 979 210 992 q 138 939 162 966 l 138 1018 q 242 1065 177 1065 q 289 1057 266 1065 q 342 1034 311 1049 q 386 1014 368 1021 q 421 1008 403 1008 q 476 1020 451 1008 q 524 1061 501 1033 l 524 981 q 420 935 484 935 m 205 1177 q 155 1195 174 1177 q 136 1245 136 1214 q 155 1295 136 1276 q 205 1314 174 1314 q 255 1295 236 1314 q 274 1245 274 1276 q 255 1195 274 1214 q 205 1177 236 1177 m 457 1177 q 407 1195 426 1177 q 388 1245 388 1214 q 407 1295 388 1276 q 457 1314 426 1314 q 507 1295 488 1314 q 526 1245 526 1276 q 507 1195 526 1214 q 457 1177 488 1177 z "},"ȭ":{"ha":662,"x_min":52,"x_max":610,"o":"m 331 -13 q 52 376 52 -13 q 124 672 52 579 q 331 765 196 765 q 537 672 465 765 q 610 376 610 578 q 538 80 610 174 q 331 -13 466 -13 m 331 73 q 424 100 387 73 q 481 193 460 127 q 501 374 501 259 q 481 558 501 490 q 423 652 460 625 q 331 679 386 679 q 239 652 276 679 q 181 559 201 626 q 161 378 161 493 q 181 194 161 262 q 239 100 201 127 q 331 73 276 73 m 420 935 q 375 942 397 935 q 321 965 353 950 q 277 985 296 978 q 241 992 259 992 q 186 979 210 992 q 138 939 162 966 l 138 1018 q 242 1065 177 1065 q 289 1057 266 1065 q 342 1034 311 1049 q 386 1014 368 1021 q 421 1008 403 1008 q 476 1020 451 1008 q 524 1061 501 1033 l 524 981 q 420 935 484 935 m 138 1208 l 138 1283 l 524 1283 l 524 1208 l 138 1208 z "},"œ":{"ha":1056,"x_min":52,"x_max":1011,"o":"m 1011 340 l 606 340 q 631 183 608 241 q 700 101 655 126 q 819 76 746 76 q 977 104 883 76 l 977 14 q 808 -13 891 -13 q 645 21 709 -13 q 547 131 581 56 q 325 -13 485 -13 q 124 81 195 -13 q 52 376 52 174 q 325 765 52 765 q 551 610 490 765 q 634 727 580 689 q 764 766 688 766 q 947 674 883 766 q 1011 376 1011 581 l 1011 340 m 760 687 q 648 626 688 687 q 606 416 608 566 l 909 416 q 889 580 908 521 q 838 663 870 640 q 760 687 806 687 m 329 73 q 420 100 383 73 q 476 193 456 127 q 497 374 497 259 q 476 558 497 490 q 420 652 456 625 q 329 679 383 679 q 238 652 275 679 q 181 559 201 626 q 161 378 161 493 q 181 194 161 262 q 238 100 201 127 q 329 73 274 73 z "},"p":{"ha":669,"x_min":88,"x_max":617,"o":"m 88 753 l 178 753 l 186 676 l 193 676 q 263 741 219 716 q 363 765 306 765 q 547 677 476 765 q 617 390 617 588 q 532 86 617 185 q 275 -13 446 -13 q 194 -8 234 -13 l 194 -306 l 88 -306 l 88 753 m 282 74 q 452 145 395 74 q 508 380 508 216 q 486 558 508 494 q 427 648 465 623 q 338 672 390 672 q 255 650 294 672 q 194 587 215 628 l 194 83 q 236 77 210 79 q 282 74 261 74 z "},"þ":{"ha":669,"x_min":88,"x_max":617,"o":"m 88 1122 l 194 1122 l 194 681 l 200 681 q 271 742 227 719 q 373 765 315 765 q 497 729 442 765 q 584 609 551 692 q 617 390 617 525 q 532 86 617 185 q 275 -13 446 -13 q 194 -8 234 -13 l 194 -306 l 88 -306 l 88 1122 m 282 74 q 452 145 395 74 q 508 380 508 216 q 486 558 508 494 q 427 648 465 623 q 338 672 390 672 q 255 651 294 672 q 194 590 215 629 l 194 83 q 236 77 210 79 q 282 74 261 74 z "},"q":{"ha":669,"x_min":52,"x_max":582,"o":"m 476 72 l 469 72 q 400 10 444 34 q 300 -13 356 -13 q 174 24 229 -13 q 85 144 119 60 q 52 363 52 228 q 138 666 52 567 q 392 765 224 765 q 491 757 439 765 q 582 735 544 749 l 582 -306 l 476 -306 l 476 72 m 333 81 q 416 102 376 81 q 476 163 455 123 l 476 667 q 432 675 457 672 q 385 678 407 678 q 217 607 274 678 q 161 373 161 535 q 183 194 161 259 q 242 105 205 130 q 333 81 280 81 z "},"r":{"ha":432,"x_min":88,"x_max":425,"o":"m 88 753 l 176 753 l 185 651 l 192 651 q 274 733 224 706 q 383 761 324 761 q 425 758 399 761 l 425 657 q 376 660 408 660 q 271 631 322 660 q 194 550 221 601 l 194 0 l 88 0 l 88 753 z "},"ŕ":{"ha":432,"x_min":88,"x_max":425,"o":"m 88 753 l 176 753 l 185 651 l 192 651 q 274 733 224 706 q 383 761 324 761 q 425 758 399 761 l 425 657 q 376 660 408 660 q 271 631 322 660 q 194 550 221 601 l 194 0 l 88 0 l 88 753 m 198 869 l 312 1122 l 419 1122 l 288 869 l 198 869 z "},"ř":{"ha":432,"x_min":69,"x_max":425,"o":"m 88 753 l 176 753 l 185 651 l 192 651 q 274 733 224 706 q 383 761 324 761 q 425 758 399 761 l 425 657 q 376 660 408 660 q 271 631 322 660 q 194 550 221 601 l 194 0 l 88 0 l 88 753 m 338 1122 l 417 1122 l 292 869 l 194 869 l 69 1122 l 149 1122 l 243 923 l 338 1122 z "},"ŗ":{"ha":432,"x_min":71,"x_max":425,"o":"m 88 753 l 176 753 l 185 651 l 192 651 q 274 733 224 706 q 383 761 324 761 q 425 758 399 761 l 425 657 q 376 660 408 660 q 271 631 322 660 q 194 550 221 601 l 194 0 l 88 0 l 88 753 m 139 -113 q 210 -189 210 -113 q 200 -256 210 -219 q 172 -324 190 -292 l 105 -324 q 133 -226 128 -272 q 87 -209 103 -224 q 71 -169 71 -194 q 89 -128 71 -143 q 139 -113 106 -113 z "},"ȑ":{"ha":432,"x_min":20,"x_max":425,"o":"m 88 753 l 176 753 l 185 651 l 192 651 q 274 733 224 706 q 383 761 324 761 q 425 758 399 761 l 425 657 q 376 660 408 660 q 271 631 322 660 q 194 550 221 601 l 194 0 l 88 0 l 88 753 m 97 869 l 20 1122 l 110 1122 l 179 869 l 97 869 m 306 869 l 229 1122 l 320 1122 l 388 869 l 306 869 z "},"ṛ":{"ha":432,"x_min":72,"x_max":425,"o":"m 88 753 l 176 753 l 185 651 l 192 651 q 274 733 224 706 q 383 761 324 761 q 425 758 399 761 l 425 657 q 376 660 408 660 q 271 631 322 660 q 194 550 221 601 l 194 0 l 88 0 l 88 753 m 141 -250 q 91 -232 110 -250 q 72 -182 72 -213 q 91 -132 72 -151 q 141 -113 110 -113 q 191 -132 172 -113 q 210 -182 210 -151 q 191 -232 210 -213 q 141 -250 172 -250 z "},"ȓ":{"ha":432,"x_min":65,"x_max":425,"o":"m 88 753 l 176 753 l 185 651 l 192 651 q 274 733 224 706 q 383 761 324 761 q 425 758 399 761 l 425 657 q 376 660 408 660 q 271 631 322 660 q 194 550 221 601 l 194 0 l 88 0 l 88 753 m 65 889 q 115 1060 69 1005 q 242 1115 160 1115 q 370 1059 322 1115 q 422 889 417 1003 l 350 889 q 318 1013 345 975 q 242 1051 292 1051 q 165 1013 191 1051 q 135 889 138 975 l 65 889 z "},"ṟ":{"ha":432,"x_min":-37,"x_max":425,"o":"m 88 753 l 176 753 l 185 651 l 192 651 q 274 733 224 706 q 383 761 324 761 q 425 758 399 761 l 425 657 q 376 660 408 660 q 271 631 322 660 q 194 550 221 601 l 194 0 l 88 0 l 88 753 m -37 -218 l -37 -144 l 319 -144 l 319 -218 l -37 -218 z "},"s":{"ha":526,"x_min":44,"x_max":490,"o":"m 232 -13 q 60 15 141 -13 l 60 105 q 231 76 151 76 q 350 109 309 76 q 391 203 391 142 q 366 283 391 255 q 289 326 341 311 l 213 346 q 84 420 124 370 q 44 550 44 469 q 74 662 44 613 q 164 738 105 710 q 307 765 224 765 q 453 749 383 765 l 453 658 q 383 672 416 667 q 311 676 349 676 q 185 641 226 676 q 143 551 143 606 q 167 477 143 504 q 242 435 191 449 l 318 414 q 451 339 411 389 q 490 206 490 289 q 459 89 490 138 q 370 13 428 39 q 232 -13 313 -13 z "},"ś":{"ha":526,"x_min":44,"x_max":490,"o":"m 232 -13 q 60 15 141 -13 l 60 105 q 231 76 151 76 q 350 109 309 76 q 391 203 391 142 q 366 283 391 255 q 289 326 341 311 l 213 346 q 84 420 124 370 q 44 550 44 469 q 74 662 44 613 q 164 738 105 710 q 307 765 224 765 q 453 749 383 765 l 453 658 q 383 672 416 667 q 311 676 349 676 q 185 641 226 676 q 143 551 143 606 q 167 477 143 504 q 242 435 191 449 l 318 414 q 451 339 411 389 q 490 206 490 289 q 459 89 490 138 q 370 13 428 39 q 232 -13 313 -13 m 221 869 l 335 1122 l 442 1122 l 311 869 l 221 869 z "},"ṥ":{"ha":526,"x_min":44,"x_max":490,"o":"m 232 -13 q 60 15 141 -13 l 60 105 q 231 76 151 76 q 350 109 309 76 q 391 203 391 142 q 366 283 391 255 q 289 326 341 311 l 213 346 q 84 420 124 370 q 44 550 44 469 q 74 662 44 613 q 164 738 105 710 q 307 765 224 765 q 453 749 383 765 l 453 658 q 383 672 416 667 q 311 676 349 676 q 185 641 226 676 q 143 551 143 606 q 167 477 143 504 q 242 435 191 449 l 318 414 q 451 339 411 389 q 490 206 490 289 q 459 89 490 138 q 370 13 428 39 q 232 -13 313 -13 m 209 1094 q 160 1110 178 1094 q 142 1153 142 1125 q 160 1196 142 1181 q 209 1212 178 1212 q 257 1196 239 1212 q 275 1153 275 1181 q 257 1110 275 1125 q 209 1094 240 1094 m 221 869 l 335 1122 l 442 1122 l 311 869 l 221 869 z "},"š":{"ha":526,"x_min":44,"x_max":490,"o":"m 232 -13 q 60 15 141 -13 l 60 105 q 231 76 151 76 q 350 109 309 76 q 391 203 391 142 q 366 283 391 255 q 289 326 341 311 l 213 346 q 84 420 124 370 q 44 550 44 469 q 74 662 44 613 q 164 738 105 710 q 307 765 224 765 q 453 749 383 765 l 453 658 q 383 672 416 667 q 311 676 349 676 q 185 641 226 676 q 143 551 143 606 q 167 477 143 504 q 242 435 191 449 l 318 414 q 451 339 411 389 q 490 206 490 289 q 459 89 490 138 q 370 13 428 39 q 232 -13 313 -13 m 360 1122 l 440 1122 l 315 869 l 217 869 l 92 1122 l 172 1122 l 266 923 l 360 1122 z "},"ṧ":{"ha":526,"x_min":44,"x_max":490,"o":"m 232 -13 q 60 15 141 -13 l 60 105 q 231 76 151 76 q 350 109 309 76 q 391 203 391 142 q 366 283 391 255 q 289 326 341 311 l 213 346 q 84 420 124 370 q 44 550 44 469 q 74 662 44 613 q 164 738 105 710 q 307 765 224 765 q 453 749 383 765 l 453 658 q 383 672 416 667 q 311 676 349 676 q 185 641 226 676 q 143 551 143 606 q 167 477 143 504 q 242 435 191 449 l 318 414 q 451 339 411 389 q 490 206 490 289 q 459 89 490 138 q 370 13 428 39 q 232 -13 313 -13 m 266 1128 q 218 1144 236 1128 q 200 1187 200 1159 q 218 1230 200 1215 q 266 1246 236 1246 q 314 1230 296 1246 q 332 1187 332 1215 q 314 1144 332 1159 q 266 1128 296 1128 m 360 1122 l 440 1122 l 315 869 l 217 869 l 92 1122 l 172 1122 l 266 923 l 360 1122 z "},"ş":{"ha":526,"x_min":44,"x_max":490,"o":"m 490 206 q 441 63 490 119 q 301 -8 391 8 l 301 -74 q 372 -108 347 -81 q 397 -180 397 -136 q 363 -259 397 -230 q 262 -289 328 -289 q 207 -283 234 -289 q 157 -267 179 -277 l 157 -210 q 260 -235 205 -235 q 332 -177 332 -235 q 259 -117 332 -117 l 238 -117 l 238 -13 l 232 -13 q 60 15 141 -13 l 60 105 q 231 76 151 76 q 350 109 309 76 q 391 203 391 142 q 366 283 391 255 q 289 326 341 311 l 213 346 q 84 420 124 370 q 44 550 44 469 q 74 662 44 613 q 164 738 105 710 q 307 765 224 765 q 453 749 383 765 l 453 658 q 383 672 416 667 q 311 676 349 676 q 185 641 226 676 q 143 551 143 606 q 167 477 143 504 q 242 435 191 449 l 318 414 q 451 339 411 389 q 490 206 490 289 z "},"ŝ":{"ha":526,"x_min":44,"x_max":490,"o":"m 232 -13 q 60 15 141 -13 l 60 105 q 231 76 151 76 q 350 109 309 76 q 391 203 391 142 q 366 283 391 255 q 289 326 341 311 l 213 346 q 84 420 124 370 q 44 550 44 469 q 74 662 44 613 q 164 738 105 710 q 307 765 224 765 q 453 749 383 765 l 453 658 q 383 672 416 667 q 311 676 349 676 q 185 641 226 676 q 143 551 143 606 q 167 477 143 504 q 242 435 191 449 l 318 414 q 451 339 411 389 q 490 206 490 289 q 459 89 490 138 q 370 13 428 39 q 232 -13 313 -13 m 440 869 l 360 869 l 266 1069 l 172 869 l 92 869 l 217 1122 l 315 1122 l 440 869 z "},"ș":{"ha":526,"x_min":44,"x_max":490,"o":"m 232 -13 q 60 15 141 -13 l 60 105 q 231 76 151 76 q 350 109 309 76 q 391 203 391 142 q 366 283 391 255 q 289 326 341 311 l 213 346 q 84 420 124 370 q 44 550 44 469 q 74 662 44 613 q 164 738 105 710 q 307 765 224 765 q 453 749 383 765 l 453 658 q 383 672 416 667 q 311 676 349 676 q 185 641 226 676 q 143 551 143 606 q 167 477 143 504 q 242 435 191 449 l 318 414 q 451 339 411 389 q 490 206 490 289 q 459 89 490 138 q 370 13 428 39 q 232 -13 313 -13 m 264 -113 q 335 -189 335 -113 q 325 -256 335 -219 q 297 -324 315 -292 l 230 -324 q 258 -226 253 -272 q 212 -209 228 -224 q 196 -169 196 -194 q 214 -128 196 -143 q 264 -113 231 -113 z "},"ṡ":{"ha":526,"x_min":44,"x_max":490,"o":"m 232 -13 q 60 15 141 -13 l 60 105 q 231 76 151 76 q 350 109 309 76 q 391 203 391 142 q 366 283 391 255 q 289 326 341 311 l 213 346 q 84 420 124 370 q 44 550 44 469 q 74 662 44 613 q 164 738 105 710 q 307 765 224 765 q 453 749 383 765 l 453 658 q 383 672 416 667 q 311 676 349 676 q 185 641 226 676 q 143 551 143 606 q 167 477 143 504 q 242 435 191 449 l 318 414 q 451 339 411 389 q 490 206 490 289 q 459 89 490 138 q 370 13 428 39 q 232 -13 313 -13 m 266 917 q 211 935 231 917 q 191 987 191 954 q 211 1039 191 1019 q 266 1058 231 1058 q 321 1039 301 1058 q 340 987 340 1019 q 321 935 340 954 q 266 917 301 917 z "}}}
